<?xml version="1.0" encoding="UTF-8" standalone="no"?>
<svg
   xmlns:osb="http://www.openswatchbook.org/uri/2009/osb"
   xmlns:dc="http://purl.org/dc/elements/1.1/"
   xmlns:cc="http://creativecommons.org/ns#"
   xmlns:rdf="http://www.w3.org/1999/02/22-rdf-syntax-ns#"
   xmlns:svg="http://www.w3.org/2000/svg"
   xmlns="http://www.w3.org/2000/svg"
   id="Capa_1"
   enable-background="new 0 0 505.136 505.136"
   height="512"
   viewBox="0 0 505.136 505.136"
   width="512"
   version="1.1">
  <g
     id="g991"
     transform="matrix(1.0220023,0,0,0.96241496,38.044531,22.676405)">
    <g
       id="g995"
       transform="translate(-0.67525601)">
      <path
         style="fill:#000000;stroke-width:3.36835"
         d="m 148.20326,375.89933 v -74.10368 h -25.26262 c -13.89446,0 -25.248864,-0.37876 -25.232064,-0.84212 0.016,-0.46304 5.308214,-19.78904 11.758664,-42.94643 6.45044,-23.15739 11.74185,-44.38676 11.75865,-47.17631 0.016,-2.78955 -15.127,-16.8809 -33.652924,-31.31404 -48.87249,-38.0756 -48.21997,-41.04775 18.965384,-86.385242 19.35891,-13.0636 38.31864,-23.75198 42.1328,-23.75198 17.49918,0 28.27537,10.35199 63.53075,61.029852 19.45221,27.96164 37.19395,54.84709 39.4262,59.74545 8.88162,19.4902 3.68635,44.80157 -12.13458,59.11933 -8.30453,7.51549 -8.80918,15.39512 -2.35868,36.82859 l 4.7229,15.6929 H 216.92475 191.9918 v 74.10368 74.10369 h -21.89427 -21.89427 z m -21.99275,-232.6065 c -5.16354,-9.98518 -5.95599,-10.35631 -11.10933,-5.20296 -5.1533,5.15329 -4.83136,6.12472 4.51352,13.6177 11.89468,9.53761 14.2955,6.47477 6.59581,-8.41474 z m 9.82664,-87.319592 c -26.71661,-10.7947 -31.6514,-53.9924903 -8.08496,-70.77327 30.81179,-21.93993 70.02083,-0.0939 66.24028,36.90696 -2.85351,27.92761 -31.52695,44.62538 -58.15532,33.86631 z"
         id="path985" />
      <circle
         style="fill:#000007;stroke-width:1.07716"
         id="path987"
         cx="169.88571"
         cy="446.55667"
         r="21.940405" />
    </g>
  </g>
  <metadata
     id="metadata1030">
    <rdf:RDF>
      <cc:Work
         rdf:about="">
        <dc:format>image/svg+xml</dc:format>
        <dc:type
           rdf:resource="http://purl.org/dc/dcmitype/StillImage" />
        <dc:title></dc:title>
      </cc:Work>
    </rdf:RDF>
  </metadata>
  <defs
     id="defs1028">
    <linearGradient
       id="linearGradient1639"
       osb:paint="solid">
      <stop
         style="stop-color:#0065cc;stop-opacity:1;"
         offset="0"
         id="stop1637" />
    </linearGradient>
  </defs>
  <ellipse
     style="opacity:1;fill:#0065cc;fill-opacity:1;stroke:#0065cc;stroke-width:1.98899;stroke-miterlimit:4;stroke-dasharray:none;stroke-opacity:1"
     id="path1593"
     cx="314.72943"
     cy="406.47662"
     rx="97.664871"
     ry="97.664879" />
  <g
     id="g3380"
     transform="translate(-18.406617,16.725734)">
    <g
       id="text860"
       style="font-style:normal;font-weight:normal;font-size:39.4637px;line-height:1.25;font-family:sans-serif;fill:#000000;fill-opacity:1;stroke:none;stroke-width:0.986594" />
  </g>
  <g
     aria-label="1"
     id="text1062-9"
     style="font-style:normal;font-weight:normal;font-size:39.4637px;line-height:1.25;font-family:sans-serif;opacity:0.8;fill:#333333;fill-opacity:1;stroke:none;stroke-width:0.986594"
     transform="translate(3.195647)">
    <path
       d="m 270.88165,454.85055 h 31.44767 v -89.2559 l -32.28011,6.65951 v -24.23321 l 32.09513,-6.6595 h 33.85249 v 113.4891 h 31.44768 v 24.60319 h -96.56286 z"
       style="font-style:normal;font-variant:normal;font-weight:bold;font-stretch:normal;font-size:189.426px;font-family:sans-serif;-inkscape-font-specification:'sans-serif Bold';fill:#333333;stroke-width:0.986594"
       id="path25" />
  </g>
  <g
     aria-label="1"
     id="text1062"
     style="font-style:normal;font-weight:normal;font-size:39.4637px;line-height:1.25;font-family:sans-serif;fill:#000000;fill-opacity:1;stroke:none;stroke-width:0.986594"
     transform="translate(3.195647)">
    <path
       d="m 267.10624,450.91959 h 31.44768 v -89.25591 l -32.28012,6.65951 v -24.23321 l 32.09513,-6.6595 h 33.8525 v 113.48911 h 31.44767 v 24.60318 h -96.56286 z"
       style="font-style:normal;font-variant:normal;font-weight:bold;font-stretch:normal;font-size:189.426px;font-family:sans-serif;-inkscape-font-specification:'sans-serif Bold';fill:#ffffff;stroke-width:0.986594"
       id="path28" />
  </g>
</svg>
