<?xml version="1.0" encoding="UTF-8" standalone="no"?>
<svg
   xmlns:osb="http://www.openswatchbook.org/uri/2009/osb"
   xmlns:dc="http://purl.org/dc/elements/1.1/"
   xmlns:cc="http://creativecommons.org/ns#"
   xmlns:rdf="http://www.w3.org/1999/02/22-rdf-syntax-ns#"
   xmlns:svg="http://www.w3.org/2000/svg"
   xmlns="http://www.w3.org/2000/svg"
   id="Capa_1"
   enable-background="new 0 0 505.136 505.136"
   height="512"
   viewBox="0 0 505.136 505.136"
   width="512"
   version="1.1">
  <metadata
     id="metadata1030">
    <rdf:RDF>
      <cc:Work
         rdf:about="">
        <dc:format>image/svg+xml</dc:format>
        <dc:type
           rdf:resource="http://purl.org/dc/dcmitype/StillImage" />
        <dc:title></dc:title>
      </cc:Work>
    </rdf:RDF>
  </metadata>
  <defs
     id="defs1028">
    <linearGradient
       id="linearGradient1639"
       osb:paint="solid">
      <stop
         style="stop-color:#0065cc;stop-opacity:1;"
         offset="0"
         id="stop1637" />
    </linearGradient>
  </defs>
  <g
     id="g3380"
     transform="translate(-18.406617,16.725734)">
    <g
       id="text860"
       style="font-style:normal;font-weight:normal;font-size:39.4637px;line-height:1.25;font-family:sans-serif;fill:#000000;fill-opacity:1;stroke:none;stroke-width:0.986594" />
  </g>
  <path
     style="fill:#000000;stroke-width:8.89419"
     d="m 134.90458,430.46932 c -10.07203,-10.07202 -22.49708,-18.31278 -27.61127,-18.31278 -16.537709,0 -52.960831,-43.10438 -52.960831,-62.67572 0,-10.45733 -8.004778,-29.18973 -17.788377,-41.62758 -22.829063,-29.02247 -22.522089,-51.05842 1.039538,-74.62003 15.057956,-15.05796 26.188631,-17.92606 55.588694,-14.32388 20.218406,2.47722 43.764926,7.3756 52.325596,10.88529 8.61223,3.53087 15.56481,2.46531 15.56481,-2.38544 0,-16.68975 -52.91158,-31.19321 -93.502051,-25.6297 -36.841228,5.04968 -40.06081,3.86261 -45.2142,-16.67016 C 12.548263,146.0702 26.385576,103.44423 56.858461,78.794657 72.59048,66.069004 96.451113,45.896488 109.8821,33.966801 136.17875,10.609616 167.67863,-0.43211916 193.71249,4.5815559 208.94588,7.5152277 209.98077,21.56899 209.98077,225.50037 c 0,217.78583 0,217.78583 -28.38169,220.53377 -19.46297,1.88445 -34.13635,-3.0067 -46.6945,-15.56482 z m 26.15816,-94.31767 c 0,-24.96093 -35.79543,-66.30215 -57.40795,-66.30215 -21.089263,0 -16.337347,13.75219 8.6926,25.15658 14.13226,6.4391 24.42086,20.13701 27.79433,37.00441 6.52026,32.60131 20.92102,35.45184 20.92102,4.14116 z m -1.97902,-204.66642 c 10.87206,-7.61507 19.7674,-19.62224 19.7674,-26.68258 0,-18.224643 -11.60204,-15.89116 -24.61847,4.95145 -6.10997,9.7836 -19.07988,17.78837 -28.82202,17.78837 -9.74218,0 -17.71302,4.00239 -17.71302,8.89418 0,13.45898 29.10564,10.65443 51.38611,-4.95142 z m 77.13157,304.94631 c -2.38528,-6.21595 -3.26028,-105.22233 -1.94442,-220.01416 2.2248,-194.08472 3.53267,-208.9316648 18.66081,-211.8406335 25.89774,-4.97983129 57.4571,5.9857875 83.83038,29.1277235 13.431,11.785387 38.42832,33.389531 55.54962,48.009205 28.79167,24.584885 31.12965,30.369015 31.12965,77.014715 0,58.86008 -18.68509,80.81612 -76.66663,90.08774 -18.9809,3.03517 -34.51073,9.00936 -34.51073,13.27594 0,12.39528 46.58548,8.86434 74.39372,-5.63865 14.01164,-7.30758 29.02057,-13.28649 33.35324,-13.28649 14.49119,0 8.08571,41.80736 -9.91088,64.68631 -9.7836,12.43785 -17.78837,30.98829 -17.78837,41.22327 0,21.76737 -29.50871,54.18584 -49.32232,54.18584 -19.82076,0 -57.40796,-40.49889 -57.40796,-61.85504 0,-10.00598 -4.00239,-18.19268 -8.89418,-18.19268 -23.28484,0 5.53768,73.38031 33.02424,84.07779 14.53166,5.65554 14.0943,7.65353 -5.10346,23.31326 -23.86375,19.46582 -61.91477,22.70711 -68.39271,5.82586 z M 374.5233,173.85273 c 0,-3.88022 -13.00776,-10.88437 -28.90612,-15.56486 -16.01485,-4.71474 -32.82158,-17.43463 -37.68581,-28.52185 -9.12247,-20.79313 -22.34997,-27.02695 -22.34997,-10.53302 0,18.56606 19.25365,45.01146 38.38174,52.71835 24.86975,10.02026 50.56016,10.98638 50.56016,1.90138 z"
     id="path939" />
  <g
     id="g1037"
     transform="matrix(1.3243371,0,0,1.4567708,28.565928,137.98174)"
     style="fill:#0065cc;fill-opacity:1">
    <path
       d="m 280.98995,104.76268 c -1.69605,-1.68679 -4.24128,-2.1889 -6.45101,-1.2703 -2.20971,0.9186 -3.65124,3.07741 -3.65124,5.46993 v 31.60712 c -31.99353,1.27261 -48.01459,14.53557 -50.46264,16.74066 -16.14138,13.24677 -27.16222,31.70662 -31.16518,52.19803 -2.00147,9.90094 -2.36011,20.06334 -1.05742,30.07998 l 0.005,0.0347 c 0.0115,0.0879 0.0255,0.17816 0.0393,0.26609 l 1.25873,7.23539 c 0.42343,2.43648 2.31847,4.35466 4.75033,4.80817 2.43416,0.45352 4.89146,-0.65482 6.16408,-2.77661 l 3.77157,-6.28672 c 11.58773,-19.26738 26.02843,-32.0398 42.92644,-37.96093 7.6218,-2.69563 15.69712,-3.878 23.77013,-3.48465 v 32.73627 c 0,2.39715 1.44615,4.56059 3.66282,5.47456 2.21897,0.91628 4.76883,0.40261 6.46025,-1.29807 l 62.59633,-62.91344 c 2.30691,-2.31847 2.29765,-6.06921 -0.0208,-8.37612 z m 1.74695,115.04204 v -23.70996 c 0,-2.90619 -2.11023,-5.38432 -4.98171,-5.84709 -5.06732,-0.81678 -18.58248,-2.11485 -34.55496,3.48234 -17.03915,5.96972 -31.78065,17.7171 -43.92139,34.97839 -0.0347,-5.67124 0.5021,-11.33321 1.60349,-16.89801 3.60034,-18.20301 12.74465,-33.4929 27.1761,-45.43928 0.12727,-0.10412 0.24758,-0.21288 0.36559,-0.32857 0.41418,-0.3841 15.4588,-13.96636 48.34085,-13.7211 h 0.044 c 3.27177,0 5.92575,-2.65398 5.92807,-5.92575 v -23.18241 l 48.29687,48.05392 z m 0,0"
       id="path1023"
       style="fill:#0065cc;fill-opacity:1;stroke-width:0.592344" />
  </g>
  <path
     style="opacity:1;fill:#0065cc;fill-opacity:1;stroke:#0065cc;stroke-width:0.870314"
     d="m 296.60238,475.2937 c 0.0771,-4.44508 1.92088,-19.65483 3.10588,-25.62168 l 1.4057,-7.07813 4.95008,-3.47229 c 2.72255,-1.90975 7.94888,-6.32869 11.61409,-9.81987 6.09157,-5.80233 6.63975,-6.60222 6.38164,-9.31201 -0.25033,-2.62808 -0.82117,-3.23725 -5.0311,-5.36895 -2.61181,-1.3225 -4.74874,-2.55005 -4.74874,-2.72791 0,-0.68963 7.53051,-11.65152 8.63261,-12.56619 0.89947,-0.74649 2.36865,-0.14615 6.435,2.62952 10.43993,7.12623 19.36206,8.6458 28.55528,4.86337 12.89331,-5.30478 26.95438,-19.27901 35.04301,-34.82658 3.21945,-6.18827 4.24964,-7.04359 8.6035,-7.14309 1.68146,-0.0384 3.42337,-0.87715 4.74874,-2.2865 2.04903,-2.17889 2.10226,-2.61575 2.52486,-20.72321 l 0.43171,-18.4974 31.51433,34.56018 c 17.33288,19.0081 31.38912,34.84147 31.23609,35.18527 -0.15304,0.3438 -14.33449,16.15982 -31.51434,35.14671 l -31.23608,34.52161 -0.43459,-18.5486 c -0.23902,-10.20172 -0.77177,-19.24289 -1.18389,-20.09149 -2.8836,-5.93765 -26.24164,-6.46065 -45.05481,-1.00881 -23.63067,6.8479 -46.88178,24.88112 -62.83309,48.73243 -1.74249,2.60546 -3.15813,4.15959 -3.14588,3.45362 z"
     id="path1041"
     transform="scale(0.98659375)" />
  <path
     style="opacity:1;fill:#0065cc;fill-opacity:1;stroke:#0065cc;stroke-width:0.870314"
     d="m 340.06616,406.37102 c -2.43816,-0.84268 -7.05756,-3.24211 -10.26536,-5.33206 l -5.83235,-3.79993 8.57347,-8.2734 c 9.60264,-9.26655 18.34372,-14.43857 31.23629,-18.48224 12.55708,-3.93845 30.36682,-6.24508 30.36682,-3.93297 0,1.41841 -3.38064,7.69866 -7.1854,13.3484 -7.93988,11.79004 -22.41278,23.93714 -31.86475,26.74407 -5.71155,1.69615 -9.53467,1.62699 -15.02872,-0.27187 z"
     id="path1043"
     transform="scale(0.98659375)" />
  <path
     style="opacity:1;fill:#0065cc;fill-opacity:1;stroke:#0065cc;stroke-width:0.870314"
     d=""
     id="path1045"
     transform="scale(0.98659375)" />
  <path
     style="opacity:1;fill:#0065cc;fill-opacity:1;stroke:#0065cc;stroke-width:0.870314"
     d="m 301.76054,440.54214 c 0,-3.04115 10.59357,-27.42419 11.89651,-27.38201 0.34259,0.0111 2.56555,1.07956 4.93991,2.37437 6.65964,3.63169 6.39817,5.37741 -1.98171,13.23094 -6.09293,5.71023 -14.85471,12.6565 -14.85471,11.7767 z"
     id="path1047"
     transform="scale(0.98659375)" />
  <path
     style="opacity:1;fill:#0065cc;fill-opacity:1;stroke:#0065cc;stroke-width:0.870314"
     d="m 286.65931,509.62563 c -2.92042,-2.52551 -4.60111,-11.31476 -5.32771,-27.86141 -0.97941,-22.30375 3.09245,-44.33959 11.96267,-64.73892 9.06671,-20.85123 26.61327,-42.47119 43.00253,-52.9855 11.10277,-7.12284 31.3375,-13.89636 45.32883,-15.17372 3.32412,-0.30348 7.30658,-0.74786 8.84992,-0.98751 l 2.80607,-0.43574 v -25.06608 -25.06607 l 2.62481,-2.62482 c 2.20648,-2.20648 3.06651,-2.53674 5.39629,-2.07221 3.29682,0.65733 0.69283,-1.99411 34.84581,35.48079 15.14727,16.62057 33.84519,37.13208 41.55095,45.58114 12.54763,13.75796 14.01047,15.67955 14.01047,18.40414 0,1.67323 -0.3929,3.77638 -0.87311,4.67366 -1.82472,3.40953 -85.75101,95.43482 -87.88301,96.36384 -1.53833,0.67033 -3.00069,0.70996 -4.67389,0.12667 -4.93561,-1.72056 -4.99832,-2.10658 -4.99832,-30.76846 v -26.26008 l -8.13041,0.59681 c -34.30129,2.51788 -62.12529,23.57081 -83.46284,63.15186 -6.19342,11.48876 -10.04959,13.96775 -15.02906,9.66161 z m 15.09085,-38.88248 c 6.03852,-9.04042 24.33795,-27.54925 32.81982,-33.19536 11.59794,-7.72037 26.69326,-14.21222 36.04722,-15.50237 2.01821,-0.27836 3.66948,-0.84182 3.66948,-1.25215 0,-0.95213 0.20508,-0.96929 -6.20612,0.51953 -24.07234,5.59011 -47.92222,22.03566 -64.5281,44.49496 -2.98443,4.03642 -5.6338,7.53322 -5.88748,7.77065 -0.66685,0.62417 0.46801,-11.07352 2.0768,-21.40678 l 1.38368,-8.8874 6.14553,-4.65879 c 3.38005,-2.56234 8.57387,-7.04646 11.54183,-9.96472 4.43115,-4.35694 5.39629,-5.80941 5.39629,-8.12101 0,-3.10246 -1.33446,-4.61667 -6.25494,-7.09746 l -3.23302,-1.63001 3.85325,-5.74384 c 2.11928,-3.15912 4.27195,-6.00262 4.78372,-6.31891 0.51176,-0.31628 3.41634,1.04454 6.45462,3.02406 16.15258,10.52382 30.65992,7.59707 47.92559,-9.66859 5.21917,-5.21916 10.37934,-12.23617 17.7018,-24.07159 1.31949,-2.1327 2.71052,-3.03694 5.89708,-3.83339 5.05023,-1.26225 6.43428,-2.52829 7.06896,-6.46618 l 0.48519,-3.01036 -1.34198,3.03799 c -2.07253,4.69182 -3.93121,5.36917 -16.85497,6.14241 -18.07481,1.08144 -33.97021,5.62507 -46.91223,13.40965 -2.92978,1.76226 -9.02735,6.91947 -13.55016,11.46048 -19.60276,19.68163 -30.67346,44.58126 -33.61369,75.60208 -1.07371,11.32812 -1.09812,12.52826 -0.25408,12.49021 0.35615,-0.0161 2.77981,-3.22145 5.38591,-7.12311 z m 139.43707,-41.6896 c 17.87251,-19.73994 32.37487,-36.20537 32.22747,-36.58984 -0.4127,-1.07653 -63.81661,-70.37413 -64.68786,-70.70092 -0.4338,-0.16271 -0.70175,6.78018 -0.61647,15.97302 0.15473,16.67929 0.37976,16.34072 1.41343,-2.12655 l 0.59424,-10.61671 11.22429,12.27637 c 22.75397,24.88678 47.24702,52.18362 48.55494,54.11317 1.26981,1.87332 1.20124,2.14229 -1.21057,4.74874 -1.40614,1.51961 -9.52298,10.53359 -18.03742,20.03106 -8.51444,9.49747 -21.21428,23.57404 -28.22187,31.28127 l -12.74107,14.01315 -0.10724,-7.5376 c -0.059,-4.14568 -0.38639,-10.25733 -0.72756,-13.58144 -0.48005,-4.67724 -0.65103,-2.57851 -0.75616,9.28162 -0.0747,8.429 0.0289,15.32546 0.23028,15.32546 0.20136,0 14.98908,-16.15086 32.86157,-35.8908 z m -32.62937,-1.00339 c -0.21891,-0.84007 -0.41241,-0.3618 -0.43001,1.06282 -0.0176,1.42463 0.16151,2.11195 0.39802,1.5274 0.2365,-0.58456 0.2509,-1.75015 0.032,-2.59022 z m -1.85801,-5.37358 c -0.79029,-0.87325 -3.13914,-2.01637 -5.21968,-2.54025 -4.41487,-1.11168 -22.51235,-1.17428 -25.03498,-0.0866 -1.03014,0.44417 1.93066,0.5591 7.33896,0.28486 12.11241,-0.61418 19.72574,0.63414 22.00227,3.60761 0.94173,1.23003 1.8558,1.80569 2.03127,1.27927 0.17548,-0.52643 -0.32755,-1.67163 -1.11784,-2.54489 z"
     id="path1049"
     transform="scale(0.98659375)" />
  <path
     style="opacity:1;fill:#0065cc;fill-opacity:1;stroke:#0065cc;stroke-width:0.870314"
     d="m 286.8755,509.86388 c -3.98305,-3.13307 -6.36006,-20.06703 -5.57816,-39.73909 1.07551,-27.05886 8.60454,-51.32597 22.44397,-72.34 20.83873,-31.64188 44.40858,-45.53541 84.57572,-49.85417 l 4.96459,-0.5338 V 322.06521 296.7336 l 2.65647,-2.23526 c 2.67476,-2.25067 4.62234,-2.70114 7.27587,-1.68288 1.17668,0.45153 71.92747,77.32714 84.82651,92.16984 3.09108,3.55686 3.66948,4.80646 3.66948,7.92777 0,3.55353 -0.50423,4.26429 -12.30354,17.34314 -52.94799,58.68978 -74.51766,82.02649 -76.67358,82.95483 -1.61543,0.69561 -3.18544,0.80249 -4.49186,0.3058 -4.45583,-1.6941 -4.49745,-1.94763 -4.95935,-30.21457 l -0.4317,-26.41863 -6.47555,0.23706 c -33.27694,1.21822 -61.5803,22.00668 -83.7271,61.4965 -2.53004,4.5113 -5.58566,9.27083 -6.79026,10.57673 -2.61715,2.83722 -5.91367,3.08311 -8.98151,0.66995 z m 16.89399,-41.89761 c 7.13954,-9.39831 12.41462,-15.14172 21.73473,-23.66438 3.52139,-3.22009 4.42677,-4.29987 2.16932,-2.58715 -7.28263,5.52527 -16.6464,15.02217 -23.21326,23.54329 -5.93588,7.70238 -6.61764,8.32108 -7.13549,6.47555 -0.4905,-1.74803 -0.58659,-1.793 -0.67041,-0.31368 -0.0538,0.94975 -0.34574,2.65303 -0.6487,3.78507 -0.93871,3.50754 0.90903,1.78477 7.76381,-7.2387 z m -6.07077,-2.37436 c 0.27676,-1.79353 0.13871,-3.23778 -0.3095,-3.23778 -0.44501,0 -0.80912,1.61889 -0.80912,3.59753 0,4.26076 0.4268,4.12351 1.11862,-0.35975 z m 118.08886,-8.69534 c 11.23328,-12.57436 52.80228,-58.76038 55.4035,-61.55709 l 2.50278,-2.69088 -27.51933,-30.11857 c -29.05524,-31.79953 -37.83744,-41.16753 -36.93647,-39.40018 0.30261,0.59359 0.13873,1.07926 -0.36417,1.07926 -0.59355,0 -0.87644,3.25661 -0.80629,9.28162 0.0877,7.53381 0.23825,8.54997 0.7994,5.39629 0.38024,-2.13694 0.72014,-6.32764 0.75534,-9.31269 l 0.064,-5.42736 4.60072,4.99566 c 37.60687,40.83509 56.99858,62.98191 56.43433,64.45232 -0.44135,1.15014 -39.964,45.44616 -58.6291,65.71006 l -3.20619,3.48082 0.44547,-4.31703 c 0.24501,-2.37436 0.0839,-6.64823 -0.35801,-9.49747 -0.75895,-4.89341 -0.80929,-4.61833 -0.90875,4.96459 -0.0579,5.57976 0.21195,10.14502 0.59967,10.14502 0.38773,0 3.59313,-3.23297 7.1231,-7.18437 z m -116.8187,-3.1765 0.003,-3.02192 -0.71435,3.45362 c -0.3929,1.89949 -0.69078,4.42496 -0.66197,5.61214 0.0477,1.96659 0.11101,1.9282 0.7115,-0.4317 0.3625,-1.42462 0.66039,-3.95009 0.66196,-5.61214 z m 0.77326,-6.2597 c -0.23952,-0.59359 -0.43549,-0.10792 -0.43549,1.07926 0,1.18718 0.19597,1.67285 0.43549,1.07926 0.23952,-0.59359 0.23952,-1.56493 0,-2.15852 z m 13.76088,-14.61146 c 4.32143,-3.7303 8.56681,-8.10013 9.43418,-9.71073 1.48825,-2.76352 1.49482,-3.05385 0.11673,-5.15709 -0.80316,-1.22577 -3.00875,-3.01865 -4.9013,-3.98416 -1.89254,-0.9655 -3.44099,-1.96315 -3.44099,-2.21699 0,-0.80797 6.67258,-10.32147 8.02861,-11.44687 1.07803,-0.89469 2.73529,-0.3298 9.60095,3.27256 4.56391,2.39464 9.1665,4.33607 10.22798,4.31428 1.2333,-0.0253 -0.0886,-0.97318 -3.66208,-2.62584 -3.07564,-1.42242 -7.47409,-3.79391 -9.77434,-5.26998 l -4.18227,-2.68375 5.0256,-5.128 c 13.20969,-13.47884 25.12183,-19.82942 45.15869,-24.07491 8.97878,-1.90245 11.56539,-3.00289 4.76404,-2.02678 -9.52081,1.3664 -21.11114,4.93204 -29.76725,9.15757 -8.37157,4.08664 -9.8707,5.22385 -19.06472,14.46218 -12.94263,13.005 -21.65874,26.40996 -26.70048,41.06403 -1.85805,5.4005 -1.48728,6.52022 0.51534,1.55633 3.15516,-7.82067 8.46213,-18.34739 9.24969,-18.34739 2.21022,0 8.35089,4.49819 8.35089,6.11723 0,2.96378 -15.07722,17.37168 -20.0742,19.18306 -0.83102,0.30124 -1.51096,1.18739 -1.51096,1.96922 0,1.29306 0.21455,1.28311 2.37437,-0.11006 1.3059,-0.84235 5.91008,-4.58361 10.23152,-8.31391 z m 25.384,1.31484 c 0,-0.62457 -3.32755,1.38568 -3.94355,2.38239 -0.32236,0.52158 0.43307,0.28053 1.67872,-0.53564 1.24566,-0.81619 2.26483,-1.64723 2.26483,-1.84675 z m 13.44089,-7.00729 c -0.38471,-0.38471 -12.57749,5.70063 -12.57749,6.27735 0,0.22757 2.90032,-1.02134 6.44516,-2.77537 3.54483,-1.75404 6.30438,-3.32993 6.13233,-3.50198 z m 3.82723,-1.0654 c 0.71231,-0.46033 0.90658,-0.83696 0.43171,-0.83696 -0.47488,0 -1.44621,0.37663 -2.15852,0.83696 -0.71231,0.46034 -0.90658,0.83696 -0.4317,0.83696 0.47487,0 1.4462,-0.37662 2.15851,-0.83696 z m 51.27883,-2.09176 c -0.25925,-0.67559 -1.09947,-1.46937 -1.86716,-1.76397 -1.1467,-0.44003 -1.11091,-0.22082 0.20057,1.22836 1.88068,2.07812 2.31165,2.21662 1.66659,0.53561 z m -38.56157,-1.88351 c -0.28691,-0.2869 -1.03159,-0.31757 -1.65486,-0.0681 -0.68877,0.27562 -0.48418,0.48021 0.52164,0.52164 0.91017,0.0375 1.42012,-0.16658 1.13322,-0.45348 z m 3.90332,-0.91358 c -0.5936,-0.23951 -1.56493,-0.23951 -2.15852,0 -0.59359,0.23952 -0.10793,0.4355 1.07926,0.4355 1.18718,0 1.67285,-0.19598 1.07926,-0.4355 z m 27.64543,-0.85793 c -0.58455,-0.2365 -1.75015,-0.2509 -2.59022,-0.032 -0.84007,0.21891 -0.36179,0.41241 1.06283,0.43001 1.42462,0.0176 2.11194,-0.16151 1.52739,-0.39802 z m -40.24018,-14.91397 c 11.23435,-5.25719 19.97092,-13.77751 30.91651,-30.15123 5.6925,-8.51554 6.33203,-9.16347 10.29705,-10.43222 2.67313,-0.85536 4.69628,-2.14643 5.50229,-3.51128 l 1.2747,-2.15851 -1.62012,1.94193 c -2.03196,2.43558 -6.16582,3.64564 -12.83238,3.75627 -2.85237,0.0473 -6.15747,0.43042 -7.34465,0.8513 -1.60891,0.57039 -1.10616,0.66149 1.97443,0.3578 5.8333,-0.57505 5.97568,0.82341 0.93416,9.17511 -5.69241,9.42995 -15.29783,19.56619 -23.90872,25.23002 -8.049,5.29424 -11.3638,6.60662 -16.68689,6.60662 -2.23608,0 -3.75649,0.39835 -3.75649,0.9842 0,1.7593 9.26989,0.14847 15.25011,-2.65001 z"
     id="path1051"
     transform="scale(0.98659375)" />
  <path
     style="opacity:1;fill:#0065cc;fill-opacity:1;stroke:#0065cc;stroke-width:0.870314"
     d="m 286.27512,509.46928 c -2.95369,-3.14406 -4.37177,-11.23016 -4.93152,-28.12021 -1.17716,-35.5201 7.91018,-65.28814 28.07058,-91.95278 19.00628,-25.13819 41.26876,-37.04012 77.82359,-41.60594 l 5.61215,-0.70097 0.22939,-25.00568 0.22939,-25.00567 2.30651,-2.40748 c 1.59772,-1.66767 3.16905,-2.40748 5.11336,-2.40748 3.21614,0 2.57942,-0.65837 54.71831,56.57824 39.60074,43.47259 36.26307,39.43043 36.26307,43.91709 0,4.28949 1.29185,2.62705 -22.87019,29.43108 -40.27728,44.68142 -63.80054,70.05043 -65.91712,71.08933 -1.69642,0.83267 -2.93848,0.90078 -4.63863,0.25439 -4.67406,-1.77708 -4.93385,-3.07671 -5.11524,-25.59008 -0.0917,-11.38423 -0.33703,-22.98357 -0.54513,-25.77631 l -0.37836,-5.07771 -7.90005,0.4414 c -20.43121,1.14156 -39.51059,10.19283 -55.88312,26.511 -9.16647,9.13604 -16.07381,18.38936 -25.02638,33.52627 -3.8051,6.43364 -7.58419,12.20335 -8.39796,12.82156 -2.43852,1.85254 -6.56496,1.41928 -8.76265,-0.92005 z m 13.37381,-36.53842 c 2.27556,-3.05667 2.28978,-3.12867 0.25428,-1.28721 -1.18586,1.07281 -2.39784,1.70882 -2.6933,1.41336 -0.29546,-0.29545 -0.47535,0.2838 -0.39976,1.28722 0.0756,1.00343 0.2029,1.8244 0.28291,1.8244 0.08,0 1.23016,-1.45699 2.55587,-3.23777 z m 3.94855,-5.18044 c 1.07397,-1.36941 1.04343,-1.39995 -0.32598,-0.32599 -0.83103,0.65175 -1.51096,1.33168 -1.51096,1.51097 0,0.71061 0.70902,0.25324 1.83694,-1.18498 z m -6.42757,-2.96796 c -0.27563,-0.68876 -0.48022,-0.48418 -0.52165,0.52165 -0.0375,0.91016 0.16658,1.42012 0.45348,1.13322 0.28691,-0.28691 0.31758,-1.0316 0.0682,-1.65487 z m 9.33936,-0.70152 c 0.85951,-0.94974 1.36848,-1.72681 1.13105,-1.72681 -0.23744,0 -1.13494,0.77707 -1.99445,1.72681 -0.85951,0.94975 -1.36848,1.72682 -1.13104,1.72682 0.23743,0 1.13494,-0.77707 1.99444,-1.72682 z m 3.88533,-4.74873 c 1.1153,-1.18718 1.83356,-2.15852 1.59612,-2.15852 -0.23744,0 -1.34422,0.97134 -2.45952,2.15852 -1.1153,1.18718 -1.83356,2.15852 -1.59612,2.15852 0.23744,0 1.34422,-0.97134 2.45952,-2.15852 z M 418.3204,453.972 c 0,-0.64831 -0.77519,0.0371 -4.35311,3.84925 l -3.84925,4.10118 4.10118,-3.84925 c 2.25565,-2.11708 4.10118,-3.96261 4.10118,-4.10118 z m -9.73514,-1.31573 c -0.19216,-1.55184 -0.35334,-0.49033 -0.35819,2.35891 -0.005,2.84924 0.15238,4.11893 0.34939,2.82153 0.197,-1.2974 0.20096,-3.62859 0.009,-5.18044 z m 14.48388,-4.11664 c 1.8548,-1.8995 3.17811,-3.45363 2.94068,-3.45363 -0.23744,0 -1.94928,1.55413 -3.80409,3.45363 -1.8548,1.89949 -3.17811,3.45362 -2.94067,3.45362 0.23743,0 1.94928,-1.55413 3.80408,-3.45362 z m 8.20236,-9.06577 c 1.61093,-1.66206 2.73469,-3.02192 2.49726,-3.02192 -0.23744,0 -1.74974,1.35986 -3.36067,3.02192 -1.61092,1.66206 -2.73469,3.02192 -2.49725,3.02192 0.23743,0 1.74973,-1.35986 3.36066,-3.02192 z m -123.71657,-1.8409 c 6.96254,-5.57124 13.11496,-11.51989 14.95652,-14.46115 2.02692,-3.23731 0.96396,-5.70208 -3.55422,-8.24143 -1.84097,-1.03469 -3.66544,-2.44988 -4.05438,-3.14488 -0.51444,-0.91925 -1.72013,0.63748 -4.42396,5.71202 -2.04423,3.83661 -3.52786,7.16458 -3.29696,7.39549 0.23091,0.2309 1.61061,-2.1248 3.066,-5.2349 2.98128,-6.37086 4.14886,-6.85564 8.86891,-3.68241 4.76218,3.20157 4.37441,5.15972 -2.38702,12.05399 -3.24693,3.31073 -8.21532,7.72572 -11.04085,9.8111 -2.82554,2.08537 -4.68619,3.79159 -4.13478,3.79159 0.55141,0 3.25174,-1.79974 6.00074,-3.99942 z m 132.35063,-7.65657 c 1.61093,-1.66206 2.7347,-3.02192 2.49726,-3.02192 -0.23744,0 -1.74974,1.35986 -3.36066,3.02192 -1.61093,1.66206 -2.73469,3.02192 -2.49726,3.02192 0.23744,0 1.74974,-1.35986 3.36066,-3.02192 z m 7.33896,-8.20236 c 1.8548,-1.89949 3.17811,-3.45363 2.94068,-3.45363 -0.23744,0 -1.94928,1.55414 -3.80409,3.45363 -1.8548,1.89949 -3.17811,3.45363 -2.94067,3.45363 0.23743,0 1.94928,-1.55414 3.80408,-3.45363 z m 7.77066,-8.63406 c 1.8548,-1.8995 3.17811,-3.45363 2.94067,-3.45363 -0.23743,0 -1.94928,1.55413 -3.80408,3.45363 -1.8548,1.89949 -3.17811,3.45362 -2.94068,3.45362 0.23744,0 1.94928,-1.55413 3.80409,-3.45362 z M 350.1113,407.95953 c 1.01298,-0.65464 0.78896,-0.83985 -1.0283,-0.85019 -1.27788,-0.007 -2.56354,0.37531 -2.85703,0.85019 -0.68137,1.10248 2.17936,1.10248 3.88533,0 z m 122.57758,-15.16282 c 0.0253,-0.88718 -29.03058,-33.18794 -29.85392,-33.18794 -0.22458,0 4.60909,5.60559 10.7415,12.45688 13.69765,15.30336 17.41174,19.80536 17.41174,21.10547 0,0.55372 -2.94517,4.39904 -6.54481,8.54514 l -6.54481,7.53838 7.38208,-7.77066 c 4.06015,-4.27386 7.39385,-8.18313 7.40822,-8.68727 z m -140.11851,9.53134 c -4.65497,-2.62244 -8.83679,-4.53742 -9.29293,-4.25551 -0.76781,0.47454 14.98055,8.82722 16.8989,8.96292 0.47169,0.0333 -2.951,-2.08497 -7.60597,-4.70741 z m 29.93406,1.58347 c 8.15557,-4.20936 19.75009,-15.81426 27.70704,-27.73182 3.26805,-4.89476 6.74209,-9.46002 7.72007,-10.14503 1.65372,-1.15831 1.48544,-1.24546 -2.40501,-1.24546 -3.61935,0 -4.03838,0.17445 -3.10897,1.29433 3.81504,4.59682 -15.90265,28.35745 -30.73987,37.04282 -8.15306,4.77261 -7.71145,5.19201 0.82674,0.78516 z m -14.43097,-26.84911 c 0.88337,-0.61028 -0.39902,-0.0817 -2.84977,1.17458 -2.45074,1.2563 -5.75327,3.64424 -7.33895,5.30654 -2.56631,2.6903 -2.25322,2.56126 2.84976,-1.17458 3.15305,-2.30832 6.45558,-4.69626 7.33896,-5.30654 z m 21.48733,-8.65283 c -0.26584,-0.26583 -0.96252,-5.5e-4 -1.5482,0.58952 -0.84636,0.85272 -0.74719,0.95189 0.48333,0.48333 0.85151,-0.32423 1.3307,-0.80702 1.06487,-1.07285 z m 3.45362,-0.86341 c -0.26583,-0.26583 -0.96251,-5.4e-4 -1.5482,0.58952 -0.84636,0.85272 -0.74719,0.95189 0.48334,0.48334 0.85151,-0.32424 1.3307,-0.80702 1.06486,-1.07286 z m 67.75456,-10.78995 c 0,-0.14428 -1.457,-1.60128 -3.23777,-3.23778 l -3.23778,-2.97544 2.97545,3.23778 c 2.76947,3.01365 3.5001,3.63475 3.5001,2.97544 z m -31.13239,-28.49689 c 0.0274,-0.85905 -0.33877,-1.32179 -0.81365,-1.0283 -0.47487,0.29349 -0.81872,2.55048 -0.76411,5.01554 l 0.0993,4.48193 0.71436,-3.45363 c 0.39289,-1.89949 0.73674,-4.15649 0.76411,-5.01554 z"
     id="path1053"
     transform="scale(0.98659375)" />
  <path
     style="opacity:1;fill:#0065cc;fill-opacity:1;stroke:#0065cc;stroke-width:0.870314"
     d="m 286.26859,509.46234 c -3.01857,-3.21313 -4.40209,-10.69621 -4.95832,-26.81816 -0.72678,-21.06562 1.2746,-36.20107 7.19269,-54.3946 7.82969,-24.0702 27.2368,-50.81151 45.87667,-63.21405 12.79513,-8.51358 30.61343,-14.63143 48.96127,-16.81067 l 9.07731,-1.07814 0.0162,-16.43339 c 0.009,-9.03837 0.24149,-20.51299 0.51684,-25.49916 0.4666,-8.44919 0.65634,-9.1976 2.78988,-11.00415 4.22058,-3.57372 6.75637,-2.7177 14.05448,4.74445 9.35025,9.5604 73.98847,80.46001 79.56315,87.2703 1.7658,2.15716 2.35119,3.81569 2.35119,6.66135 0,4.47261 2.6339,1.18419 -29.35503,36.64974 -40.64788,45.06558 -56.97688,62.56115 -59.55901,63.81401 -3.24255,1.5733 -7.26282,0.0526 -8.52563,-3.22495 -0.48746,-1.26516 -1.15112,-13.7197 -1.47479,-27.67673 l -0.58849,-25.37643 -7.44921,0.54688 c -22.20803,1.6304 -40.31251,10.5572 -57.70375,28.45207 -9.50396,9.77918 -14.73028,16.82992 -23.69209,31.96259 -3.32516,5.61476 -6.79416,10.95709 -7.7089,11.87183 -2.38932,2.38932 -6.92487,2.1753 -9.38446,-0.44279 z m 25.09955,-75.38477 c 1.07397,-1.36941 1.04343,-1.39995 -0.32598,-0.32599 -0.83103,0.65175 -1.51096,1.33168 -1.51096,1.51097 0,0.71061 0.70901,0.25324 1.83694,-1.18498 z m 7.28314,-6.47555 2.5359,-2.80607 -2.80607,2.53591 c -1.54334,1.39474 -2.80607,2.65747 -2.80607,2.80607 0,0.66703 0.71242,0.0798 3.07624,-2.53591 z m -2.94752,-14.6787 c -0.65345,-0.65344 -1.28335,-0.7009 -1.84525,-0.139 -0.5619,0.5619 -0.22322,0.90058 0.99212,0.99212 1.38977,0.10469 1.60036,-0.10589 0.85313,-0.85312 z m 17.13941,-9.68215 c 0,-0.22073 -0.8742,-0.82496 -1.94266,-1.34274 -1.8655,-0.90402 -1.8761,-0.88808 -0.26668,0.40132 1.76157,1.41132 2.20934,1.60211 2.20934,0.94142 z m 38.67617,-6.02856 2.33563,-2.55817 -3.04233,2.55136 c -1.67328,1.40325 -4.00448,3.24823 -5.18044,4.09995 -2.05895,1.49125 -2.03279,1.4915 0.7067,0.007 1.56465,-0.84796 3.89585,-2.69294 5.18044,-4.09994 z m -43.4249,2.97626 c -0.29349,-0.47487 -0.99636,-0.85746 -1.56192,-0.85019 -0.61787,0.008 -0.51138,0.34729 0.26681,0.85019 1.65871,1.07195 1.9576,1.07195 1.29511,0 z m 141.63973,-11.02282 c -3.24765,-3.12026 -3.28126,-3.13149 -1.05048,-0.35107 1.26748,1.57977 2.30451,3.50301 2.30451,4.27387 0,1.10075 0.22544,1.17609 1.05048,0.35106 0.82502,-0.82503 0.33045,-1.74225 -2.30451,-4.27386 z m -73.55704,-21.55036 2.46381,-2.82648 h -2.99164 c -2.68233,0 -2.95115,0.2117 -2.60018,2.04771 0.21529,1.12624 -0.23587,3.3603 -1.00259,4.96459 -1.3637,2.85339 -1.36073,2.87034 0.13638,0.77876 0.84172,-1.17596 2.63913,-3.41002 3.99422,-4.96458 z"
     id="path1055"
     transform="scale(0.98659375)" />
  <path
     style="opacity:1;fill:#0065cc;fill-opacity:1;stroke:#0065cc;stroke-width:0.870314"
     d="m 285.93742,508.99876 c -1.18917,-1.41324 -2.38784,-3.64731 -2.66371,-4.96459 -2.55146,-12.18303 -2.97504,-35.45082 -0.91435,-50.22535 4.47271,-32.06797 20.13728,-61.72952 43.50795,-82.38419 13.39561,-11.83884 33.04148,-20.00541 55.36419,-23.01427 4.01576,-0.54128 8.15371,-1.15898 9.19545,-1.37267 1.89005,-0.3877 1.89461,-0.44166 2.15851,-25.49899 l 0.26446,-25.11048 2.42251,-2.08257 c 1.48879,-1.27989 3.5074,-2.08258 5.23723,-2.08258 2.41499,0 3.91721,1.13421 10.57789,7.98651 14.05995,14.46445 75.47495,81.95626 78.69401,86.48052 2.43891,3.4278 2.76003,8.17559 0.75946,11.22886 -2.29793,3.50709 -68.51134,76.61953 -82.4637,91.05591 -5.04892,5.22407 -5.48543,5.48086 -8.48841,4.99354 -1.74117,-0.28255 -3.75827,-1.10621 -4.4824,-1.83036 -1.63672,-1.6367 -2.53023,-14.69935 -2.62282,-38.34425 l -0.0655,-16.72269 -7.5548,0.62316 c -16.77157,1.38341 -31.65475,7.05268 -45.15682,17.20105 -13.28331,9.98395 -23.6564,22.37177 -36.22733,43.26362 -3.85113,6.40027 -7.73043,12.02667 -8.62066,12.50311 -3.1389,1.67989 -6.6363,1.01215 -8.92118,-1.70329 z m 109.49994,-141.26075 2.36071,-3.09504 -2.01041,0.28897 c -1.48119,0.2129 -2.16057,1.02762 -2.58087,3.09504 -0.31376,1.54334 -0.47141,2.80607 -0.3503,2.80607 0.1211,0 1.28249,-1.39277 2.58087,-3.09504 z"
     id="path1057"
     transform="scale(0.98659375)" />
  <path
     style="opacity:1;fill:#0065cc;fill-opacity:1;stroke:#0065cc;stroke-width:0.870314"
     d="m 286.87594,510.37309 c -3.93856,-2.99046 -5.83715,-14.11579 -5.83715,-34.20446 0,-19.89994 1.97461,-32.69012 7.51915,-48.7038 5.63853,-16.28518 14.52892,-31.53963 26.58019,-45.60728 15.13093,-17.66257 35.96243,-28.70563 62.17047,-32.9574 4.74874,-0.77039 9.85399,-1.59969 11.345,-1.84287 1.86352,-0.30395 2.87193,-1.04276 3.22599,-2.36355 0.28327,-1.05676 0.52035,-12.2801 0.52684,-24.94076 l 0.0118,-23.01937 2.65647,-2.23526 c 1.66935,-1.40467 3.70266,-2.23527 5.47191,-2.23527 3.65684,0 6.52982,2.89361 48.86324,49.21416 44.35553,48.53311 44.48609,48.70338 41.96238,54.72745 -1.32238,3.15649 -20.54381,24.8369 -64.77068,73.0567 -21.67748,23.6346 -23.14702,25.03879 -26.2041,25.03879 -1.43411,0 -3.47893,-0.70566 -4.54404,-1.56814 -2.57051,-2.08146 -3.30928,-9.8988 -3.38085,-35.77419 l -0.0543,-19.64249 -2.37437,0.0171 c -9.2171,0.0664 -24.50799,3.6181 -33.65492,7.81723 -19.50755,8.95545 -35.29139,24.52338 -51.1452,50.4456 -9.44835,15.44878 -9.90209,15.97797 -13.67215,15.94556 -1.7566,-0.0151 -3.86964,-0.54059 -4.69563,-1.16775 z m 109.8401,-144.90923 c 0.0105,-0.34125 -0.56359,-0.39682 -1.27591,-0.12348 -0.71231,0.27334 -1.2951,0.81217 -1.2951,1.1974 0,0.38523 -0.23044,1.41212 -0.51208,2.28199 -0.36572,1.12953 -8.7e-4,0.96462 1.27591,-0.57694 0.9834,-1.18718 1.79662,-2.43772 1.80718,-2.77897 z"
     id="path1059"
     transform="scale(0.98659375)" />
  <path
     style="opacity:1;fill:#0065cc;fill-opacity:1;stroke:#0065cc;stroke-width:0.870314"
     d="m 288.16655,511.10667 c -5.67288,-2.38527 -7.5397,-13.1032 -6.8818,-39.51026 0.35085,-14.08212 0.87789,-20.25342 2.28333,-26.73601 7.14752,-32.96806 26.615,-63.86103 50.41633,-80.00574 10.71272,-7.26656 27.98992,-13.63092 43.75589,-16.11826 13.59584,-2.14497 13.29714,-2.00751 13.96636,-6.42717 0.32096,-2.11966 0.61236,-13.2413 0.64756,-24.71477 l 0.064,-20.86086 2.65647,-2.23526 c 3.51681,-2.95921 7.31247,-2.90242 10.84981,0.16232 3.46836,3.00499 12.66761,12.87356 44.87065,48.13539 43.41966,47.54384 43.63982,47.83478 40.61875,53.6769 -1.65546,3.20131 -13.33753,16.50944 -46.93642,53.46965 -37.07093,40.7796 -40.61924,44.35867 -43.9771,44.35806 -7.04313,-8.6e-4 -8.07005,-4.41321 -8.07716,-34.70164 -0.003,-11.72509 -0.33521,-21.52243 -0.73879,-21.77186 -1.40458,-0.86808 -16.80564,1.34959 -24.14706,3.47705 -24.67323,7.15003 -44.11886,24.68992 -64.49736,58.1764 -7.55625,12.41662 -9.45794,13.90311 -14.87345,11.62606 z M 395.87184,366.46506 c 0,-0.44684 -0.38853,-0.81245 -0.86341,-0.81245 -0.47487,0 -0.8634,0.60573 -0.8634,1.34607 0,0.74033 0.38853,1.10594 0.8634,0.81245 0.47488,-0.29349 0.86341,-0.89922 0.86341,-1.34607 z"
     id="path1061"
     transform="scale(0.98659375)" />
  <path
     style="opacity:1;fill:#0065cc;fill-opacity:1;stroke:#0065cc;stroke-width:0.870314"
     d=""
     id="path1063"
     transform="scale(0.98659375)" />
  <path
     style="opacity:1;fill:#0065cc;fill-opacity:1;stroke:#0065cc;stroke-width:0.870314"
     d="m 287.33226,510.73489 c -2.13457,-1.3015 -3.12763,-2.84002 -4.31703,-6.68817 -2.26887,-7.34064 -2.26236,-46.36869 0.01,-57.53265 5.0789,-24.95676 17.49752,-49.35857 34.19168,-67.18449 15.95185,-17.03329 34.09654,-26.17171 61.38721,-30.91717 5.93592,-1.03217 11.29747,-2.368 11.91455,-2.96851 0.84161,-0.819 1.25299,-7.15284 1.64633,-25.34723 l 0.52435,-24.25539 2.49973,-1.84813 c 3.07559,-2.27388 6.54147,-2.45719 9.52292,-0.50366 2.96029,1.93966 56.84241,60.31806 79.87325,86.53843 9.19484,10.46823 9.86601,13.31719 4.6805,19.86756 -7.05066,8.90643 -64.72506,72.62166 -77.83411,85.98648 -6.94771,7.08326 -8.68402,8.41821 -10.94919,8.41821 -4.05003,0 -6.44884,-2.44286 -7.26157,-7.39493 -0.38463,-2.34358 -0.72248,-12.46315 -0.75079,-22.48794 -0.0283,-10.02478 -0.29855,-20.0295 -0.60052,-22.23271 l -0.54907,-4.00584 -4.41552,0.0113 c -2.42855,0.006 -7.91233,0.73685 -12.18619,1.62359 -28.41172,5.89483 -48.52935,22.64957 -71.34456,59.41855 -5.96241,9.60902 -9.19598,13.20244 -11.87474,13.19624 -0.76699,-0.002 -2.64206,-0.76388 -4.16682,-1.69358 z M 395.87184,366.51602 c 0,-0.47487 -0.17134,-0.86341 -0.38075,-0.86341 -0.20941,0 -0.62087,0.38854 -0.91436,0.86341 -0.29349,0.47487 -0.12216,0.86341 0.38074,0.86341 0.5029,0 0.91437,-0.38854 0.91437,-0.86341 z"
     id="path1065"
     transform="scale(0.98659375)" />
  <path
     style="opacity:1;fill:#0065cc;fill-opacity:1;stroke:#0065cc;stroke-width:0.870314"
     d="m 287.9933,511.33778 c -5.80267,-2.93662 -7.38607,-12.59829 -6.68135,-40.76853 0.52959,-21.16909 1.08141,-24.93685 5.82837,-39.7955 6.97433,-21.83065 19.36037,-41.72734 35.32551,-56.7462 8.66147,-8.14809 18.38652,-14.2406 29.78931,-18.66231 7.93878,-3.07845 12.86623,-4.3665 31.67634,-8.28027 l 6.62289,-1.378 0.4695,-3.19413 c 0.25822,-1.75677 0.72722,-13.01346 1.04223,-25.01488 l 0.57272,-21.82077 2.59944,-1.85096 c 3.11962,-2.22136 6.61376,-2.36921 9.6091,-0.40658 3.83271,2.51129 77.43522,82.88599 84.44367,92.21337 3.65479,4.86407 4.20999,8.48145 1.84013,11.98937 -4.3201,6.39469 -71.56793,80.71205 -83.82409,92.63621 -3.80148,3.6985 -4.6408,4.13019 -7.55431,3.88533 -2.39814,-0.20155 -3.76044,-0.92475 -5.07677,-2.69507 -1.67566,-2.25361 -1.83936,-3.97149 -2.38602,-25.03879 -0.32281,-12.44055 -0.62028,-23.88191 -0.66104,-25.42525 -0.0701,-2.654 -0.24958,-2.80601 -3.3119,-2.80489 -4.79904,0.002 -17.07756,2.31601 -23.5034,4.42994 -12.43203,4.08979 -22.81736,10.57621 -33.57783,20.97187 -9.01861,8.71284 -15.75129,17.27884 -26.26699,33.41948 -10.02842,15.39272 -11.84953,16.93072 -16.97551,14.33656 z"
     id="path1067"
     transform="scale(0.98659375)" />
</svg>
