<?xml version="1.0" encoding="UTF-8" standalone="no"?>
<svg
   xmlns:osb="http://www.openswatchbook.org/uri/2009/osb"
   xmlns:dc="http://purl.org/dc/elements/1.1/"
   xmlns:cc="http://creativecommons.org/ns#"
   xmlns:rdf="http://www.w3.org/1999/02/22-rdf-syntax-ns#"
   xmlns:svg="http://www.w3.org/2000/svg"
   xmlns="http://www.w3.org/2000/svg"
   id="Capa_1"
   enable-background="new 0 0 505.136 505.136"
   height="512"
   viewBox="0 0 505.136 505.136"
   width="512"
   version="1.1">
  <metadata
     id="metadata1030">
    <rdf:RDF>
      <cc:Work
         rdf:about="">
        <dc:format>image/svg+xml</dc:format>
        <dc:type
           rdf:resource="http://purl.org/dc/dcmitype/StillImage" />
        <dc:title></dc:title>
      </cc:Work>
    </rdf:RDF>
  </metadata>
  <defs
     id="defs1028">
    <linearGradient
       id="linearGradient1639"
       osb:paint="solid">
      <stop
         style="stop-color:#0065cc;stop-opacity:1;"
         offset="0"
         id="stop1637" />
    </linearGradient>
  </defs>
  <g
     id="g3380"
     transform="translate(-18.406617,16.725734)">
    <g
       id="text860"
       style="font-style:normal;font-weight:normal;font-size:39.4637px;line-height:1.25;font-family:sans-serif;fill:#000000;fill-opacity:1;stroke:none;stroke-width:0.986594" />
  </g>
  <path
     style="fill:#000000;stroke-width:8.89419"
     d="m 147.10161,430.46932 c -10.07203,-10.07202 -22.49708,-18.31278 -27.61127,-18.31278 -16.53771,0 -52.960829,-43.10438 -52.960829,-62.67572 0,-10.45733 -8.004778,-29.18973 -17.788377,-41.62758 -22.829063,-29.02247 -22.522089,-51.05842 1.039538,-74.62003 15.057956,-15.05796 26.188631,-17.92606 55.588698,-14.32388 20.2184,2.47722 43.76492,7.3756 52.32559,10.88529 8.61223,3.53087 15.56481,2.46531 15.56481,-2.38544 0,-16.68975 -52.91158,-31.19321 -93.502049,-25.6297 -36.841228,5.04968 -40.06081,3.86261 -45.2142,-16.67016 C 24.745295,146.0702 38.582608,103.44423 69.055493,78.794657 84.787512,66.069004 108.64814,45.896488 122.07913,33.966801 148.37578,10.609616 179.87566,-0.43211916 205.90952,4.5815559 221.14291,7.5152277 222.1778,21.56899 222.1778,225.50037 c 0,217.78583 0,217.78583 -28.38169,220.53377 -19.46297,1.88445 -34.13635,-3.0067 -46.6945,-15.56482 z m 26.15816,-94.31767 c 0,-24.96093 -35.79543,-66.30215 -57.40795,-66.30215 -21.089261,0 -16.337345,13.75219 8.6926,25.15658 14.13226,6.4391 24.42086,20.13701 27.79433,37.00441 6.52026,32.60131 20.92102,35.45184 20.92102,4.14116 z m -1.97902,-204.66642 c 10.87206,-7.61507 19.7674,-19.62224 19.7674,-26.68258 0,-18.224643 -11.60204,-15.89116 -24.61847,4.95145 -6.10997,9.7836 -19.07988,17.78837 -28.82202,17.78837 -9.74218,0 -17.71302,4.00239 -17.71302,8.89418 0,13.45898 29.10564,10.65443 51.38611,-4.95142 z m 77.13157,304.94631 c -2.38528,-6.21595 -3.26028,-105.22233 -1.94442,-220.01416 2.2248,-194.08472 3.53267,-208.9316648 18.66081,-211.8406335 25.89774,-4.97983129 57.4571,5.9857875 83.83038,29.1277235 13.431,11.785387 38.42832,33.389531 55.54962,48.009205 28.79167,24.584885 31.12965,30.369015 31.12965,77.014715 0,58.86008 -18.68509,80.81612 -76.66663,90.08774 -18.9809,3.03517 -34.51073,9.00936 -34.51073,13.27594 0,12.39528 46.58548,8.86434 74.39372,-5.63865 14.01164,-7.30758 29.02057,-13.28649 33.35324,-13.28649 14.49119,0 8.08571,41.80736 -9.91088,64.68631 -9.7836,12.43785 -17.78837,30.98829 -17.78837,41.22327 0,21.76737 -29.50871,54.18584 -49.32232,54.18584 -19.82076,0 -57.40796,-40.49889 -57.40796,-61.85504 0,-10.00598 -4.00239,-18.19268 -8.89418,-18.19268 -23.28484,0 5.53768,73.38031 33.02424,84.07779 14.53166,5.65554 14.0943,7.65353 -5.10346,23.31326 -23.86375,19.46582 -61.91477,22.70711 -68.39271,5.82586 z M 386.72033,173.85273 c 0,-3.88022 -13.00776,-10.88437 -28.90612,-15.56486 -16.01485,-4.71474 -32.82158,-17.43463 -37.68581,-28.52185 -9.12247,-20.79313 -22.34997,-27.02695 -22.34997,-10.53302 0,18.56606 19.25365,45.01146 38.38174,52.71835 24.86975,10.02026 50.56016,10.98638 50.56016,1.90138 z"
     id="path939" />
  <path
     style="opacity:1;fill:#0065cc;fill-opacity:1;stroke:#0065cc;stroke-width:0.870314"
     d=""
     id="path1045"
     transform="scale(0.98659375)" />
  <path
     style="opacity:1;fill:#0065cc;fill-opacity:1;stroke:#0065cc;stroke-width:0.870314"
     d=""
     id="path1063"
     transform="scale(0.98659375)" />
  <g
     id="g1135"
     transform="matrix(8.2216146,0,0,8.2216146,302.68332,321.85128)">
    <path
       d="M 0,0 H 24 V 24 H 0 Z"
       fill="none"
       id="path1121" />
    <g
       id="g1211"
       transform="matrix(0.12,0,0,0.12,-9.5986428,-11.909502)">
      <path
         d="M 24,0 H 0 v 24 h 24 z m 0,0 H 0 V 24 H 24 Z M 0,24 H 24 V 0 H 0 Z"
         fill="none"
         id="path1197" />
      <path
         d="M 226.67382,129.39192 162.1891,65.021123 97.704384,129.39192 c -17.773172,17.77317 -26.659764,41.47073 -26.659764,64.25686 0,22.78612 8.886592,46.82548 26.659764,64.59865 17.773176,17.77317 41.128946,26.77369 64.484716,26.77369 23.35577,0 46.71155,-9.00052 64.48472,-26.77369 17.77318,-17.77317 26.65976,-41.81253 26.65976,-64.59865 0,-22.78613 -8.88658,-46.48369 -26.65976,-64.25686 z M 93.830745,197.75028 c 0.113927,-22.78612 7.063695,-37.2553 20.051775,-50.12947 l 48.30658,-49.331941 48.30657,49.901601 c 12.9881,12.76023 19.93787,26.77369 20.05179,49.55981 z"
         id="path1199"
         style="fill:#d32f2f;fill-opacity:1;stroke-width:11.393" />
      <path
         style="opacity:1;fill:#ff0000;fill-opacity:1;stroke:none;stroke-width:0.920917"
         d="m 364.65713,424.67013 c 16.95885,-0.13922 44.70969,-0.13922 61.66854,0 16.95885,0.13922 3.08343,0.25312 -30.83427,0.25312 -33.9177,0 -47.79312,-0.1139 -30.83427,-0.25312 z"
         id="path1295"
         transform="translate(-226.80762,-226.97888)" />
      <path
         style="opacity:1;fill:#d32f2f;fill-opacity:1;stroke:none;stroke-width:0.920917"
         d=""
         id="path1309"
         transform="translate(-226.80762,-226.97888)" />
    </g>
    <path
       style="opacity:1;fill:#d32f2f;fill-opacity:1;stroke:none;stroke-width:0.920917"
       d="m 335.92415,423.34498 c 1.59223,-1.59223 1.34318,-4.79307 -0.50248,-6.4579 -0.87935,-0.79319 -4.20133,-2.56945 -7.38217,-3.94724 -5.77918,-2.50326 -5.78293,-2.50737 -5.18928,-5.6718 0.32674,-1.7417 1.64121,-5.99174 2.92104,-9.44452 l 2.32696,-6.2778 3.31912,2.76965 c 5.85703,4.88741 13.83431,10.13164 19.03042,12.51049 10.57825,4.84289 23.26632,0.95842 36.59037,-11.20219 3.56791,-3.25636 8.42504,-8.48541 10.79364,-11.62011 5.50707,-7.28828 11.12641,-18.83876 11.81874,-24.29324 0.29644,-2.33553 0.75656,-5.64365 1.02247,-7.35138 l 0.48348,-3.10497 5.96519,5.84579 c 13.85934,13.58193 28.6355,30.25016 31.66264,35.71699 4.28846,7.74471 6.99424,16.97305 7.64888,26.0873 l 0.54136,7.53726 h -61.07335 c -47.5015,0 -60.82973,-0.24363 -59.97703,-1.09633 z"
       id="path1315"
       transform="matrix(0.12,0,0,0.12,-36.815557,-39.146968)" />
    <path
       style="opacity:1;fill:#d32f2f;fill-opacity:1;stroke:none;stroke-width:0.920917"
       d="m 358.31602,423.75708 -21.18723,-0.26279 -0.28255,-3.40932 c -0.2665,-3.21557 -0.64601,-3.59603 -6.67782,-6.6946 -6.09231,-3.12965 -6.38969,-3.4326 -6.27778,-6.39526 0.0646,-1.71049 1.09242,-5.64086 2.28402,-8.73417 l 2.16655,-5.62418 7.24214,5.41813 c 3.98318,2.97997 9.82051,6.68745 12.97183,8.23884 5.14346,2.53212 6.4158,2.78607 12.43591,2.48207 5.26515,-0.26588 7.97471,-0.96789 12.6092,-3.26687 17.53611,-8.69893 34.068,-30.37465 36.83995,-48.30257 l 1.0652,-6.88929 11.45277,11.7095 c 26.23513,26.82321 31.04439,35.09388 33.23856,57.1615 l 0.52233,5.25324 -38.60792,-0.21072 c -21.23436,-0.1159 -48.14218,-0.32898 -59.79516,-0.47351 z"
       id="path1317"
       transform="matrix(0.12,0,0,0.12,-36.815557,-39.146968)" />
    <path
       style="opacity:1;fill:#d32f2f;fill-opacity:1;stroke:none;stroke-width:0.920917"
       d="m 352.09502,406.42201 c -5.01853,-2.03272 -12.76238,-7.01857 -18.48838,-11.90367 l -4.78425,-4.08165 3.62232,-5.15269 c 1.99227,-2.83397 15.54514,-17.28083 30.11749,-32.10412 l 26.49517,-26.95143 10.49114,10.73882 10.49114,10.73882 -0.54754,6.16293 c -0.30115,3.38961 -1.50254,8.73797 -2.66976,11.88525 -6.01529,16.2195 -23.7994,35.01925 -38.52928,40.72965 -4.88067,1.89211 -11.43568,1.86706 -16.19805,-0.0619 z"
       id="path1319"
       transform="matrix(0.12,0,0,0.12,-36.815557,-39.146968)" />
    <path
       style="opacity:1;fill:#d32f2f;fill-opacity:1;stroke:none;stroke-width:0.920917"
       d="m 321.48915,418.65513 c 0,-3.1824 0.24947,-6.03566 0.55439,-6.34058 0.78293,-0.78293 10.50869,3.63299 12.62882,5.73402 1.48824,1.47485 1.59811,2.10936 0.70479,4.06999 -0.98731,2.16691 -1.48872,2.32275 -7.47316,2.32275 h -6.41484 z"
       id="path1321"
       transform="matrix(0.12,0,0,0.12,-36.815557,-39.146968)" />
    <path
       style="opacity:1;fill:#d32f2f;fill-opacity:1;stroke:none;stroke-width:0.920917"
       d="m 371.73759,509.9106 c -33.9031,-7.18423 -59.80733,-31.19563 -70.03024,-64.91311 -2.28071,-7.5223 -2.49757,-9.54502 -2.54669,-23.75381 -0.0605,-17.49245 0.86694,-22.46042 6.75298,-36.17456 6.36443,-14.82878 9.80844,-18.94441 47.70964,-57.01346 l 35.47361,-35.63071 34.56757,34.7171 c 19.01215,19.09441 36.44585,37.38941 38.74156,40.65556 12.22355,17.39076 17.9281,36.77991 16.90383,57.4543 -0.63294,12.77537 -3.33776,23.00987 -9.32314,35.27692 -11.39446,23.35293 -31.26071,40.03131 -56.67995,47.5847 -6.97263,2.07194 -10.30554,2.48986 -21.9266,2.74939 -9.25444,0.20669 -15.63231,-0.10253 -19.64257,-0.95232 z m 85.60981,-92.21814 c -0.72721,-10.30467 -2.80295,-17.86433 -7.26323,-26.45212 -3.95998,-7.62449 -6.89911,-10.90585 -43.4562,-48.51622 l -17.71114,-18.22144 -26.17658,26.80272 c -14.39711,14.74149 -27.78028,28.90243 -29.74037,31.46875 -7.41775,9.71197 -12.42434,24.64615 -12.42434,37.0606 v 5.52017 h 68.6563 68.6563 z"
       id="path1323"
       transform="matrix(0.12,0,0,0.12,-36.815557,-39.146968)" />
    <path
       style="opacity:1;fill:#d32f2f;fill-opacity:1;stroke:none;stroke-width:0.920917"
       d="m 371.73759,509.92034 c -33.78042,-7.10284 -60.14691,-31.57249 -69.95554,-64.92285 -2.98394,-10.14568 -4.00106,-27.69096 -2.23889,-38.62062 2.33981,-14.51235 8.53041,-28.66813 17.87031,-40.86328 2.69386,-3.51739 19.93491,-21.40127 38.31344,-39.74195 l 33.41551,-33.34669 34.9909,35.17391 c 37.09485,37.28885 42.05114,43.19424 48.01536,57.20994 5.46943,12.85298 6.90945,20.37607 6.88668,35.97808 -0.0243,16.66894 -1.6824,24.37958 -8.22217,38.23589 -11.63748,24.65719 -30.95479,41.10326 -57.7037,49.12686 -6.78732,2.03592 -10.13907,2.45444 -21.72933,2.71329 -9.19515,0.20536 -15.658,-0.10477 -19.64257,-0.94258 z m 85.60981,-92.22788 c -0.94852,-13.44069 -4.99051,-24.82854 -12.13254,-34.18219 -2.98031,-3.90319 -54.82537,-57.96473 -56.0436,-58.43957 -0.34449,-0.13428 -13.14437,12.65438 -28.44418,28.41924 -19.57269,20.16761 -28.84023,30.39466 -31.26724,34.50444 -4.87372,8.25293 -8.01198,18.76037 -8.63446,28.90967 l -0.5183,8.45087 h 68.79053 68.79053 z"
       id="path1325"
       transform="matrix(0.12,0,0,0.12,-36.815557,-39.146968)" />
    <path
       style="opacity:1;fill:#d32f2f;fill-opacity:1;stroke:none;stroke-width:0.920917"
       d="m 371.73759,509.92458 c -36.88734,-7.72979 -64.83923,-36.16592 -71.90389,-73.14956 -1.93786,-10.14476 -1.19292,-29.30172 1.52766,-39.28515 2.42061,-8.88268 7.58372,-20.12985 12.84152,-27.97361 2.36778,-3.53233 17.89756,-19.87191 39.40579,-41.4606 l 35.49792,-35.63071 35.00882,35.17391 c 37.2544,37.43008 42.0545,43.16004 48.14412,57.47042 5.44531,12.79631 6.661,19.15652 6.73975,35.2608 0.0849,17.36088 -1.48228,24.60789 -8.4954,39.28514 -11.67078,24.42496 -30.7193,40.53295 -57.39439,48.53441 -6.78732,2.03592 -10.13907,2.45444 -21.72933,2.71329 -9.16909,0.20478 -15.6693,-0.10574 -19.64257,-0.93834 z m 85.87916,-89.05733 c 0,-5.90469 -2.09891,-16.61579 -4.51754,-23.05379 -4.16672,-11.09115 -8.21912,-15.85333 -48.33539,-56.80146 l -15.94842,-16.27912 -22.98735,23.58799 c -12.64305,12.97339 -25.53828,26.41334 -28.65606,29.86656 -10.25659,11.36008 -15.39326,23.53205 -16.33872,38.71662 l -0.52619,8.45087 h 68.65484 68.65483 z"
       id="path1327"
       transform="matrix(0.12,0,0,0.12,-36.815557,-39.146968)" />
    <path
       style="opacity:1;fill:#d32f2f;fill-opacity:1;stroke:none;stroke-width:0.920917"
       d="m 371.73759,509.87128 c -31.80273,-6.37884 -57.04119,-28.32715 -68.05307,-59.18151 -4.185,-11.72601 -5.37643,-20.23434 -4.79214,-34.22184 0.74445,-17.82113 5.44373,-32.2321 15.3105,-46.95167 2.36778,-3.53233 17.89756,-19.87191 39.40579,-41.4606 l 35.49792,-35.63071 35.01943,35.17391 c 38.07432,38.24227 43.22679,44.4996 49.02698,59.53998 4.89437,12.69154 5.85361,18.18132 5.87941,33.64804 0.0288,17.25195 -1.65518,24.64397 -9.05349,39.74195 -12.80677,26.13522 -35.99254,43.95554 -64.2898,49.41243 -8.19565,1.58047 -25.90495,1.54396 -33.95153,-0.07 z m 85.56592,-92.05363 c -0.71722,-9.27555 -3.49607,-19.56208 -7.12272,-26.36638 -3.63405,-6.81817 -12.5231,-16.78619 -39.28156,-44.04958 l -22.25989,-22.67994 -26.82935,27.77133 c -14.75615,15.27423 -28.61704,30.41369 -30.80198,33.64324 -6.34539,9.37906 -10.43247,22.84073 -10.43247,34.36155 v 4.85705 h 68.65539 68.65538 z"
       id="path1329"
       transform="matrix(0.12,0,0,0.12,-36.815557,-39.146968)" />
    <path
       style="opacity:1;fill:#d32f2f;fill-opacity:1;stroke:none;stroke-width:0.920917"
       d="m 358.26187,423.75695 -21.24139,-0.26292 v -2.65873 c 0,-3.34941 -1.88789,-5.24067 -8.04521,-8.05959 -2.68247,-1.22807 -5.11913,-2.86327 -5.4148,-3.63377 -0.29567,-0.77049 0.5859,-4.85071 1.95904,-9.06713 l 2.49661,-7.66623 2.44656,1.88447 c 5.9805,4.60651 16.16387,11.26428 19.65082,12.84749 5.41945,2.46063 14.26359,2.31115 20.73256,-0.35042 6.8915,-2.83542 12.4836,-6.8366 19.72791,-14.11544 10.82922,-10.88084 17.87228,-23.55584 19.7304,-35.5077 l 1.05891,-6.81118 9.04701,8.94931 c 14.38236,14.22705 26.11737,28.27403 29.53264,35.35103 3.10135,6.4265 5.31832,15.12303 6.25384,24.53193 l 0.52233,5.25324 -38.60792,-0.21072 c -21.23436,-0.1159 -48.16655,-0.32904 -59.84931,-0.47364 z"
       id="path1331"
       transform="matrix(0.12,0,0,0.12,-36.815557,-39.146968)" />
    <path
       style="opacity:1;fill:#d32f2f;fill-opacity:1;stroke:none;stroke-width:0.920917"
       d="m 358.26187,423.75695 -21.24139,-0.26292 v -2.65873 c 0,-3.36513 -1.90767,-5.26216 -8.00201,-7.95737 -2.66581,-1.17894 -5.10537,-2.81704 -5.42125,-3.64021 -0.31588,-0.82318 0.55267,-4.95729 1.93011,-9.18692 l 2.50443,-7.69025 3.33732,2.56466 c 6.61817,5.08593 17.82199,12.11277 20.96895,13.15136 1.84293,0.60822 5.88868,0.86899 9.48729,0.61151 9.1253,-0.65291 16.23658,-4.45651 26.38134,-14.11057 12.83516,-12.21432 19.94532,-24.38751 22.2363,-38.07041 l 1.05049,-6.27411 12.79771,13.13391 c 24.80632,25.458 29.8124,34.08624 31.85723,54.90756 l 0.60564,6.16685 -38.62539,-0.21072 c -21.24396,-0.1159 -48.18401,-0.32904 -59.86677,-0.47364 z"
       id="path1333"
       transform="matrix(0.12,0,0,0.12,-36.815557,-39.146968)" />
    <path
       style="opacity:1;fill:#d32f2f;fill-opacity:1;stroke:none;stroke-width:0.920917"
       d="m 358.26187,423.75695 -21.24139,-0.26292 v -2.58239 c 0,-3.06331 -1.55054,-4.57265 -8.03699,-7.82342 -2.66166,-1.33392 -5.09165,-3.08273 -5.39998,-3.88625 -0.30834,-0.80351 0.56638,-4.92154 1.94382,-9.15117 l 2.50443,-7.69025 2.89555,2.19075 c 6.9302,5.24333 12.37183,8.84332 17.05647,11.28398 4.31596,2.24857 6.05596,2.61651 12.33371,2.6081 6.45646,-0.009 8.02388,-0.36751 13.43972,-3.07693 3.66247,-1.83225 9.10035,-5.82584 13.50635,-9.9191 12.5651,-11.67322 20.06533,-24.00331 22.79135,-37.4681 l 1.54595,-7.63603 12.744,13.0788 c 24.71901,25.36839 29.67469,33.90035 31.86039,54.85244 l 0.64333,6.16685 -38.67267,-0.21072 c -21.26996,-0.1159 -48.23128,-0.32904 -59.91404,-0.47364 z"
       id="path1335"
       transform="matrix(0.12,0,0,0.12,-36.815557,-39.146968)" />
    <path
       style="opacity:1;fill:#d32f2f;fill-opacity:1;stroke:none;stroke-width:0.920917"
       d="m 354.60744,423.7573 -17.58696,-0.26905 v -2.5795 c 0,-3.0604 -1.55175,-4.57036 -8.03699,-7.82053 -2.66166,-1.33392 -5.09165,-3.08273 -5.39998,-3.88625 -0.30834,-0.80351 0.563,-4.91119 1.93632,-9.12816 l 2.49694,-7.66723 4.27345,3.11984 c 8.07847,5.89771 12.83265,8.86163 18.03324,11.24253 11.98694,5.48781 26.3286,0.13014 41.10908,-15.35727 10.15871,-10.64458 16.24508,-21.61081 18.58095,-33.4786 l 1.50312,-7.63685 12.79776,13.09033 c 14.6763,15.01182 22.01617,23.85583 25.41489,30.62309 2.97325,5.92012 5.73272,16.19158 6.51884,24.26481 l 0.60048,6.16685 -42.3271,-0.20747 c -23.2799,-0.11412 -50.24122,-0.32856 -59.91404,-0.47654 z"
       id="path1337"
       transform="matrix(0.12,0,0,0.12,-36.815557,-39.146968)" />
    <path
       style="opacity:1;fill:#d32f2f;fill-opacity:1;stroke:none;stroke-width:0.920917"
       d="m 350.99893,405.30071 c -4.55883,-2.06967 -13.05338,-7.7791 -17.93489,-12.05455 l -3.49964,-3.06515 2.65562,-3.65443 c 2.84037,-3.90867 34.78726,-37.55406 48.56283,-51.14474 l 8.31677,-8.20515 10.12865,10.03237 10.12864,10.03237 -0.4704,6.00057 c -0.25872,3.30031 -1.2419,8.28582 -2.18484,11.0789 -4.93925,14.63058 -21.09223,32.94332 -35.33841,40.06341 -6.60497,3.3011 -14.34444,3.64937 -20.36433,0.9164 z"
       id="path1339"
       transform="matrix(0.12,0,0,0.12,-36.815557,-39.146968)" />
    <path
       style="opacity:1;fill:#d32f2f;fill-opacity:1;stroke:none;stroke-width:0.920917"
       d="m 350.91191,405.26175 c -4.69446,-2.13059 -16.44822,-10.14016 -19.23785,-13.10958 l -1.98898,-2.11718 2.59528,-3.58142 c 2.78373,-3.84147 34.7918,-37.54505 48.50249,-51.07173 l 8.31677,-8.20515 10.04795,10.01679 c 11.36549,11.33025 11.41154,11.45466 8.62179,23.29527 -3.8701,16.426 -21.6441,37.32741 -38.09063,44.79285 -5.16976,2.34666 -13.57211,2.33778 -18.76682,-0.0199 z"
       id="path1341"
       transform="matrix(0.12,0,0,0.12,-36.815557,-39.146968)" />
    <path
       style="opacity:1;fill:#d32f2f;fill-opacity:1;stroke:none;stroke-width:0.920917"
       d=""
       id="path1343"
       transform="matrix(0.12,0,0,0.12,-36.815557,-39.146968)" />
    <path
       style="opacity:1;fill:#d32f2f;fill-opacity:1;stroke:none;stroke-width:0.920917"
       d="m 350.95301,423.75795 c -13.32303,-0.26568 -13.93253,-0.35936 -13.93253,-2.14132 0,-3.35677 -1.81317,-5.3644 -7.38508,-8.17709 -3.01899,-1.52398 -5.74184,-3.42959 -6.05079,-4.23469 -0.80216,-2.0904 4.17186,-16.92672 5.41688,-16.15726 0.54643,0.33772 4.11596,2.8556 7.93228,5.5953 11.60286,8.32957 15.01289,9.77659 23.02221,9.76927 6.15678,-0.006 7.71625,-0.38774 13.70412,-3.35791 3.98748,-1.97792 9.44302,-5.81062 13.31095,-9.3514 12.42428,-11.37345 19.91653,-23.7169 22.9474,-37.80576 l 1.62848,-7.56992 12.78259,13.07486 c 14.66183,14.99705 22.00189,23.8421 25.39974,30.60762 2.97325,5.92012 5.73272,16.19158 6.51884,24.26481 l 0.60048,6.16685 -45.98153,-0.20276 c -25.28984,-0.11152 -52.25116,-0.32779 -59.91404,-0.4806 z"
       id="path1345"
       transform="matrix(0.12,0,0,0.12,-36.815557,-39.146968)" />
    <path
       style="opacity:1;fill:#d32f2f;fill-opacity:1;stroke:none;stroke-width:0.920917"
       d="m 350.0394,423.75819 c -12.39956,-0.2673 -13.01892,-0.36925 -13.01892,-2.14285 0,-3.35543 -1.81377,-5.36341 -7.38508,-8.1758 -3.01899,-1.52398 -5.74184,-3.42959 -6.05079,-4.23469 -0.80216,-2.0904 4.17186,-16.92672 5.41688,-16.15726 0.54643,0.33772 4.11596,2.8556 7.93228,5.5953 11.46809,8.23282 14.99014,9.7184 22.99106,9.6975 5.80686,-0.0152 7.85845,-0.46706 12.79052,-2.8173 17.09291,-8.14513 33.12801,-28.68312 37.2103,-47.65949 l 1.62128,-7.53643 12.78259,13.07486 c 14.66183,14.99705 22.00189,23.8421 25.39974,30.60762 2.98176,5.93705 5.76485,16.21588 6.56992,24.26481 l 0.61682,6.16685 -46.92884,-0.20123 c -25.81087,-0.11068 -52.78736,-0.32753 -59.94776,-0.48189 z"
       id="path1347"
       transform="matrix(0.12,0,0,0.12,-36.815557,-39.146968)" />
    <path
       style="opacity:1;fill:#d32f2f;fill-opacity:1;stroke:none;stroke-width:0.920917"
       d="m 349.58259,423.75833 -12.56211,-0.28219 v -2.25824 c 0,-2.86868 -2.3729,-5.23249 -8.23419,-8.20263 -2.5532,-1.2938 -4.87786,-2.96657 -5.16593,-3.71726 -0.57529,-1.49917 1.03082,-8.05508 3.2817,-13.39537 l 1.43915,-3.41446 7.56978,5.41879 c 11.81918,8.46069 16.36997,10.37463 24.46839,10.29073 8.03551,-0.0833 13.33258,-2.19531 22.04671,-8.7905 14.04625,-10.63075 24.95168,-27.47208 27.80032,-42.93223 l 1.12961,-6.13057 10.41097,10.32542 c 10.89537,10.80583 22.54032,24.08059 26.17525,29.8387 4.34184,6.87792 8.7609,23.10554 8.7609,32.17168 0,1.71897 -1.13135,1.75632 -47.27922,1.56072 -26.00357,-0.11022 -52.93216,-0.32739 -59.84133,-0.48259 z"
       id="path1349"
       transform="matrix(0.12,0,0,0.12,-36.815557,-39.146968)" />
    <path
       style="opacity:1;fill:#d32f2f;fill-opacity:1;stroke:none;stroke-width:0.920917"
       d="m 347.29857,423.7593 c -10.23909,-0.29033 -10.27809,-0.29999 -10.27809,-2.54554 0,-2.86464 -2.37513,-5.22948 -8.23419,-8.19849 -2.5532,-1.2938 -4.87531,-2.95992 -5.16026,-3.70249 -0.61914,-1.61343 0.84892,-7.801 3.09411,-13.04115 l 1.62107,-3.78345 7.56978,5.41879 c 4.16338,2.98033 9.82014,6.51978 12.57056,7.86544 4.54468,2.2235 5.72913,2.40976 12.9864,2.04215 9.01929,-0.45687 11.89338,-1.62229 21.13705,-8.57088 12.71318,-9.55667 23.87361,-26.53312 27.09202,-41.21044 0.86079,-3.92556 1.68712,-7.27902 1.83629,-7.45214 0.42832,-0.49708 22.49453,22.49403 28.69916,29.90207 7.30912,8.72676 9.36619,12.07754 12.14093,19.77642 2.19202,6.08203 4.32974,16.86719 4.32974,21.8443 v 2.33742 l -49.56324,-0.19529 c -27.25978,-0.10741 -54.18838,-0.32643 -59.84133,-0.48672 z"
       id="path1351"
       transform="matrix(0.12,0,0,0.12,-36.815557,-39.146968)" />
    <path
       style="opacity:1;fill:#d32f2f;fill-opacity:1;stroke:none;stroke-width:0.920917"
       d="m 346.84177,423.75957 c -9.52719,-0.28489 -9.82129,-0.35604 -9.82129,-2.37587 0,-2.52727 -3.65592,-6.10473 -8.95219,-8.76006 -2.16004,-1.08295 -4.16685,-2.59314 -4.45958,-3.35598 -0.58395,-1.52176 1.89908,-11.47896 3.6771,-14.74551 1.11289,-2.04458 1.15053,-2.03072 8.10865,2.98723 11.88585,8.57164 16.28162,10.48699 24.06792,10.48699 9.02804,0 14.66094,-2.2421 23.69531,-9.4316 13.23076,-10.52897 23.34002,-25.94527 26.51916,-40.44088 0.87188,-3.97542 1.71783,-7.38021 1.87988,-7.56621 0.35185,-0.40385 20.96204,20.89327 27.67741,28.59988 6.78639,7.78812 10.51977,13.77613 13.13858,21.07314 2.19396,6.11319 4.33042,16.90459 4.33042,21.87319 v 2.33742 l -50.02004,-0.19403 c -27.51102,-0.10672 -54.43962,-0.32619 -59.84133,-0.48771 z"
       id="path1353"
       transform="matrix(0.12,0,0,0.12,-36.815557,-39.146968)" />
    <path
       style="opacity:1;fill:#d32f2f;fill-opacity:1;stroke:none;stroke-width:0.920917"
       d="m 345.65131,423.76299 -8.27092,-0.29909 -0.86516,-2.93732 c -0.60522,-2.05482 -2.23761,-3.8214 -5.4332,-5.87987 -8.84806,-5.69956 -8.26177,-4.82917 -6.9976,-10.38832 0.61802,-2.71771 1.82862,-6.45386 2.69023,-8.30254 l 1.56655,-3.36125 9.94285,6.67909 c 11.00206,7.3906 14.34331,8.72268 21.87909,8.72268 9.83046,0 18.97454,-4.76079 29.65161,-15.43786 10.43612,-10.43612 17.8163,-23.67153 20.33329,-36.46514 0.61924,-3.14756 1.44104,-5.60464 1.8262,-5.46017 0.38517,0.14446 6.67821,6.53382 13.98452,14.19857 13.03187,13.67117 19.39205,21.26305 23.15007,27.63326 3.54762,6.01359 7.5943,21.4379 7.5943,28.94645 v 3.02983 l -51.39045,-0.18961 c -28.26475,-0.10429 -55.11237,-0.3242 -59.66138,-0.48871 z"
       id="path1355"
       transform="matrix(0.12,0,0,0.12,-36.815557,-39.146968)" />
    <path
       style="opacity:1;fill:#d32f2f;fill-opacity:1;stroke:none;stroke-width:0.920917"
       d="m 344.7371,423.7645 -7.35792,-0.3049 -0.86455,-2.93517 c -0.60453,-2.05239 -2.23844,-3.82018 -5.4326,-5.87772 -8.84806,-5.69956 -8.26177,-4.82917 -6.9976,-10.38832 0.61802,-2.71771 1.82862,-6.49602 2.69023,-8.39624 l 1.56655,-3.45494 7.30886,5.15936 c 4.01988,2.83764 9.90515,6.39648 13.07839,7.90852 5.24057,2.49712 6.41532,2.71178 12.81367,2.34138 10.033,-0.5808 16.34852,-4.07954 27.63893,-15.31172 12.016,-11.95404 19.04091,-24.53747 21.35933,-38.26008 0.35362,-2.09309 0.91815,-3.80561 1.25449,-3.80561 0.82698,0 23.09923,23.49971 29.40987,31.03068 6.4533,7.70124 8.68893,11.3537 11.00743,17.98339 2.19919,6.28852 4.49096,17.44941 4.49096,21.87092 v 3.11726 l -52.30406,-0.18596 c -28.76724,-0.10228 -55.61513,-0.32316 -59.66198,-0.49085 z"
       id="path1357"
       transform="matrix(0.12,0,0,0.12,-36.815557,-39.146968)" />
    <path
       style="opacity:1;fill:#d32f2f;fill-opacity:1;stroke:none;stroke-width:0.920917"
       d="m 343.82283,423.76656 c -6.36996,-0.30806 -6.45503,-0.34583 -7.30887,-3.2445 -0.60742,-2.06212 -2.22003,-3.79456 -5.43193,-5.83554 -8.72899,-5.54679 -8.2649,-4.85519 -6.9976,-10.42813 0.61802,-2.71771 1.82862,-6.50268 2.69023,-8.41103 l 1.56655,-3.46974 5.93845,4.21561 c 3.26615,2.31858 8.56122,5.6924 11.76683,7.49737 5.0668,2.85295 6.73812,3.31381 12.79052,3.52695 l 6.96213,0.24518 -6.39526,-0.68032 c -3.51739,-0.37417 -7.83419,-1.42765 -9.59288,-2.34106 -4.66867,-2.42477 -15.83009,-10.23365 -18.13694,-12.68918 l -1.98898,-2.11718 2.68643,-3.7085 c 2.97971,-4.11337 31.97198,-34.66569 47.04419,-49.5756 l 9.68119,-9.57693 10.04931,10.01816 c 9.73052,9.70034 10.04932,10.14488 10.04932,14.01309 0,18.51858 -19.26725,44.88468 -39.51679,54.07639 -2.13377,0.96856 -3.22579,1.77006 -2.4267,1.78109 3.41756,0.0472 13.15879,-6.02825 20.03062,-12.49278 11.6393,-10.94942 19.80494,-24.82381 22.88102,-38.8776 0.63241,-2.88929 1.41184,-5.25325 1.73207,-5.25325 0.86105,0 23.33981,23.89106 30.02034,31.90646 8.77486,10.52821 13.11263,21.33531 14.49184,36.10482 l 0.55944,5.99097 -53.34978,-0.18153 c -29.34238,-0.0998 -56.25002,-0.32179 -59.79475,-0.49322 z"
       id="path1359"
       transform="matrix(0.12,0,0,0.12,-36.815557,-39.146968)" />
    <path
       style="opacity:1;fill:#d32f2f;fill-opacity:1;stroke:none;stroke-width:0.920917"
       d="m 343.35718,423.7677 c -5.88707,-0.30995 -6.01758,-0.37261 -7.11872,-3.41776 -0.82559,-2.28313 -2.67929,-4.08572 -7.0219,-6.82833 -3.84272,-2.4269 -5.9002,-4.325 -5.9002,-5.44315 0,-2.01573 3.28433,-12.77132 4.44787,-14.56599 0.62428,-0.96291 2.19223,-0.23042 7.0846,3.30964 11.30072,8.17706 16.13528,10.44197 22.99341,10.77201 l 6.12968,0.29499 -5.5809,-0.70912 c -3.75073,-0.47658 -7.49576,-1.78674 -11.4201,-3.99521 -6.04084,-3.39955 -16.43571,-11.37987 -16.97129,-13.02914 -0.49317,-1.51865 12.4258,-15.74682 36.47684,-40.17338 l 22.48907,-22.84021 10.11499,10.03411 c 9.80563,9.72723 10.11499,10.15629 10.11499,14.02905 0,18.00581 -16.43838,41.23829 -37.69708,53.27754 -2.63213,1.49063 -3.75789,2.43335 -2.50167,2.09492 4.57896,-1.23357 10.9411,-5.30756 17.17819,-11.00003 11.86739,-10.83115 20.5529,-25.00951 23.5369,-38.42201 0.82186,-3.69411 1.81158,-6.71657 2.19938,-6.71657 0.95342,0 22.65525,23.06106 29.9304,31.80501 8.97454,10.78642 13.15893,21.05516 14.51195,35.61309 l 0.61194,6.58415 -53.80567,-0.17894 c -29.59312,-0.0984 -56.50432,-0.32102 -59.80268,-0.49467 z"
       id="path1361"
       transform="matrix(0.12,0,0,0.12,-36.815557,-39.146968)" />
    <path
       style="opacity:1;fill:#d32f2f;fill-opacity:1;stroke:none;stroke-width:0.920917"
       d="m 342.4426,423.77121 c -4.7886,-0.30573 -5.14652,-0.49646 -6.15252,-3.27849 -0.75006,-2.07426 -2.84077,-4.11932 -7.02092,-6.86761 -3.74,-2.45891 -5.9528,-4.53633 -5.9528,-5.58862 0,-1.95373 3.28997,-12.73928 4.41326,-14.46802 0.57436,-0.88395 2.98043,0.33071 9.57602,4.83428 8.31736,5.67923 13.91679,8.68001 16.19683,8.68001 0.55514,0 -1.66693,-1.39496 -4.93791,-3.09992 -5.87485,-3.06218 -15.51524,-9.96736 -17.86014,-12.79281 -1.04125,-1.25462 -0.49948,-2.32221 3.91947,-7.72348 2.82026,-3.4472 16.19637,-17.53042 29.72469,-31.29606 l 24.59696,-25.02844 10.20654,10.04969 10.20654,10.04969 -0.46004,6.51967 c -0.80116,11.35418 -6.66886,23.04159 -17.44574,34.74881 -6.5567,7.12272 -12.983,12.34541 -19.26247,15.65471 -2.00772,1.05808 -3.01143,1.94195 -2.23046,1.96415 0.78097,0.0222 3.45327,-1.24094 5.93845,-2.807 16.25945,-10.24607 29.97867,-28.92931 33.77586,-45.99696 0.84256,-3.78716 1.85472,-6.88575 2.24925,-6.88575 0.93857,0 22.75037,23.18552 30.05261,31.94535 8.80721,10.5652 13.03118,20.98676 14.37751,35.47275 l 0.61194,6.58415 -54.71928,-0.17274 c -30.0956,-0.095 -57.00724,-0.31883 -59.80365,-0.49736 z m 16.75027,-16.37411 c -0.61855,-0.25026 -1.85192,-0.26549 -2.74083,-0.0339 -0.88891,0.23163 -0.38283,0.43639 1.12462,0.45501 1.50746,0.0186 2.23475,-0.1709 1.61621,-0.42116 z"
       id="path1363"
       transform="matrix(0.12,0,0,0.12,-36.815557,-39.146968)" />
    <path
       style="opacity:1;fill:#d32f2f;fill-opacity:1;stroke:none;stroke-width:0.920917"
       d="m 372.80095,510.26282 c -2.6813,-0.47497 -7.94094,-1.89274 -11.68809,-3.15061 -27.41761,-9.20379 -47.68157,-29.11281 -57.42834,-56.42244 -4.185,-11.72601 -5.37643,-20.23434 -4.79214,-34.22184 0.74445,-17.82113 5.44373,-32.2321 15.3105,-46.95167 2.36778,-3.53233 17.89756,-19.87191 39.40579,-41.4606 l 35.49792,-35.63071 35.00827,35.17391 c 38.10711,38.28742 43.24103,44.50758 48.94677,59.30306 5.08912,13.19651 5.96648,18.29129 5.91398,34.34176 -0.0581,17.76641 -1.56888,24.39285 -8.95664,39.28515 -9.33796,18.82353 -23.07094,32.67851 -41.18088,41.54671 -13.61521,6.66719 -21.03027,8.40031 -37.45793,8.75497 -7.53726,0.16273 -15.89791,-0.0927 -18.57921,-0.56769 z m 84.65112,-89.70434 -0.16468,-4.79644 -0.34218,4.33963 -0.34218,4.33964 -52.25401,-0.005 c -55.08404,-0.006 -67.32854,-0.42237 -67.32854,-2.29074 0,-2.0186 -3.75761,-5.93611 -8.76829,-9.1414 -5.6772,-3.63166 -5.91604,-4.61305 -3.10861,-12.77299 2.11897,-6.1589 2.26145,-7.3277 0.49826,-4.08747 -2.08757,3.83637 -4.22435,13.43534 -4.79695,21.54923 l -0.54075,7.66246 h 68.6563 68.65631 z m -2.12921,-15.43103 c -2.16985,-8.50551 -7.04942,-17.79819 -12.88815,-24.54426 -2.8245,-3.26343 -16.03023,-17.14901 -29.34606,-30.85683 l -24.21059,-24.92331 -19.80838,20.35527 c -29.38249,30.19373 -36.90165,38.46175 -39.76866,43.7294 -1.42478,2.61779 -2.15667,4.49149 -1.62641,4.16377 0.53025,-0.32771 4.18615,1.59617 8.12421,4.27529 9.20242,6.26053 13.00872,8.48499 15.83939,9.25676 1.25621,0.34249 -0.33452,-0.86726 -3.53497,-2.68832 -6.63368,-3.7746 -14.38164,-9.36298 -16.91448,-12.19992 -1.70589,-1.91071 -1.67597,-1.98146 3.52896,-8.34344 2.88719,-3.52901 16.2707,-17.6199 29.74113,-31.31309 l 24.49169,-24.89672 10.20403,10.04969 10.20405,10.04969 -0.4679,6.62366 c -0.25734,3.64301 -0.3232,6.62366 -0.14632,6.62366 0.17686,0 0.79576,-2.28414 1.37532,-5.07586 0.6448,-3.10601 1.46769,-4.94061 2.12039,-4.72736 1.66108,0.54272 27.6029,28.63043 32.63147,35.33073 5.17792,6.89933 8.58886,14.76188 10.22756,23.57557 0.72297,3.88852 1.25051,5.27823 1.4266,3.75809 0.15367,-1.32666 -0.38762,-5.02677 -1.20288,-8.22247 z m -96.62322,2.31694 c -0.30358,-0.30358 -1.09157,-0.33603 -1.75108,-0.0721 -0.72882,0.29164 -0.51233,0.50813 0.55197,0.55196 0.9631,0.0397 1.5027,-0.17625 1.19911,-0.47984 z m 18.4107,-4.93091 c 10.17172,-6.5743 21.61448,-19.44094 27.38855,-30.79664 3.1526,-6.20013 2.20282,-5.825 -1.18963,0.46987 -6.24372,11.58556 -18.73576,24.96791 -28.39606,30.41984 -2.75155,1.55287 -5.00283,2.98973 -5.00283,3.19301 0,0.98298 2.02448,0.059 7.19997,-3.28608 z m 31.09337,-40.19752 c -0.0331,-0.9036 -0.31768,-0.748 -0.83541,0.45681 -1.07926,2.51158 -1.07926,3.95406 0,2.28402 0.4871,-0.75373 0.86303,-1.9871 0.83541,-2.74083 z"
       id="path1365"
       transform="matrix(0.12,0,0,0.12,-36.815557,-39.146968)" />
    <path
       style="opacity:1;fill:#d32f2f;fill-opacity:1;stroke:none;stroke-width:0.920917"
       d="m 372.80095,510.26732 c -21.11881,-3.76045 -43.11756,-17.37783 -55.72477,-34.49403 -13.60116,-18.46565 -19.02253,-35.95855 -18.17387,-58.64084 0.69007,-18.44372 5.24257,-32.61134 15.30057,-47.61619 2.36778,-3.53233 17.89756,-19.87191 39.40579,-41.4606 l 35.49792,-35.63071 35.00827,35.17391 c 38.10711,38.28742 43.24103,44.50758 48.94677,59.30306 5.08912,13.19651 5.96648,18.29129 5.91398,34.34176 -0.0394,12.03562 -0.39777,15.90879 -2.02896,21.9266 -2.16917,8.00248 -8.46868,21.78854 -13.0561,28.57236 -8.78248,12.98744 -21.43042,23.84853 -35.82004,30.75952 -13.47169,6.47013 -19.8397,7.93014 -36.23354,8.30737 -7.78851,0.17923 -16.35472,-0.0648 -19.03602,-0.54221 z m 84.65618,-89.25204 -0.15961,-4.33964 -0.34973,3.88284 -0.34972,3.88283 h -52.79889 c -55.20689,0 -66.7787,-0.39766 -66.7787,-2.29487 0,-2.01987 -3.75637,-5.93666 -8.76829,-9.14275 -5.67798,-3.63216 -5.91625,-4.61245 -3.10624,-12.77987 1.00626,-2.92477 1.66521,-5.48213 1.46432,-5.68304 -0.65429,-0.65428 -4.12318,11.02015 -5.084,17.11002 -0.51531,3.26615 -0.94003,7.68573 -0.94383,9.82129 l -0.007,3.88283 h 68.5206 68.52061 z m -1.63157,-13.2194 c -1.57755,-8.0369 -4.74714,-15.3894 -9.51392,-22.06945 -3.39869,-4.76284 -46.3524,-50.23704 -55.04397,-58.2739 l -2.62833,-2.43035 -25.76839,26.64096 c -14.17261,14.65253 -27.37499,28.69658 -29.33863,31.20901 -3.74756,4.79488 -7.35754,11.10629 -5.80303,10.14555 0.50018,-0.30913 4.13147,1.64829 8.06953,4.34981 6.98352,4.79071 14.12391,8.81836 15.57459,8.78509 0.39689,-0.009 -1.43196,-1.20391 -4.06409,-2.65512 -5.81321,-3.20509 -12.71523,-8.21488 -15.67329,-11.37636 l -2.18682,-2.3372 2.47587,-3.24604 c 3.3567,-4.40087 30.48637,-32.9107 45.20483,-47.50454 l 11.96383,-11.86252 10.13243,10.03531 10.13245,10.0353 -0.42013,6.85206 -0.42013,6.85206 1.35066,-5.25324 c 0.74287,-2.88929 1.69765,-5.25325 2.12173,-5.25325 1.2703,0 29.08742,30.1586 33.4478,36.26322 4.67244,6.54151 7.87026,13.90889 9.53447,21.9662 0.6444,3.1199 1.35326,5.49093 1.57523,5.26895 0.22198,-0.22198 -0.10323,-2.98568 -0.72269,-6.14155 z m -81.34715,-3.57261 c 9.38435,-5.69072 22.67123,-19.0064 26.60612,-26.66379 1.3203,-2.56932 0.26128,-1.40222 -4.59394,5.06276 -5.38237,7.16693 -15.54665,16.58077 -21.57739,19.98431 -2.75155,1.55287 -5.00283,2.98973 -5.00283,3.19301 0,0.79902 1.51056,0.27778 4.56804,-1.57629 z m 29.73617,-31.94252 c 0.80369,-1.55415 1.29904,-2.98792 1.10081,-3.18615 -0.19823,-0.19824 -1.04414,1.07334 -1.8798,2.82572 -1.87891,3.94012 -1.2279,4.24133 0.77899,0.36043 z"
       id="path1367"
       transform="matrix(0.12,0,0,0.12,-36.815557,-39.146968)" />
    <path
       style="opacity:1;fill:#d32f2f;fill-opacity:1;stroke:none;stroke-width:0.920917"
       d="m 372.80095,510.26732 c -10.94425,-1.94875 -24.82683,-7.75837 -34.9537,-14.62753 -17.04276,-11.56027 -30.97062,-31.20666 -36.64383,-51.68913 -1.69186,-6.10825 -1.9875,-9.5539 -1.9875,-23.16378 0,-13.67218 0.29212,-17.04687 2.01663,-23.29701 2.85684,-10.35403 10.13993,-24.72051 16.5138,-32.57483 2.99503,-3.69067 20.27394,-21.50859 38.39758,-39.59537 l 32.95208,-32.88507 32.04201,31.97146 c 17.62312,17.5843 34.88597,35.466 38.36191,39.73712 7.28952,8.95712 13.42153,20.67075 16.97852,32.43309 2.28854,7.5678 2.48583,9.45907 2.47791,23.75381 -0.007,13.09459 -0.321,16.67803 -1.99974,22.8402 -2.18329,8.01423 -8.48974,21.80492 -13.06607,28.57236 -8.76612,12.96324 -21.37962,23.80436 -35.82004,30.78678 -13.30331,6.43259 -19.77504,7.91242 -36.23354,8.28521 -7.78851,0.17642 -16.35472,-0.0699 -19.03602,-0.54731 z m 84.66222,-88.79523 -0.15359,-3.88284 -0.35837,3.42603 -0.35837,3.42603 h -52.79628 c -29.03795,0 -55.83895,-0.25827 -59.55777,-0.57394 -6.43849,-0.54652 -6.82697,-0.70994 -8.13191,-3.42092 -0.75777,-1.57425 -3.92309,-4.61539 -7.08047,-6.8027 -6.49706,-4.50091 -6.70347,-5.21473 -3.88046,-13.41993 1.00626,-2.92477 1.66521,-5.48213 1.46432,-5.68304 -0.65429,-0.65428 -4.12318,11.02015 -5.084,17.11002 -0.51531,3.26615 -0.94003,7.68573 -0.94383,9.82129 l -0.007,3.88283 h 68.5206 68.52061 z m -2.07216,-15.4918 c -2.4327,-9.72652 -7.92414,-19.58111 -15.677,-28.13299 -15.00723,-16.55389 -50.01799,-52.14607 -51.04157,-51.88923 -1.34895,0.33847 -44.4425,44.5604 -52.00575,53.36748 -5.29771,6.16894 -11.09694,15.02682 -8.98246,13.72 0.54199,-0.33497 3.58384,1.19599 6.75966,3.40214 3.17582,2.20615 8.24096,5.3179 11.25587,6.915 5.84282,3.09514 5.58511,2.87998 -4.48112,-3.74144 -3.5652,-2.34514 -7.67403,-5.515 -9.13073,-7.04415 l -2.64856,-2.78026 2.44575,-3.20654 c 3.50414,-4.59417 29.21688,-31.64886 44.33023,-46.64382 l 12.87746,-12.7766 10.05137,10.02019 10.05136,10.0202 0.0944,5.04043 0.0944,5.04042 0.90995,-3.42603 c 0.50046,-1.88432 1.24791,-3.42603 1.66099,-3.42603 0.77776,0 21.60931,21.80226 28.17465,29.48753 8.34194,9.76492 12.42546,17.60179 14.82286,28.4472 0.6568,2.97123 1.34765,4.94187 1.53521,4.37917 0.18756,-0.56269 -0.30609,-3.6104 -1.09701,-6.77267 z m -77.8698,-3.86855 c 7.83388,-5.21466 18.32624,-16.05892 23.03507,-23.80763 2.21662,-3.64762 0.73407,-2.07301 -4.06569,4.31813 -5.00662,6.6666 -15.18764,16.28765 -20.57919,19.44731 -3.89112,2.28034 -4.9268,3.18599 -3.64343,3.18599 0.29171,0 2.65567,-1.41471 5.25324,-3.1438 z m 26.64947,-29.74609 c 0.77953,-1.50745 1.21177,-2.74082 0.96053,-2.74082 -0.25125,0 -1.09461,1.23337 -1.87414,2.74082 -0.77954,1.50746 -1.21178,2.74083 -0.96053,2.74083 0.25124,0 1.0946,-1.23337 1.87414,-2.74083 z"
       id="path1369"
       transform="matrix(0.12,0,0,0.12,-36.815557,-39.146968)" />
    <path
       style="opacity:1;fill:#d32f2f;fill-opacity:1;stroke:none;stroke-width:0.920917"
       d="m 370.9272,509.88017 c -18.28019,-4.14532 -32.94595,-12.16419 -45.85305,-25.07129 -11.30178,-11.30178 -19.27866,-24.92396 -23.85747,-40.74158 -1.87313,-6.47078 -2.10331,-9.14485 -2.04325,-23.73722 0.0625,-15.19151 0.25752,-17.06738 2.55829,-24.61111 3.263,-10.69865 9.70466,-23.03336 16.22092,-31.06036 2.88157,-3.54963 20.07593,-21.25433 38.20968,-39.34377 l 32.97047,-32.88989 34.55696,34.7171 c 34.69561,34.85639 39.45716,40.20908 45.25442,50.87266 13.62934,25.07001 14.14455,56.8264 1.33546,82.31481 -7.34493,14.61542 -14.83367,23.83129 -26.52201,32.63871 -8.50106,6.40574 -21.13932,12.7724 -30.90767,15.57007 -9.03185,2.58674 -33.0438,3.35532 -41.92275,1.34187 z m 86.54333,-87.95128 c -0.14395,-3.37313 -0.15189,-3.38019 -0.51469,-0.4568 l -0.36847,2.96922 h -54.16778 c -60.67801,0 -64.96385,-0.20128 -65.828,-3.09158 l -0.57801,-1.93326 -0.7886,1.92336 c -0.81384,1.98493 -4.63805,3.07109 -10.88461,3.09142 l -3.08724,0.0101 0.64539,-5.70449 c 0.35497,-3.13748 0.7924,-5.85151 0.97208,-6.03118 0.17967,-0.17968 3.01826,1.10255 6.30796,2.84939 7.17328,3.80903 6.99144,2.92921 -0.43721,-2.11549 -4.30332,-2.92234 -5.44122,-4.19647 -5.50351,-6.16242 l -0.0785,-2.47838 -0.83271,2.74082 c -0.45798,1.50746 -1.09998,6.1326 -1.42666,10.27809 l -0.59396,7.53727 h 68.65538 68.65539 l -0.14622,-3.42603 z m -2.54191,-17.15025 c -2.32088,-8.45965 -5.45592,-14.81197 -10.58604,-21.44969 -4.24777,-5.49608 -54.08214,-57.55731 -55.09536,-57.55731 -0.72944,0 -29.84136,29.30949 -44.83636,45.14064 -10.91172,11.52018 -17.49991,20.3483 -15.96382,21.39138 11.42387,7.75735 21.91004,14.27442 20.45035,12.70972 -0.25124,-0.26931 -3.54023,-2.55209 -7.30887,-5.07283 -3.76863,-2.52076 -8.04391,-5.8343 -9.50061,-7.36345 l -2.64856,-2.78026 2.6398,-3.46235 c 3.62928,-4.76014 27.55506,-29.91637 43.68482,-45.93142 l 13.3284,-13.23361 10.05158,10.0204 10.05157,10.02041 0.0944,5.04043 0.0944,5.04042 0.90995,-3.42603 c 0.50046,-1.88432 1.24791,-3.42603 1.66099,-3.42603 0.77776,0 21.60931,21.80226 28.17465,29.48753 8.34194,9.76492 12.42546,17.60179 14.82286,28.4472 0.6568,2.97123 1.34846,4.93942 1.53703,4.37372 0.18856,-0.56568 -0.51399,-4.15168 -1.56122,-7.96887 z m -67.64413,-11.10969 c 4.29454,-4.11145 9.16552,-9.45606 10.82441,-11.87691 l 3.01617,-4.40154 -3.02566,3.65443 c -6.46459,7.80801 -14.96281,16.08987 -19.86493,19.35917 -6.84193,4.563 -7.84043,5.58621 -2.85597,2.92664 2.25376,-1.20254 7.61145,-5.55035 11.90598,-9.66179 z m -61.8719,5.87654 c 1.50011,-4.49799 1.27262,-6.11042 -0.28433,-2.01533 -1.16255,3.05773 -2.19059,7.39125 -1.61596,6.81178 0.24915,-0.25125 1.10428,-2.40965 1.90029,-4.79645 z m 79.03844,-28.57442 c -0.28129,-0.28129 -0.79214,0.22576 -1.13523,1.12678 -0.49579,1.30207 -0.39086,1.40701 0.51144,0.51143 0.62438,-0.61973 0.90509,-1.35693 0.62379,-1.63821 z"
       id="path1371"
       transform="matrix(0.12,0,0,0.12,-36.815557,-39.146968)" />
    <path
       style="opacity:1;fill:#d32f2f;fill-opacity:1;stroke:none;stroke-width:0.920917"
       d="m 370.9272,509.88017 c -18.28019,-4.14532 -32.94595,-12.16419 -45.85305,-25.07129 -11.30178,-11.30178 -19.27866,-24.92396 -23.85747,-40.74158 -1.87313,-6.47078 -2.10331,-9.14485 -2.04325,-23.73722 0.0625,-15.19151 0.25752,-17.06738 2.55829,-24.61111 3.263,-10.69865 9.70466,-23.03336 16.22092,-31.06036 2.88157,-3.54963 20.08015,-21.25433 38.21906,-39.34377 l 32.97983,-32.88989 35.42788,35.63071 c 37.82733,38.04392 41.3803,42.29068 47.69924,57.01346 5.8133,13.54467 6.78414,18.70856 6.71517,35.71776 -0.0502,12.37567 -0.4109,16.38307 -2.01475,22.3834 -2.74831,10.28197 -11.78539,27.81538 -18.50437,35.90152 -10.74755,12.93444 -29.05923,24.7661 -45.62475,29.47938 -9.04502,2.57352 -33.07527,3.3353 -41.92275,1.32899 z m 86.55266,-87.49448 c -0.12741,-2.7636 -0.16324,-2.79523 -0.51749,-0.4568 l -0.3806,2.51242 h -54.16498 c -60.53363,0 -65.05019,-0.21104 -65.96145,-3.08218 l -0.60706,-1.91265 -0.70594,1.90835 c -0.73033,1.97426 -4.52853,3.056 -10.80197,3.07642 l -3.08724,0.0101 0.64539,-5.70449 c 0.35497,-3.13748 0.79126,-5.85036 0.96953,-6.02864 0.17828,-0.17828 2.81882,0.94357 5.86788,2.49298 3.04905,1.54943 5.54373,2.67739 5.54373,2.50659 0,-0.1708 -2.44017,-2.02223 -5.4226,-4.11428 -4.01899,-2.81917 -5.50165,-4.44967 -5.728,-6.29923 -0.35074,-2.86594 -2.55352,9.98778 -2.55352,14.90038 v 3.16031 h 68.5206 68.52061 z m -3.40537,-20.57635 c -3.84443,-12.56428 -9.47291,-19.46212 -49.74463,-60.96316 l -15.07128,-15.53134 -7.48628,7.30886 c -25.26575,24.66699 -55.43038,57.88028 -53.81152,59.25012 0.76582,0.64801 16.86711,11.25078 18.19578,11.98199 2.55075,1.40376 -0.3223,-0.93015 -6.39525,-5.19517 -3.26615,-2.29381 -6.92253,-5.22945 -8.12528,-6.52364 l -2.18682,-2.35308 2.62026,-3.43534 c 3.79137,-4.97075 26.25656,-28.61875 42.77989,-45.03228 l 14.24224,-14.14761 10.05197,10.02079 c 10.04577,10.01463 10.052,10.02361 10.14522,14.60441 0.0918,4.51193 0.10816,4.53718 1.04577,1.6144 0.52387,-1.63308 1.27184,-2.96923 1.66215,-2.96923 0.82695,0 22.28098,22.5912 29.02634,30.56488 6.51797,7.70488 10.77918,15.31685 12.6586,22.61258 0.89193,3.46237 1.76837,5.85519 1.94764,5.31736 0.17928,-0.53783 -0.52039,-3.74387 -1.5548,-7.12454 z m -129.05934,-2.03545 c 0,-0.86379 -0.29026,-0.69492 -0.78518,0.45681 -0.43185,1.00497 -0.78518,2.4439 -0.78518,3.19763 0,0.8638 0.29027,0.69492 0.78518,-0.45681 0.43185,-1.00497 0.78518,-2.4439 0.78518,-3.19763 z m 62.25442,-6.39525 c 6.20566,-6.08999 6.41865,-6.3678 0.98704,-1.28746 -3.80938,3.56302 -8.67341,7.62611 -10.80897,9.02909 -4.54198,2.9839 -5.17821,4.06327 -0.98704,1.67451 1.59269,-0.90776 6.45673,-5.14502 10.80897,-9.41614 z m 10.16558,-10.7349 c 1.13641,-1.44903 1.1041,-1.48134 -0.34494,-0.34493 -0.87934,0.68963 -1.59881,1.4091 -1.59881,1.59881 0,0.75193 0.75024,0.26797 1.94375,-1.25388 z"
       id="path1373"
       transform="matrix(0.12,0,0,0.12,-36.815557,-39.146968)" />
    <path
       style="opacity:1;fill:#d32f2f;fill-opacity:1;stroke:none;stroke-width:0.920917"
       d="m 370.82398,509.90086 c -33.25698,-7.14425 -59.87044,-32.18777 -69.45749,-65.36017 -2.49595,-8.63632 -3.42687,-27.64914 -1.87383,-38.27049 2.08285,-14.24467 9.13026,-30.11974 18.48816,-41.64661 2.86607,-3.53038 20.04775,-21.21931 38.1815,-39.30875 l 32.97047,-32.88989 34.57453,34.7171 c 19.016,19.09441 36.52521,37.38941 38.90935,40.65556 19.42855,26.61604 22.45049,63.10667 7.66296,92.53191 -7.3717,14.66871 -15.19802,24.28213 -26.74557,32.85279 -8.50571,6.31299 -21.07772,12.60471 -30.68411,15.35599 -8.89195,2.54668 -32.89166,3.32479 -42.02597,1.36256 z m 86.66835,-87.05836 c -0.10667,-2.15414 -0.18087,-2.21929 -0.52034,-0.45681 l -0.39593,2.05562 -54.98135,-0.008 c -30.23974,-0.005 -57.12984,-0.26602 -59.75578,-0.58146 -3.76427,-0.45217 -4.9031,-0.97889 -5.38254,-2.48948 l -0.60811,-1.91595 -0.70594,1.90835 c -0.73033,1.97426 -4.52853,3.05599 -10.80197,3.07642 l -3.08724,0.01 0.64539,-5.7045 c 0.35497,-3.13747 0.78798,-5.84708 0.96226,-6.02136 0.17428,-0.17428 2.43748,0.74825 5.02933,2.05007 6.59212,3.31103 6.76784,2.95938 0.67948,-1.35975 -2.88928,-2.04968 -5.27929,-4.41364 -5.31114,-5.25325 -0.14123,-3.72291 -1.66608,2.84084 -2.271,9.77558 l -0.64785,7.42711 h 68.63857 68.63858 z m -1.99231,-15.93104 c -0.29164,-0.72881 -0.50813,-0.51234 -0.55197,0.55197 -0.0397,0.96309 0.17625,1.5027 0.47985,1.19911 0.30358,-0.30358 0.33603,-1.09158 0.0721,-1.75108 z m -1.53771,-5.76715 c -1.42852,-4.32848 -2.08283,-3.67417 -0.73088,0.73088 0.57034,1.85834 1.21464,3.20113 1.43179,2.98398 0.21714,-0.21714 -0.0983,-1.88883 -0.70091,-3.71486 z m -73.25575,-1.76762 c 0.89428,-1.02811 0.009,-0.66697 -2.11691,0.86321 -5.08534,3.66092 -6.02756,4.67307 -2.45113,2.63304 1.66678,-0.95075 3.7224,-2.52406 4.56804,-3.49625 z m -36.37721,2.80263 c 0,-0.18447 -1.6995,-1.46007 -3.77666,-2.83467 -2.07716,-1.3746 -5.53564,-4.12065 -7.68551,-6.10232 -2.49354,-2.29848 -4.13639,-3.23488 -4.53729,-2.5862 -0.34565,0.55928 -0.48451,1.1366 -0.30857,1.28296 0.79643,0.66252 15.86111,10.57563 16.07149,10.57563 0.1301,0 0.23654,-0.15093 0.23654,-0.3354 z m 46.59401,-12.18853 c 0,-0.68601 -0.82027,0.0393 -4.60622,4.07305 l -4.07306,4.33964 4.33964,-4.07305 c 2.3868,-2.24018 4.33964,-4.19302 4.33964,-4.33964 z m 59.48202,2.66536 c -1.02145,-2.00221 -3.95092,-6.25607 -6.50995,-9.45302 -4.12587,-5.15438 -44.68215,-48.1331 -52.00161,-55.10768 l -2.8346,-2.70104 -7.38419,7.26908 c -12.5671,12.37119 -44.17636,45.67685 -47.33617,49.8766 l -2.99936,3.98649 2.89363,-3.19763 c 7.96024,-8.79653 52.7534,-54.67361 53.89592,-55.20011 0.8915,-0.41083 4.50687,2.57317 11.1917,9.23728 9.54769,9.51809 9.87799,9.98084 9.97196,13.97097 0.0927,3.93661 0.14294,4.01102 1.08997,1.61439 0.54604,-1.38183 1.29295,-2.51242 1.65982,-2.51242 1.02494,0 24.74271,25.23161 30.39872,32.339 2.75794,3.46564 5.95219,8.06885 7.09834,10.22937 1.14614,2.16051 2.2277,3.7844 2.40345,3.60865 0.17576,-0.17575 -0.51618,-1.95772 -1.53763,-3.95993 z m -52.97023,-10.01241 c 1.13641,-1.44903 1.1041,-1.48134 -0.34494,-0.34493 -0.87934,0.68963 -1.59881,1.4091 -1.59881,1.59881 0,0.75193 0.75024,0.26797 1.94375,-1.25388 z"
       id="path1375"
       transform="matrix(0.12,0,0,0.12,-36.815557,-39.146968)" />
    <path
       style="opacity:1;fill:#d32f2f;fill-opacity:1;stroke:none;stroke-width:0.920917"
       d="m 372.42938,510.28969 c -11.92391,-2.0074 -28.90888,-9.86473 -39.45324,-18.25127 -14.95536,-11.89485 -25.71698,-27.85615 -31.23092,-46.32071 -2.93375,-9.82424 -4.00198,-29.09289 -2.22393,-40.11495 2.25896,-14.00325 9.29475,-29.6514 18.42202,-40.97205 2.84952,-3.53429 20.03504,-21.22643 38.19006,-39.31587 l 33.00911,-32.88989 34.99267,35.17391 c 19.24596,19.34565 36.9225,37.91054 39.2812,41.25532 5.40501,7.66465 11.03935,19.6264 13.58132,28.83324 1.66627,6.03511 1.96151,9.53094 1.9509,23.09946 -0.0115,14.70601 -0.20867,16.63282 -2.45876,24.02733 -6.18734,20.33353 -17.45843,36.88297 -32.93418,48.35754 -11.7253,8.69378 -24.54648,14.48493 -37.10093,16.75798 -7.38886,1.33779 -26.98557,1.54511 -34.02532,0.35996 z m 85.08139,-86.99039 c -0.0798,-1.54689 -0.20938,-1.65994 -0.5238,-0.4568 -0.3921,1.50045 -3.8002,1.59833 -55.3957,1.59087 -30.23785,-0.005 -57.1264,-0.26602 -59.75234,-0.58145 -3.76427,-0.45218 -4.9031,-0.9789 -5.38254,-2.48949 l -0.60811,-1.91595 -0.70689,1.91093 c -0.76571,2.06989 -4.13342,3.0839 -10.24216,3.0839 h -3.67038 l 0.58908,-5.63605 c 0.324,-3.09982 0.75815,-5.80511 0.96479,-6.01175 0.20664,-0.20664 2.44866,0.61637 4.98226,1.82891 5.42598,2.59677 5.28098,1.80752 -0.384,-2.09008 -2.23554,-1.5381 -4.09068,-3.49625 -4.12253,-4.35146 -0.14012,-3.76237 -1.66253,2.77188 -2.271,9.74722 l -0.64785,7.42682 h 68.63857 68.63858 z m -78.92112,-22.23503 2.74082,-2.35499 -3.19762,2.06366 c -4.10176,2.64716 -4.11242,2.65622 -3.1215,2.65085 0.46061,-0.002 2.07085,-1.06428 3.5783,-2.35952 z m -34.2603,1.1455 c 0,-0.16772 -2.1914,-1.81422 -4.86978,-3.65889 -2.67838,-1.84467 -5.83347,-4.37975 -7.01132,-5.6335 -2.03781,-2.16916 -4.58374,-3.06197 -4.54642,-1.59436 0.01,0.37686 3.60691,3.04621 7.99407,5.93187 8.00702,5.26665 8.43345,5.5172 8.43345,4.95488 z m 108.71503,-3.08666 c -0.99547,-1.55248 -1.02125,-1.55049 -0.52146,0.0403 0.28918,0.92045 0.55825,2.15382 0.59792,2.74083 0.0521,0.77032 0.19714,0.7591 0.52146,-0.0403 0.24714,-0.60918 -0.0219,-1.84255 -0.59792,-2.74083 z m -2.23579,-5.65957 c -2.00689,-3.8809 -2.6579,-3.57969 -0.77899,0.36043 0.83566,1.75239 1.68157,3.02396 1.8798,2.82572 0.19824,-0.19823 -0.29712,-1.632 -1.10081,-3.18615 z m -63.53966,0.3719 c 1.18015,-1.25621 1.94016,-2.28402 1.68892,-2.28402 -0.25124,0 -1.42238,1.02781 -2.60253,2.28402 -1.18015,1.25621 -1.94017,2.28402 -1.68892,2.28402 0.25124,0 1.42238,-1.02781 2.60253,-2.28402 z m 60.66444,-5.25324 c -1.62446,-2.83171 -10.7404,-13.44317 -15.10837,-17.58696 -4.04077,-3.83338 -3.84367,-3.51427 1.22554,1.98425 3.32238,3.60376 7.77215,8.84559 9.88837,11.64851 3.54208,4.69144 5.56773,6.69667 3.99446,3.9542 z m -114.11051,-4.33964 c 0.90948,-1.00497 1.44804,-1.82722 1.1968,-1.82722 -0.25124,0 -1.20093,0.82225 -2.11041,1.82722 -0.90949,1.00497 -1.44805,1.82721 -1.19681,1.82721 0.25125,0 1.20093,-0.82224 2.11042,-1.82721 z m 35.04964,-36.77273 c 10.776,-10.92903 19.83075,-19.87097 20.12167,-19.87097 0.29092,0 4.95523,4.41257 10.36514,9.8057 9.54449,9.51489 9.83805,9.9281 9.89804,13.93253 0.0573,3.8242 0.13746,3.95933 1.09314,1.84279 0.56723,-1.25621 1.16896,-2.46819 1.3372,-2.6933 0.16823,-0.2251 4.06588,3.26945 8.66145,7.76567 4.59557,4.49622 -0.42316,-0.97255 -11.15272,-12.15283 -10.72956,-11.18028 -19.81288,-20.32778 -20.18515,-20.32778 -0.74625,0 -42.66925,43.14952 -49.70777,51.16205 -2.42771,2.76367 -1.17621,1.73586 2.78112,-2.28402 3.95733,-4.01987 16.01188,-16.2508 26.78788,-27.17984 z"
       id="path1377"
       transform="matrix(0.12,0,0,0.12,-36.815557,-39.146968)" />
    <path
       style="opacity:1;fill:#d32f2f;fill-opacity:1;stroke:none;stroke-width:0.920917"
       d="m 371.80034,510.29593 c -18.07325,-3.79611 -37.75832,-15.01858 -49.74502,-28.35969 -11.40119,-12.68944 -19.6362,-29.23585 -22.44619,-45.10061 -1.23618,-6.97927 -1.23618,-25.11823 0,-32.0975 2.38616,-13.47188 9.61024,-29.28563 18.30544,-40.07126 2.86533,-3.55418 20.06378,-21.26259 38.2188,-39.35203 l 33.00911,-32.88989 34.99267,35.17391 c 19.24596,19.34565 36.9225,37.91054 39.2812,41.25532 5.36026,7.6012 10.81304,19.14228 13.53723,28.65228 1.8092,6.31581 2.08843,9.37199 2.08527,22.82362 -0.004,16.87368 -0.7309,21.06259 -5.89205,33.95194 -10.76922,26.89486 -33.35003,46.93217 -61.66726,54.72107 -6.42379,1.76692 -33.25927,2.64128 -39.6792,1.29284 z m 85.74428,-86.53982 c -0.0431,-0.95513 -0.25765,-1.13904 -0.53294,-0.45681 -0.36153,0.89598 -12.3034,1.1403 -55.42956,1.13407 -30.23281,-0.005 -57.11725,-0.26602 -59.74319,-0.58145 -3.76427,-0.45218 -4.9031,-0.9789 -5.38254,-2.48949 l -0.60811,-1.91595 -0.70689,1.91093 c -0.75836,2.05002 -4.12994,3.0839 -10.05686,3.0839 -3.35442,0 -3.49852,-0.12844 -3.84346,-3.42603 l -0.35837,-3.42603 -0.15358,3.88284 -0.15358,3.88283 h 68.5206 c 64.67613,0 68.51656,-0.0897 68.44848,-1.59881 z M 322.8445,412.56441 c 0.17621,0 2.20452,0.80764 4.50736,1.79474 2.30283,0.98712 4.18698,1.6735 4.18698,1.52529 0,-0.1482 -1.85006,-1.59807 -4.11124,-3.22193 -2.26118,-1.62386 -4.15222,-3.64638 -4.20231,-4.49451 -0.16678,-2.82413 -1.55571,2.90734 -1.50819,6.22362 0.0378,2.63831 0.1124,2.75816 0.42642,0.68521 0.20933,-1.38183 0.52477,-2.51242 0.70098,-2.51242 z m 57.11556,-12.47093 c 0,-0.66088 -3.52102,1.46625 -4.17284,2.52091 -0.34109,0.55191 0.45826,0.29685 1.77633,-0.56678 1.31808,-0.86364 2.39651,-1.743 2.39651,-1.95413 z m -37.4326,0.77451 c -1.24227,-0.85299 -4.70142,-3.50374 -7.68699,-5.89054 -5.23819,-4.18765 -6.97547,-5.10264 -6.93864,-3.65443 0.0173,0.68159 15.55588,11.2161 16.42752,11.1372 0.25124,-0.0227 -0.55961,-0.73924 -1.80189,-1.59223 z m 110.51692,-1.74488 c -0.99547,-1.55248 -1.02125,-1.55049 -0.52146,0.0403 0.28918,0.92045 0.55825,2.15382 0.59792,2.74083 0.0521,0.77032 0.19714,0.7591 0.52146,-0.0403 0.24714,-0.60918 -0.0219,-1.84255 -0.59792,-2.74083 z m -2.23579,-5.65957 c -2.00689,-3.8809 -2.6579,-3.57969 -0.77899,0.36043 0.83566,1.75239 1.68157,3.02396 1.8798,2.82572 0.19824,-0.19823 -0.29712,-1.632 -1.10081,-3.18615 z m -5.8386,-8.99258 c -0.99433,-1.38183 -4.61966,-5.43164 -8.05628,-8.99958 -3.43662,-3.56793 -4.38958,-4.39018 -2.1177,-1.82721 2.27189,2.56296 5.71319,6.61277 7.64732,8.99957 3.8141,4.70675 5.44998,5.88976 2.52666,1.82722 z M 367.9099,348.38344 c 11.27414,-11.43152 20.74926,-20.78458 21.05582,-20.78458 0.30657,0 4.98368,4.41257 10.39359,9.8057 9.21206,9.18349 9.83797,10.03859 9.86399,13.47572 0.0241,3.191 0.16099,3.43152 1.04835,1.8428 0.56131,-1.00497 1.17567,-2.00869 1.36523,-2.23049 0.18957,-0.2218 2.67133,1.83382 5.51502,4.56804 2.8437,2.73422 -1.9374,-2.50421 -10.62467,-11.64096 -8.68726,-9.13676 -16.35116,-16.82569 -17.03087,-17.08652 -1.13355,-0.43498 -39.43805,38.19777 -48.35891,48.77333 -2.74178,3.25033 -2.44798,3.05902 1.40302,-0.91361 2.67905,-2.76367 14.09529,-14.37791 25.36943,-25.80943 z"
       id="path1379"
       transform="matrix(0.12,0,0,0.12,-36.815557,-39.146968)" />
    <path
       style="opacity:1;fill:#d32f2f;fill-opacity:1;stroke:none;stroke-width:0.920917"
       d="m 371.80034,510.23973 c -12.3016,-2.41306 -28.55272,-10.03181 -38.8242,-18.20131 -14.64184,-11.64549 -24.8836,-26.63248 -31.2102,-45.67051 -2.47806,-7.45699 -2.58064,-8.47383 -2.58064,-25.58103 0,-17.07602 0.10655,-18.13763 2.56738,-25.58103 3.54339,-10.71788 9.96554,-22.85296 16.16189,-30.53898 2.86533,-3.55418 20.06378,-21.26259 38.2188,-39.35203 l 33.00911,-32.88989 34.99267,35.17391 c 19.24596,19.34565 36.9225,37.91054 39.2812,41.25532 9.89634,14.03362 15.0141,29.05716 15.84265,46.50722 0.8641,18.19853 -1.66915,30.56003 -9.51793,46.44475 -12.41435,25.12468 -38.04455,44.20642 -65.11359,48.4772 -7.03659,1.11018 -27.08093,1.08355 -32.82714,-0.0436 z m 85.58149,-86.71203 c 0.28738,-1.05295 0.18123,-1.09703 -0.4582,-0.1903 -0.66884,0.94842 -12.44399,1.12779 -59.97554,0.91361 -56.08602,-0.25272 -59.19138,-0.35244 -60.07333,-1.92906 -0.88647,-1.58471 -0.98524,-1.58706 -2.10892,-0.0503 -0.8571,1.17215 -2.81212,1.71622 -7.16228,1.99322 l -5.98339,0.38099 -0.3761,-3.07148 -0.37611,-3.07148 -0.14621,3.43185 -0.14621,3.43184 68.21612,-0.23421 c 59.7279,-0.20508 68.26268,-0.40475 68.59017,-1.60464 z m -126.34548,-8.04447 c -0.47736,-0.40458 -2.40964,-1.86445 -4.29396,-3.24412 -1.88431,-1.37969 -3.46701,-3.20706 -3.5171,-4.06083 -0.13627,-2.32297 -1.55692,2.5689 -1.5391,5.29974 0.01,1.52585 0.15603,1.74069 0.44004,0.64722 0.45707,-1.75977 2.29025,-1.53983 6.67178,0.80048 2.62643,1.40285 3.48932,1.61778 2.23834,0.55751 z m 8.77676,-16.44246 c -1.22771,-0.85299 -4.09804,-3.09261 -6.3785,-4.97693 -4.01283,-3.31573 -6.27355,-4.42193 -5.07553,-2.4835 0.63738,1.03131 12.46522,9.13674 13.21969,9.05924 0.25661,-0.0264 -0.53794,-0.74582 -1.76566,-1.59881 z m 111.40838,-4.57391 c 0,-0.40644 -0.62336,-1.53703 -1.38526,-2.51242 -1.28453,-1.64448 -1.30709,-1.59074 -0.31016,0.73899 1.07569,2.51379 1.69542,3.16204 1.69542,1.77343 z m -4.56804,-7.82842 c 0,-0.18971 -0.71947,-0.90918 -1.59881,-1.59881 -1.44904,-1.13641 -1.48136,-1.1041 -0.34495,0.34494 1.19351,1.52184 1.94376,2.00581 1.94376,1.25387 z m -2.74082,-3.59537 c 0,-0.15723 -1.33616,-1.49338 -2.96923,-2.96922 l -2.96923,-2.68335 2.68335,2.96922 c 2.50126,2.76774 3.25511,3.38917 3.25511,2.68335 z m -101.4105,-8.3934 c 1.18015,-1.25621 1.94017,-2.28402 1.68892,-2.28402 -0.25124,0 -1.42238,1.02781 -2.60253,2.28402 -1.18014,1.25621 -1.94016,2.28402 -1.68892,2.28402 0.25124,0 1.42238,-1.02781 2.60253,-2.28402 z m 95.92885,1.98647 c 0,-0.16365 -1.13059,-1.29424 -2.51242,-2.51242 l -2.51243,-2.21487 2.21487,2.51242 c 2.07014,2.34824 2.80998,2.93139 2.80998,2.21487 z m -52.37511,-47.21007 c 1.42836,-2.12927 1.42861,-2.19915 0.004,-1.03138 -0.84066,0.68895 -10.64327,10.76148 -21.78356,22.3834 l -20.25505,21.13076 20.25139,-20.09938 c 11.13827,-11.05466 20.94087,-21.12718 21.78356,-22.3834 z m 18.01244,11.42011 c -7.42136,-7.78851 -13.92219,-14.16093 -14.44628,-14.16093 -0.52409,0 3.66555,4.63157 9.3103,10.29239 9.55512,9.58229 10.26746,10.54352 10.32502,13.93252 0.0558,3.28812 0.15771,3.44135 1.05322,1.58452 1.25439,-2.60095 1.73204,-2.57597 4.3666,0.2284 1.18015,1.25621 2.31196,2.28402 2.51512,2.28402 0.20317,0 -5.70262,-6.37242 -13.12398,-14.16092 z"
       id="path1381"
       transform="matrix(0.12,0,0,0.12,-36.815557,-39.146968)" />
    <path
       style="opacity:1;fill:#d32f2f;fill-opacity:1;stroke:none;stroke-width:0.920917"
       d="m 371.80034,510.23973 c -17.21909,-3.37768 -37.16395,-14.61962 -49.44215,-27.86813 -8.58046,-9.25856 -16.05331,-22.3287 -20.58509,-36.00369 -2.44986,-7.39264 -2.57572,-8.59951 -2.62013,-25.12423 -0.0384,-14.2787 0.2546,-18.41218 1.65126,-23.297 2.7486,-9.6132 10.93945,-25.61714 16.89216,-33.00525 2.98532,-3.70518 20.28196,-21.53715 38.43698,-39.62659 l 33.00911,-32.88989 34.99267,35.17391 c 19.24596,19.34565 36.9225,37.91054 39.2812,41.25532 9.89634,14.03362 15.0141,29.05716 15.84265,46.50722 1.10587,23.2903 -4.50034,41.97348 -18.1276,60.41189 -12.98946,17.57541 -35.21821,31.15174 -56.50392,34.51006 -7.03659,1.11018 -27.08093,1.08355 -32.82714,-0.0436 z m 22.94113,-85.7722 c -53.82565,-0.45663 -56.98763,-0.57387 -57.86678,-2.14558 -0.88641,-1.58471 -0.98517,-1.58706 -2.10885,-0.0503 -0.85691,1.1719 -2.81168,1.7162 -7.15727,1.9929 l -5.97838,0.38067 -0.39044,-2.61436 c -0.38231,-2.55992 -0.39329,-2.55253 -0.52732,0.35486 l -0.13689,2.96924 65.55138,-0.20218 65.55137,-0.20218 z m -65.02985,-9.88616 c -1.25621,-0.84789 -3.38316,-2.6133 -4.72654,-3.92313 -2.39411,-2.33431 -2.45272,-2.34354 -2.95676,-0.46608 -0.28282,1.05349 -0.51354,2.53213 -0.51271,3.28586 0.001,1.10778 0.1508,1.13485 0.78052,0.14123 0.63603,-1.00357 1.51379,-0.89195 4.78245,0.60823 4.93121,2.26319 5.59373,2.35224 2.63304,0.35389 z m 8.6336,-16.47862 c -3.32895,-2.90556 -9.39003,-7.46494 -9.92362,-7.46494 -1.36815,0 0.70134,1.99749 5.22732,5.04547 4.42786,2.9819 6.65566,4.12963 4.6963,2.41947 z m 112.07603,-4.96774 c -0.9023,-0.89558 -1.00723,-0.79064 -0.51144,0.51143 0.34309,0.90102 0.85394,1.40808 1.13523,1.12678 0.2813,-0.28129 5.9e-4,-1.01848 -0.62379,-1.63821 z m -3.7678,-6.49657 c 0,-0.18971 -0.71947,-0.90918 -1.59881,-1.59881 -1.44904,-1.13641 -1.48136,-1.1041 -0.34495,0.34494 1.19351,1.52184 1.94376,2.00581 1.94376,1.25387 z m -2.74082,-3.60704 c 0,-0.16365 -1.13059,-1.29424 -2.51243,-2.51242 l -2.51242,-2.21487 2.21487,2.51242 c 2.07014,2.34823 2.80998,2.93139 2.80998,2.21487 z m -101.29396,-8.61013 c 1.13641,-1.44903 1.10409,-1.48135 -0.34494,-0.34494 -0.87935,0.68964 -1.59881,1.4091 -1.59881,1.59882 0,0.75193 0.75024,0.26796 1.94375,-1.25388 z m 94.8987,1.25388 c 0,-0.18972 -0.71947,-0.90918 -1.59881,-1.59882 -1.44904,-1.13641 -1.48136,-1.10409 -0.34495,0.34494 1.19351,1.52184 1.94376,2.00581 1.94376,1.25388 z M 383.93288,331.5888 c 6.11982,-7.23431 0.54144,-1.80253 -17.24787,16.79464 l -19.00779,19.87098 16.82663,-16.79464 c 9.25464,-9.23705 17.99771,-18.17899 19.42903,-19.87098 z m 20.07763,9.26148 c -6.94669,-7.28377 -13.03446,-13.24507 -13.52838,-13.24732 -0.49391,-0.002 3.51454,4.42219 8.90768,9.8321 8.66037,8.68731 9.8091,10.20796 9.83476,13.01892 0.0275,3.00951 0.10271,3.08531 1.38242,1.39287 1.33669,-1.76781 1.3782,-1.765 3.37159,0.2284 1.11003,1.11003 2.16316,2.01824 2.34027,2.01824 0.1771,0 -5.36165,-5.95944 -12.30834,-13.24321 z"
       id="path1383"
       transform="matrix(0.12,0,0,0.12,-36.815557,-39.146968)" />
    <path
       style="opacity:1;fill:#d32f2f;fill-opacity:1;stroke:none;stroke-width:0.920917"
       d="m 370.36718,509.877 c -17.53439,-3.87625 -35.81868,-14.35172 -48.00899,-27.5054 -8.58046,-9.25856 -16.05331,-22.3287 -20.58509,-36.00369 -2.4527,-7.40122 -2.57502,-8.58033 -2.60639,-25.12423 -0.0393,-20.75124 0.68234,-24.11391 8.64428,-40.2781 6.93073,-14.07064 9.15196,-16.62205 49.24429,-56.56435 l 32.09639,-31.97628 35.44711,35.63071 c 21.12852,21.23796 37.03286,37.98565 39.3728,41.4606 5.09197,7.56188 10.37306,18.89917 12.81775,27.51681 2.74673,9.6823 3.46992,28.6565 1.51762,39.81738 -2.99875,17.14325 -12.26653,34.91961 -24.77179,47.51434 -13.80099,13.89973 -31.21195,23.12664 -48.90768,25.91856 -8.18099,1.29074 -27.62679,1.0601 -34.2603,-0.40635 z m 21.17663,-85.40809 c -50.73248,-0.4573 -53.79126,-0.57743 -54.66915,-2.14696 -0.88638,-1.58471 -0.98514,-1.58706 -2.10882,-0.0503 -0.85668,1.17159 -2.81112,1.71616 -7.15094,1.9925 -5.68678,0.36211 -5.99161,0.27722 -6.38129,-1.77689 -0.37476,-1.97542 -0.41972,-1.9455 -0.53365,0.35527 l -0.12442,2.51243 62.35375,-0.2008 62.35375,-0.20079 z m -64.73039,-12.20122 c -4.05302,-3.11373 -5.09642,-2.873 -5.24607,1.21033 -0.0396,1.07958 0.1114,1.11554 0.71134,0.16945 0.62371,-0.98357 1.32405,-0.95571 3.86885,0.15387 4.80759,2.09621 4.95345,1.76027 0.66588,-1.53365 z m 9.29346,-15.61465 c 0,-0.78699 -7.41383,-6.21479 -7.86819,-5.76045 -0.26128,0.26128 1.2994,1.73144 3.46817,3.26704 4.19131,2.96763 4.40002,3.08591 4.40002,2.49341 z m 114.31437,-3.51803 c -0.9023,-0.89558 -1.00723,-0.79064 -0.51144,0.51143 0.34309,0.90102 0.85394,1.40808 1.13523,1.12678 0.2813,-0.28129 5.9e-4,-1.01848 -0.62379,-1.63821 z m -6.50862,-10.12127 c 0,-0.17336 -0.92503,-1.09839 -2.05562,-2.05561 l -2.05562,-1.74042 1.74041,2.05562 c 1.63556,1.93178 2.37083,2.47153 2.37083,1.74041 z m -63.17331,-48.2199 c 2.68977,-2.95227 4.70656,-5.36777 4.48175,-5.36777 -0.22482,0 -8.14438,8.1197 -17.59903,18.04376 -13.8789,14.56798 -14.74222,15.60198 -4.48175,5.36777 6.9897,-6.9718 14.90926,-15.09149 17.59903,-18.04376 z m 33.23812,17.06869 c 1.13857,0.95313 -2.65778,-3.1759 -8.43635,-9.17561 -5.77857,-5.99972 -11.5343,-11.70796 -12.79052,-12.68498 -1.25621,-0.97702 1.93,2.5092 7.08047,7.74715 8.21633,8.35589 9.36804,9.91368 9.39353,12.70557 0.0272,2.97981 0.11338,3.07059 1.35589,1.42847 1.30331,-1.7225 1.3635,-1.72286 3.39698,-0.0206 z"
       id="path1385"
       transform="matrix(0.12,0,0,0.12,-36.815557,-39.146968)" />
    <path
       style="opacity:1;fill:#d32f2f;fill-opacity:1;stroke:none;stroke-width:0.920917"
       d="m 367.6965,509.38394 c -8.21768,-2.08655 -21.64481,-8.17954 -29.46822,-13.37214 -16.44677,-10.91616 -29.60655,-28.83035 -36.46844,-49.64389 -2.43546,-7.38726 -2.56182,-8.61155 -2.59313,-25.12423 -0.0392,-20.67653 0.67078,-24.00679 8.56999,-40.19875 6.80852,-13.95625 9.0182,-16.49413 49.31858,-56.6437 l 32.09639,-31.97628 35.44711,35.63071 c 21.12852,21.23796 37.03286,37.98565 39.3728,41.4606 5.09197,7.56188 10.37306,18.89917 12.81775,27.51681 2.77961,9.79821 3.47106,28.64873 1.47055,40.09015 -2.96945,16.98298 -12.20822,34.63552 -24.72472,47.24157 -11.22932,11.30967 -23.30009,18.663 -38.85799,23.67176 -6.98264,2.24801 -9.3778,2.53464 -23.75381,2.84274 -13.76273,0.29495 -16.99571,0.0868 -23.22686,-1.49535 z m 13.79749,-84.90954 c -41.01007,-0.45984 -43.7467,-0.59186 -44.61946,-2.15245 -0.88625,-1.5847 -0.98501,-1.58705 -2.10869,-0.0503 -0.85633,1.1711 -2.81028,1.7161 -7.14136,1.99189 -5.2283,0.33291 -6.01632,0.17037 -6.39973,-1.32008 -0.36108,-1.40363 -0.45571,-1.34163 -0.54323,0.35587 l -0.10598,2.05563 52.30406,-0.19531 52.30406,-0.19531 z m -51.78237,-9.51754 c 0,-0.1916 -1.48351,-1.4799 -3.29668,-2.86287 -3.38272,-2.58012 -4.89781,-2.15198 -4.89781,1.38403 0,1.08262 0.15993,1.11821 0.76156,0.16945 0.62371,-0.98357 1.32405,-0.95571 3.86885,0.15387 3.78557,1.65059 3.56408,1.57878 3.56408,1.15552 z m 6.39526,-18.30382 c 0,-0.20902 -1.6445,-1.6825 -3.65444,-3.2744 -2.00993,-1.5919 -3.65443,-2.50432 -3.65443,-2.0276 0,0.47673 1.54171,1.92549 3.42603,3.21948 3.73104,2.56217 3.88284,2.64358 3.88284,2.08252 z m 107.80575,-13.6393 c 0,-0.17336 -0.92503,-1.09839 -2.05562,-2.05561 l -2.05562,-1.74042 1.74041,2.05562 c 1.63556,1.93178 2.37083,2.47153 2.37083,1.74041 z m -78.5703,-32.11788 c 4.24893,-4.27111 7.51977,-7.76566 7.26853,-7.76566 -0.25125,0 -3.93321,3.49455 -8.18213,7.76566 -4.24893,4.27112 -7.51977,7.76567 -7.26853,7.76567 0.25124,0 3.9332,-3.49455 8.18213,-7.76567 z m 47.44684,-0.0376 c 2.13718,1.32085 0.61862,-0.34598 -7.47419,-8.20396 -5.53425,-5.37365 -6.32212,-5.98947 -2.28402,-1.78524 5.16161,5.37397 6.16928,6.9347 6.19361,9.59289 0.0267,2.91988 0.13185,3.03903 1.30963,1.4844 0.70431,-0.92967 1.71905,-1.41931 2.25497,-1.08809 z m -33.36312,-14.68724 c 2.97245,-3.20726 5.22175,-5.83138 4.99846,-5.83138 -0.2233,0 -3.05455,2.67231 -6.29166,5.93846 -3.23712,3.26614 -5.48642,5.89027 -4.99846,5.83138 0.48797,-0.0589 3.31922,-2.73119 6.29166,-5.93846 z"
       id="path1387"
       transform="matrix(0.12,0,0,0.12,-36.815557,-39.146968)" />
    <path
       style="opacity:1;fill:#d32f2f;fill-opacity:1;stroke:none;stroke-width:0.920917"
       d="m 367.64801,509.3725 c -9.33355,-2.36878 -24.54959,-9.63665 -32.47328,-15.51072 -7.53205,-5.58373 -17.24864,-15.73829 -21.66374,-22.64019 -4.61372,-7.21242 -10.7772,-20.59242 -12.71136,-27.59451 -1.2989,-4.70232 -1.64593,-9.45667 -1.66712,-22.8402 -0.032,-20.20402 0.72566,-23.7133 8.58023,-39.74195 6.84065,-13.95958 9.09018,-16.54197 49.34254,-56.6437 l 32.09639,-31.97628 35.44711,35.63071 c 19.76374,19.86611 37.07762,38.05604 39.13235,41.11237 7.74658,11.52274 13.2398,25.03364 14.8318,36.47967 4.19598,30.16801 -4.74505,58.28926 -25.02777,78.71709 -8.60214,8.66368 -15.83301,13.73011 -27.32587,19.1463 -12.69589,5.98313 -17.05728,6.88872 -35.28593,7.32669 -13.87435,0.33336 -16.95159,0.13964 -23.27535,-1.46528 z m 5.65425,-84.89598 c -27.38229,-0.38019 -35.60055,-0.75783 -36.15844,-1.66154 -0.57757,-0.93559 -1.25605,-0.89103 -3.39189,0.22277 -3.26894,1.7047 -11.91641,1.8846 -12.57133,0.26155 -0.27528,-0.68223 -0.48985,-0.49832 -0.53293,0.45681 -0.0679,1.50412 2.53841,1.58737 44.00946,1.40562 l 44.08159,-0.1932 z m -43.59064,-9.59516 c 0,-0.23312 -1.52245,-1.4584 -3.38323,-2.72283 -2.51549,-1.70932 -3.56637,-2.01067 -4.09725,-1.17495 -0.98745,1.55447 -0.9194,2.71191 0.12162,2.06853 0.47499,-0.29356 2.22226,0.0597 3.88283,0.78516 3.72108,1.6255 3.47603,1.55189 3.47603,1.04409 z m 3.68894,-20.62624 c -1.73971,-1.48704 -3.55551,-2.7037 -4.0351,-2.7037 -1.09687,0 -0.50046,0.59453 3.27272,3.26243 4.17284,2.95049 4.54705,2.67624 0.76238,-0.55873 z m 30.57136,-41.98884 c 2.98345,-3.01491 5.21889,-5.48165 4.96765,-5.48165 -0.25125,0 -2.89781,2.46674 -5.88126,5.48165 -2.98344,3.0149 -5.21889,5.48164 -4.96764,5.48164 0.25124,0 2.8978,-2.46674 5.88125,-5.48164 z m 48.81725,-1.40798 c 2.03165,1.25563 0.8038,-0.18727 -4.27055,-5.01849 -2.88472,-2.7465 -3.91253,-3.53513 -2.28402,-1.75251 2.11712,2.31747 2.9692,4.13999 2.98997,6.39525 0.0268,2.90223 0.13133,3.01914 1.30963,1.46384 0.70431,-0.92967 1.71905,-1.41931 2.25497,-1.08809 z m -33.28591,-15.03697 c 1.96265,-2.00994 3.36289,-3.65443 3.11165,-3.65443 -0.25124,0 -2.06261,1.64449 -4.02526,3.65443 -1.96265,2.00994 -3.3629,3.65443 -3.11165,3.65443 0.25124,0 2.06261,-1.64449 4.02526,-3.65443 z"
       id="path1389"
       transform="matrix(0.12,0,0,0.12,-36.815557,-39.146968)" />
    <path
       style="opacity:1;fill:#d32f2f;fill-opacity:1;stroke:none;stroke-width:0.920917"
       d="m 371.28067,510.3663 c -11.1403,-2.39664 -27.3607,-9.84351 -36.64331,-16.82313 -6.37363,-4.79235 -16.13109,-14.84982 -20.33561,-20.96088 -4.04075,-5.87304 -9.70568,-17.50039 -12.61956,-25.90187 -2.38503,-6.87665 -2.4861,-7.91723 -2.51499,-25.89354 -0.0292,-18.20042 0.042,-18.93412 2.52368,-25.99855 4.06557,-11.57308 11.08843,-24.32191 17.45485,-31.68636 3.19724,-3.69845 20.24396,-21.1115 37.8816,-38.69566 l 32.06844,-31.9712 29.7815,29.68718 c 44.36704,44.22652 48.13961,48.80792 55.29099,67.14511 3.70172,9.49175 5.30374,18.70068 5.3432,30.7146 0.0948,28.85722 -12.14903,54.46207 -34.55837,72.26995 -7.41392,5.89157 -23.96104,14.38704 -32.55994,16.71663 -6.29981,1.70672 -35.12146,2.68659 -41.11248,1.39772 z m -6.20104,-85.88111 c -20.69002,-0.38065 -27.38719,-0.78106 -27.93598,-1.67021 -0.57743,-0.93559 -1.2559,-0.89102 -3.39172,0.22277 -3.1924,1.66478 -12.26278,1.91455 -12.26278,0.33768 0,-0.58622 -0.24673,-0.81914 -0.54829,-0.51758 -2.18946,2.18946 2.45368,2.48769 36.00452,2.31255 l 35.34839,-0.18451 z M 327.4276,412.97892 c -2.91402,-2.40346 -5.0602,-2.59585 -5.75287,-0.51574 -0.24584,0.73828 -0.0118,1.01527 0.55951,0.66218 0.54017,-0.33385 2.34078,-0.0135 4.00135,0.71191 4.18554,1.8284 4.32647,1.72691 1.19201,-0.85835 z m 5.93845,-18.68667 c -1.75869,-1.48042 -3.57449,-2.70273 -4.0351,-2.71625 -1.06835,-0.0313 -0.42352,0.59996 3.30723,3.23785 4.18371,2.95817 4.54996,2.69571 0.72787,-0.5216 z m 31.06268,-42.48278 c 1.70459,-1.75869 2.8937,-3.19763 2.64245,-3.19763 -0.25124,0 -1.85147,1.43894 -3.55606,3.19763 -1.7046,1.7587 -2.8937,3.19763 -2.64246,3.19763 0.25124,0 1.85147,-1.43893 3.55607,-3.19763 z m 47.0582,-0.79048 c 1.05397,-1.05397 0.72828,-1.72655 -2.10141,-4.33964 -1.84177,-1.70079 -2.63798,-2.23773 -1.76934,-1.1932 0.86863,1.04454 1.57934,2.99738 1.57934,4.33964 0,2.74724 0.48488,2.99973 2.29141,1.1932 z m -31.98367,-15.19766 c 0.90948,-1.00497 1.44804,-1.82721 1.1968,-1.82721 -0.25124,0 -1.20093,0.82224 -2.11041,1.82721 -0.90948,1.00497 -1.44805,1.82722 -1.1968,1.82722 0.25124,0 1.20092,-0.82225 2.11041,-1.82722 z"
       id="path1391"
       transform="matrix(0.12,0,0,0.12,-36.815557,-39.146968)" />
    <path
       style="opacity:1;fill:#d32f2f;fill-opacity:1;stroke:none;stroke-width:0.920917"
       d="m 369.37089,509.93781 c -14.05206,-3.20813 -30.82758,-12.20385 -41.62062,-22.31869 -12.22954,-11.46107 -20.0392,-23.72214 -26.11561,-41.00118 -2.40881,-6.84976 -2.49755,-7.76755 -2.49755,-25.83106 0,-18.16226 0.0773,-18.94893 2.55377,-25.99855 4.06557,-11.57308 11.08843,-24.32191 17.45485,-31.68636 3.19724,-3.69845 20.24396,-21.1115 37.8816,-38.69566 l 32.06844,-31.9712 29.78572,29.68718 c 38.56963,38.44202 44.48461,45.06788 50.34908,56.40016 7.75938,14.99393 10.29347,25.30065 10.30587,41.91635 0.0273,36.59111 -19.57227,67.16354 -53.22579,83.02427 -12.81193,6.03819 -17.12883,6.937 -35.38729,7.36784 -11.56408,0.27287 -17.52784,0.0258 -21.55247,-0.8931 z m -9.6943,-85.444 c -15.28555,-0.35952 -21.98294,-0.83877 -22.77278,-1.62958 -0.88354,-0.88462 -1.40242,-0.88462 -2.46673,0 -0.74131,0.61616 -3.85508,1.36593 -6.91948,1.66617 -3.06441,0.30024 7.78987,0.52942 24.12061,0.5093 l 29.69226,-0.0365 -21.65388,-0.5093 z m -32.7058,-11.9428 c -2.52926,-1.99325 -4.64985,-2.02842 -5.29606,-0.0878 -0.23786,0.71429 -0.008,1.01309 0.52513,0.68343 0.52126,-0.32217 1.91075,-0.19989 3.08775,0.27172 3.47465,1.39225 4.12509,1.05709 1.68318,-0.86732 z m 5.93846,-18.68725 c -2.54296,-2.08443 -4.11124,-2.82647 -4.11124,-1.94525 0,0.42708 5.71737,4.16492 6.39526,4.18103 0.25124,0.006 -0.77657,-1.00014 -2.28402,-2.23578 z m 78.50813,-43.13534 c 0.35385,-0.92212 -0.0833,-2.21127 -1.09181,-3.21979 -1.63349,-1.6335 -1.6711,-1.58922 -1.30603,1.53786 0.40287,3.45091 1.43988,4.17831 2.39784,1.68193 z"
       id="path1393"
       transform="matrix(0.12,0,0,0.12,-36.815557,-39.146968)" />
    <path
       style="opacity:1;fill:#d32f2f;fill-opacity:1;stroke:none;stroke-width:0.920917"
       d="m 369.45357,509.93929 c -14.48998,-3.32955 -30.69274,-12.00149 -41.7033,-22.32017 -12.23515,-11.46632 -20.06137,-23.75669 -26.1086,-41.00118 -2.38783,-6.80921 -2.49147,-7.85563 -2.51323,-25.37426 -0.0207,-16.66009 0.16664,-18.87668 2.12331,-25.12422 2.36978,-7.56659 8.72575,-20.79754 13.12146,-27.31437 1.56003,-2.31281 19.00278,-20.44449 38.76166,-40.29262 l 35.92523,-36.08752 29.80356,29.69226 c 38.56684,38.42282 44.49882,45.06597 50.36691,56.40524 7.75938,14.99393 10.29347,25.30065 10.30587,41.91635 0.0273,36.59111 -19.57227,67.16354 -53.22579,83.02427 -12.93528,6.09634 -17.14646,6.97461 -35.38729,7.38026 -11.45337,0.2547 -17.54292,-0.002 -21.46979,-0.90404 z m -15.71408,-85.43138 c -10.55982,-0.35173 -16.08153,-0.89085 -16.83433,-1.64368 -0.84395,-0.84395 -1.43036,-0.8629 -2.37756,-0.0768 -0.69152,0.57391 -2.77747,1.33909 -4.63546,1.70041 -1.85798,0.36136 6.28326,0.63145 18.09164,0.60024 l 21.46979,-0.0567 -15.71408,-0.5234 z m -26.7687,-11.9435 c -2.73511,-2.13944 -4.19496,-2.29 -4.88057,-0.50334 -0.33215,0.8656 -0.0689,1.1554 0.76038,0.83716 0.69761,-0.2677 2.01283,-0.0537 2.92269,0.47555 2.79959,1.62847 3.61207,1.07932 1.1975,-0.80937 z m 5.93846,-18.70065 c -2.54296,-2.08443 -4.11124,-2.82647 -4.11124,-1.94525 0,0.42708 5.71737,4.16492 6.39526,4.18103 0.25124,0.006 -0.77657,-1.00014 -2.28402,-2.23578 z m 78.50612,-43.1301 c 0.33271,-0.86705 -0.0216,-2.14232 -0.81587,-2.9366 -1.2629,-1.2629 -1.40398,-1.1089 -1.40398,1.53262 0,3.13902 1.25054,3.92995 2.21985,1.40398 z"
       id="path1395"
       transform="matrix(0.12,0,0,0.12,-36.815557,-39.146968)" />
    <path
       style="opacity:1;fill:#d32f2f;fill-opacity:1;stroke:none;stroke-width:0.920917"
       d="m 369.36193,509.93135 c -7.81635,-1.77769 -18.62186,-6.25704 -27.26572,-11.30283 -10.03436,-5.85747 -24.94703,-20.78897 -30.87105,-30.91003 -5.60006,-9.56756 -10.43159,-22.15931 -11.74972,-30.62164 -1.65197,-10.60561 -0.5989,-33.53207 1.90318,-41.43419 2.3535,-7.43286 8.53837,-20.26211 12.83829,-26.63038 1.64599,-2.43776 19.16951,-20.67168 38.94115,-40.51981 l 35.94842,-36.08752 35.47853,35.63071 c 35.45436,35.60645 39.90661,40.73221 46.02662,52.98927 6.47798,12.97396 8.91344,23.8538 8.92481,39.86943 0.0215,30.28106 -14.54321,57.99114 -39.32695,74.82145 -7.09763,4.81992 -20.63837,11.27742 -27.82662,13.27037 -7.57296,2.09962 -35.2408,2.69461 -43.02094,0.92517 z M 350.2678,424.41814 c -6.5323,-0.35155 -12.56238,-0.93222 -13.40018,-1.29038 -0.85056,-0.3636 -2.66617,-0.0318 -4.11123,0.75141 -2.40447,1.30314 -1.45431,1.39464 13.40017,1.29038 l 15.98814,-0.11221 z m -23.75381,-11.85373 c -2.94687,-1.95163 -4.11124,-2.26033 -4.11124,-1.08997 0,0.40548 1.13059,1.18399 2.51243,1.73002 3.97013,1.5688 4.57091,1.32829 1.59881,-0.64005 z m 6.85206,-17.7035 c 0,-0.18971 -0.71947,-0.90917 -1.59881,-1.59881 -1.44904,-1.13641 -1.48135,-1.1041 -0.34494,0.34494 1.19351,1.52184 1.94375,2.00581 1.94375,1.25387 z m 78.03031,-44.28726 c 0.2648,-0.42845 -0.10899,-1.55904 -0.83064,-2.51242 -1.24321,-1.64241 -1.31361,-1.60151 -1.34115,0.77902 -0.0279,2.41136 1.16457,3.36312 2.17179,1.7334 z"
       id="path1397"
       transform="matrix(0.12,0,0,0.12,-36.815557,-39.146968)" />
    <path
       style="opacity:1;fill:#d32f2f;fill-opacity:1;stroke:none;stroke-width:0.920917"
       d="m 369.26873,509.91233 c -26.45999,-6.00761 -50.74986,-25.76514 -62.74088,-51.0338 -6.54858,-13.79983 -7.4221,-18.28289 -7.4221,-38.09165 0,-16.13311 0.20233,-18.46237 2.14276,-24.66742 2.43234,-7.77807 8.52922,-20.51266 12.9684,-27.08718 1.64599,-2.43776 19.16951,-20.67168 38.94115,-40.51981 l 35.94842,-36.08752 35.47853,35.63071 c 19.98445,20.07018 37.08407,38.02465 39.15494,41.11237 8.00969,11.9427 13.14264,24.67546 14.96121,37.11265 1.48851,10.18006 0.61841,28.58529 -1.7778,37.60567 -5.40749,20.35606 -19.91989,40.8622 -36.84252,52.05877 -7.07679,4.68224 -21.02334,11.27428 -27.68769,13.087 -7.67391,2.0873 -35.32234,2.65164 -43.12442,0.88021 z m -21.85896,-85.48385 c -5.0893,-0.36052 -9.71812,-0.94277 -10.28626,-1.29391 -1.27601,-0.78861 -4.67107,0.20591 -4.67107,1.36831 0,0.49093 5.13046,0.79462 12.10531,0.71656 l 12.10531,-0.13548 z m -21.22539,-11.89447 c -2.25859,-1.88159 -3.78163,-2.30833 -3.78163,-1.05957 0,0.40548 1.13059,1.18399 2.51243,1.73002 3.56796,1.40988 3.68936,1.34575 1.2692,-0.67045 z m 7.18167,-17.6731 c 0,-0.18971 -0.71947,-0.90917 -1.59881,-1.59881 -1.44904,-1.13641 -1.48135,-1.1041 -0.34494,0.34494 1.19351,1.52184 1.94375,2.00581 1.94375,1.25387 z m 77.89827,-44.05437 c 0.73191,-0.7319 -0.22601,-3.1083 -1.25294,-3.1083 -0.44872,0 -0.81586,0.82224 -0.81586,1.82721 0,1.78079 0.96904,2.38086 2.0688,1.28109 z"
       id="path1399"
       transform="matrix(0.12,0,0,0.12,-36.815557,-39.146968)" />
    <path
       style="opacity:1;fill:#d32f2f;fill-opacity:1;stroke:none;stroke-width:0.920917"
       d="m 367.51425,509.42735 c -31.54498,-8.27052 -56.26121,-32.13526 -66.25789,-63.97527 -1.9507,-6.21312 -2.15061,-8.50585 -2.15061,-24.6652 0,-19.76327 0.88322,-24.324 7.34205,-37.91251 6.37572,-13.41366 9.72863,-17.32123 46.64553,-54.3619 l 35.96693,-36.08752 30.71781,30.60587 c 37.46824,37.33169 43.86956,44.47777 49.35328,55.09526 8.45861,16.37743 10.91999,27.63344 10.17092,46.51205 -0.56005,14.11454 -2.52802,22.64651 -7.8365,33.97451 -9.24305,19.72417 -23.3682,34.21463 -42.64056,43.74337 -14.70105,7.26857 -22.38328,8.86212 -42.46989,8.80967 -9.02431,-0.0236 -14.07977,-0.49 -18.84107,-1.73833 z m -21.90438,-85.00456 c -3.56682,-0.37621 -7.3118,-0.9464 -8.32216,-1.26708 -1.01037,-0.32068 -2.5461,-0.31095 -3.41275,0.0217 -3.27445,1.25652 0.90098,2.14912 9.54078,2.03956 l 8.67928,-0.11006 -6.48515,-0.68403 z m -19.42549,-11.88878 c -2.25859,-1.88159 -3.78163,-2.30833 -3.78163,-1.05957 0,0.40548 1.13059,1.18399 2.51243,1.73002 3.56796,1.40988 3.68936,1.34575 1.2692,-0.67045 z m 7.18167,-17.6731 c 0,-0.18971 -0.71947,-0.90917 -1.59881,-1.59881 -1.44904,-1.13641 -1.48135,-1.1041 -0.34494,0.34494 1.19351,1.52184 1.94375,2.00581 1.94375,1.25387 z m 77.65669,-45.33546 c 0,-1.00497 -0.41113,-1.82721 -0.91361,-1.82721 -0.50249,0 -0.91361,0.82224 -0.91361,1.82721 0,1.00497 0.41112,1.82722 0.91361,1.82722 0.50248,0 0.91361,-0.82225 0.91361,-1.82722 z"
       id="path1401"
       transform="matrix(0.12,0,0,0.12,-36.815557,-39.146968)" />
    <path
       style="opacity:1;fill:#d32f2f;fill-opacity:1;stroke:none;stroke-width:0.920917"
       d="m 367.43641,509.40759 c -26.66562,-6.98865 -50.34265,-26.7642 -61.27572,-51.17877 -6.65586,-14.86314 -7.05494,-16.98116 -7.05494,-37.44194 0,-17.41164 0.15484,-19.17878 2.2014,-25.12422 4.45492,-12.94193 10.30569,-23.94876 16.75442,-31.51948 1.49805,-1.75869 18.08672,-18.64238 36.86371,-37.51929 l 34.13998,-34.32167 35.46763,35.69208 c 19.50719,19.63064 36.96221,37.76916 38.78894,40.30781 7.28487,10.12402 13.34163,24.85596 15.35803,37.35562 1.61449,10.00816 0.64811,30.09156 -1.87097,38.88296 -7.31545,25.5303 -24.45568,46.18248 -47.98368,57.81532 -14.74597,7.29077 -22.35142,8.88758 -42.01309,8.82086 -9.49395,-0.0323 -14.48775,-0.48823 -19.37571,-1.76928 z m -20.82304,-84.67534 c -1.50746,-0.19189 -4.67935,-0.73957 -7.04865,-1.21705 -2.36931,-0.4775 -5.01155,-0.59812 -5.87166,-0.26807 -2.82233,1.08302 1.34862,1.98581 8.80907,1.90669 3.76864,-0.0399 5.61869,-0.22968 4.11124,-0.42157 z m -20.9592,-12.6537 c -2.03009,-1.53548 -3.25142,-1.72132 -3.25142,-0.49474 0,0.46564 0.71947,1.03464 1.59882,1.26443 2.98705,0.7806 3.4297,0.57444 1.6526,-0.76969 z m 85.36857,-62.04238 c 0,-0.72407 -0.41113,-1.57058 -0.91361,-1.88113 -0.50249,-0.31055 -0.91361,0.28187 -0.91361,1.31649 0,1.03463 0.41112,1.88114 0.91361,1.88114 0.50248,0 0.91361,-0.59242 0.91361,-1.3165 z"
       id="path1403"
       transform="matrix(0.12,0,0,0.12,-36.815557,-39.146968)" />
    <path
       style="opacity:1;fill:#d32f2f;fill-opacity:1;stroke:none;stroke-width:0.920917"
       d="m 367.48927,509.42101 c -29.30095,-7.68126 -53.38051,-29.41366 -64.05053,-57.80722 -4.17846,-11.11915 -5.08151,-18.24233 -4.54511,-35.85175 0.36032,-11.82892 0.8288,-15.75069 2.45557,-20.55619 2.97018,-8.77396 9.52057,-21.64395 14.12615,-27.75461 2.22655,-2.95416 19.67488,-21.08284 38.77408,-40.28595 l 34.72582,-34.91475 33.33012,33.4339 c 18.33157,18.38864 35.24759,35.69508 37.59117,38.45874 7.42536,8.75638 13.12162,19.8995 17.51355,34.2603 1.3623,4.45445 1.67536,8.56325 1.67062,21.9266 -0.005,14.43874 -0.26264,17.33456 -2.11093,23.73722 -7.55036,26.15511 -24.53956,46.70871 -48.2583,58.38309 -14.60394,7.18807 -22.30965,8.79296 -41.89936,8.72648 -9.4586,-0.0321 -14.49218,-0.4895 -19.32285,-1.75586 z M 340.72763,423.9717 c -3.23715,-0.64099 -6.52614,-0.90602 -7.30886,-0.58896 -1.80607,0.73159 3.38263,1.72725 9.08336,1.74301 3.92946,0.0109 3.851,-0.0402 -1.7745,-1.15405 z m -15.07346,-11.89315 c -2.03009,-1.53548 -3.25142,-1.72132 -3.25142,-0.49474 0,0.46564 0.71947,1.03464 1.59882,1.26443 2.98705,0.7806 3.4297,0.57444 1.6526,-0.76969 z m 85.00693,-63.21927 c -0.9287,-0.9287 -1.69497,0.46949 -0.93299,1.7024 0.5756,0.93135 0.7908,0.93207 1.10026,0.004 0.21159,-0.63476 0.13632,-1.40249 -0.16727,-1.70608 z"
       id="path1405"
       transform="matrix(0.12,0,0,0.12,-36.815557,-39.146968)" />
    <path
       style="opacity:1;fill:#d32f2f;fill-opacity:1;stroke:none;stroke-width:0.920917"
       d="M 367.43641,509.40759 C 336.0859,501.1911 312.0295,478.0968 301.2259,445.84509 c -1.95633,-5.84019 -2.11702,-7.81171 -2.07968,-25.51501 0.0371,-17.57773 0.21533,-19.6835 2.12687,-25.12423 3.1419,-8.94266 9.67222,-21.74435 14.06309,-27.56854 2.15,-2.85183 19.58782,-21.04375 38.75071,-40.42648 l 34.84161,-35.24133 33.33406,33.57442 c 18.33375,18.46593 35.26029,35.8356 37.61454,38.59926 7.31656,8.58891 13.58832,20.81016 17.58185,34.2603 1.29899,4.37495 1.62641,8.80176 1.62176,21.9266 -0.005,14.37294 -0.26873,17.36583 -2.09248,23.75381 -2.75777,9.6596 -9.87599,24.1261 -15.54333,31.58899 -13.01004,17.13198 -34.55313,30.79135 -54.04945,34.27001 -10.47087,1.86829 -31.88245,1.58145 -39.95904,-0.5353 z m -27.2183,-85.38231 c -2.51242,-0.61191 -5.18472,-0.8827 -5.93845,-0.60175 -1.72812,0.64416 2.83774,1.71538 7.30886,1.71476 2.90474,-3.9e-4 2.77921,-0.10234 -1.37041,-1.11301 z m -14.56394,-11.94673 c -2.03009,-1.53548 -3.25142,-1.72132 -3.25142,-0.49474 0,0.46564 0.71947,1.03464 1.59882,1.26443 2.98705,0.7806 3.4297,0.57444 1.6526,-0.76969 z m 85.00693,-63.21927 c -0.9287,-0.9287 -1.69497,0.46949 -0.93299,1.7024 0.5756,0.93135 0.7908,0.93207 1.10026,0.004 0.21159,-0.63476 0.13632,-1.40249 -0.16727,-1.70608 z"
       id="path1407"
       transform="matrix(0.12,0,0,0.12,-36.815557,-39.146968)" />
    <path
       style="opacity:1;fill:#d32f2f;fill-opacity:1;stroke:none;stroke-width:0.920917"
       d="m 370.28375,510.3507 c -2.05582,-0.43948 -7.49989,-2.21214 -12.09794,-3.93923 -27.0765,-10.17034 -47.27161,-31.64412 -56.95991,-60.56638 -1.94302,-5.80046 -2.12015,-7.89398 -2.12015,-25.05821 0,-15.61201 0.28044,-19.64125 1.68509,-24.21061 2.5697,-8.35933 10.09499,-23.06273 15.19669,-29.69227 2.51343,-3.26614 19.9753,-21.56115 38.80416,-40.65555 l 34.23429,-34.71711 12.95845,13.24732 c 7.12715,7.28602 23.2932,23.73097 35.92456,36.54432 24.35056,24.70139 29.19746,30.80506 34.73391,43.74015 4.86879,11.37521 6.04972,16.79019 6.62239,30.36601 0.84436,20.01641 -1.92992,32.7596 -10.65259,48.93084 -11.284,20.91982 -30.56642,36.57401 -54.39234,44.15771 -5.44764,1.73397 -8.89966,2.08127 -23.297,2.34383 -9.29596,0.16954 -18.58379,-0.0514 -20.63961,-0.49082 z m -28.69523,-85.90939 c -0.75372,-0.4871 -3.0149,-0.83018 -5.02484,-0.76239 l -3.65443,0.12322 4.11123,0.63917 c 2.26118,0.35155 4.52236,0.69463 5.02485,0.7624 0.50248,0.0678 0.29692,-0.2753 -0.45681,-0.7624 z M 325.14358,412.1076 c -0.62554,-0.75372 -1.60091,-1.35733 -2.16749,-1.34136 -0.56657,0.016 -0.2321,0.63268 0.74329,1.37042 2.27824,1.72317 2.86842,1.71113 1.4242,-0.0291 z m 85.51752,-63.24832 c -0.9287,-0.9287 -1.69497,0.46949 -0.93299,1.7024 0.5756,0.93135 0.7908,0.93207 1.10026,0.004 0.21159,-0.63476 0.13632,-1.40249 -0.16727,-1.70608 z"
       id="path1409"
       transform="matrix(0.12,0,0,0.12,-36.815557,-39.146968)" />
    <path
       style="opacity:1;fill:#d32f2f;fill-opacity:1;stroke:none;stroke-width:0.920917"
       d="m 370.28375,510.34599 c -6.87849,-1.46178 -20.38284,-7.03013 -27.99693,-11.54418 -9.87234,-5.85288 -24.35861,-20.10713 -30.37914,-29.89258 -5.9076,-9.60191 -11.13866,-22.5915 -12.42285,-30.84798 -1.64784,-10.59453 -0.62191,-35.42864 1.77204,-42.89471 2.90451,-9.0584 10.45074,-23.18045 16.01799,-29.97616 2.73592,-3.33962 20.00097,-21.28362 38.36679,-39.87554 l 33.39239,-33.8035 16.18013,16.44495 c 61.5626,62.57015 61.17352,62.12514 67.56165,77.27199 4.74084,11.24097 5.92231,16.73572 6.48947,30.18086 0.84183,19.9564 -1.73784,32.14344 -10.15186,47.96018 -11.552,21.7155 -30.53671,37.32888 -54.89307,45.14508 -5.48752,1.76101 -8.79427,2.09302 -23.297,2.33912 -9.29596,0.15775 -18.58379,-0.0706 -20.63961,-0.50753 z m -30.74019,-86.5324 c -0.87349,-0.22867 -2.51799,-0.23696 -3.65443,-0.0184 -1.13645,0.21852 -0.42178,0.40562 1.58816,0.41576 2.00994,0.0101 2.93976,-0.16866 2.06627,-0.39733 z M 325.14358,412.1076 c -0.62554,-0.75372 -1.60091,-1.35733 -2.16749,-1.34136 -0.56657,0.016 -0.2321,0.63268 0.74329,1.37042 2.27824,1.72317 2.86842,1.71113 1.4242,-0.0291 z m 85.51752,-63.24832 c -0.9287,-0.9287 -1.69497,0.46949 -0.93299,1.7024 0.5756,0.93135 0.7908,0.93207 1.10026,0.004 0.21159,-0.63476 0.13632,-1.40249 -0.16727,-1.70608 z"
       id="path1411"
       transform="matrix(0.12,0,0,0.12,-36.815557,-39.146968)" />
    <path
       style="opacity:1;fill:#d32f2f;fill-opacity:1;stroke:none;stroke-width:0.920917"
       d="m 371.73759,510.6068 c -1.25621,-0.20814 -4.92662,-1.209 -8.15646,-2.22413 -27.11336,-8.5217 -48.54757,-28.34743 -59.55836,-55.08896 -4.66417,-11.32771 -5.6892,-18.7261 -5.13662,-37.07487 0.35792,-11.88482 0.85956,-16.33941 2.37072,-21.0523 2.90141,-9.04872 10.4475,-23.17564 16.01217,-29.97616 2.73272,-3.33962 19.99136,-21.28362 38.35253,-39.87554 l 33.38394,-33.8035 15.80506,16.00997 c 59.84246,60.61832 61.6109,62.64024 67.96525,77.70697 4.74084,11.24097 5.92231,16.73572 6.48947,30.18086 0.84183,19.9564 -1.73784,32.14344 -10.15186,47.96018 -5.25183,9.8724 -10.7188,16.91815 -19.16845,24.70398 -11.90291,10.96779 -29.43428,19.90291 -43.54212,22.19188 -5.59511,0.9078 -29.80805,1.14641 -34.66527,0.34162 z m -32.6441,-86.76476 c -0.61854,-0.25026 -1.85191,-0.26549 -2.74082,-0.0339 -0.88892,0.23163 -0.38284,0.43639 1.12462,0.45501 1.50745,0.0186 2.23474,-0.1709 1.6162,-0.42117 z m -13.96823,-11.75652 c -0.63562,-0.76587 -1.39352,-1.15463 -1.68423,-0.86392 -0.2907,0.2907 0.0762,0.91103 0.8154,1.37849 1.93408,1.22315 2.18679,1.07348 0.86883,-0.51457 z m 85.89748,-62.10326 c 0,-0.75373 -0.39823,-1.37042 -0.88494,-1.37042 -0.48671,0 -0.64829,0.61669 -0.35906,1.37042 0.28924,0.75372 0.68745,1.37041 0.88494,1.37041 0.19748,0 0.35906,-0.61669 0.35906,-1.37041 z"
       id="path1413"
       transform="matrix(0.12,0,0,0.12,-36.815557,-39.146968)" />
    <path
       style="opacity:1;fill:#d32f2f;fill-opacity:1;stroke:none;stroke-width:0.920917"
       d="m 371.73759,510.6068 c -1.25621,-0.20814 -4.95632,-1.21688 -8.22247,-2.24164 -27.08676,-8.4986 -48.464,-28.28729 -59.49235,-55.07145 -4.66417,-11.32771 -5.6892,-18.7261 -5.13662,-37.07487 0.35792,-11.88482 0.85956,-16.33941 2.37072,-21.0523 2.89182,-9.01882 10.43743,-23.16066 15.99426,-29.97616 2.72288,-3.33962 19.97335,-21.28362 38.33438,-39.87554 l 33.3837,-33.8035 16.76056,16.90175 c 55.23881,55.70416 60.20757,61.33753 66.52993,75.42888 4.87218,10.85919 6.4677,18.03234 7.02142,31.56717 0.79954,19.54342 -1.53523,31.01553 -9.55449,46.94691 -9.90103,19.66976 -28.25341,35.99218 -49.39861,43.93464 -4.4212,1.66067 -10.68753,3.44919 -13.92516,3.97449 -5.59511,0.9078 -29.80805,1.14641 -34.66527,0.34162 z m -33.13733,-86.71746 c -0.30358,-0.30359 -1.09157,-0.33604 -1.75108,-0.0721 -0.72881,0.29165 -0.51233,0.50813 0.55197,0.55197 0.9631,0.0396 1.5027,-0.17626 1.19911,-0.47985 z m 72.13296,-74.53519 c -0.29164,-0.72881 -0.50813,-0.51233 -0.55196,0.55197 -0.0396,0.9631 0.17625,1.5027 0.47984,1.19911 0.30359,-0.30358 0.33604,-1.09157 0.0721,-1.75108 z"
       id="path1415"
       transform="matrix(0.12,0,0,0.12,-36.815557,-39.146968)" />
    <path
       style="opacity:1;fill:#d32f2f;fill-opacity:1;stroke:none;stroke-width:0.920917"
       d="m 367.16955,509.51132 c -17.36303,-5.02825 -28.80861,-11.59366 -41.32676,-23.70584 -11.18622,-10.82344 -18.66163,-22.8205 -24.57372,-39.43757 -1.94839,-5.47634 -2.11477,-7.43147 -2.13806,-25.12423 -0.0211,-16.05544 0.24812,-20.08014 1.6503,-24.66741 2.59874,-8.50191 10.00795,-23.13449 15.03468,-29.69227 2.5036,-3.26614 19.95212,-21.56115 38.77449,-40.65555 31.81851,-32.27837 34.33901,-34.62084 35.88099,-33.3467 0.91216,0.75373 17.1258,17.21438 36.0303,36.57922 35.25235,36.1108 40.19751,41.98787 45.75793,54.381 4.87218,10.85919 6.4677,18.03234 7.02142,31.56717 0.79954,19.54342 -1.53523,31.01553 -9.55449,46.94691 -9.37997,18.6346 -26.40312,34.39655 -46.1129,42.69651 -11.66402,4.91182 -14.62983,5.43233 -33.14718,5.81747 -14.99771,0.31194 -18.1662,0.12715 -23.297,-1.35871 z m -28.56929,-85.62198 c -0.30358,-0.30359 -1.09157,-0.33604 -1.75108,-0.0721 -0.72881,0.29165 -0.51233,0.50813 0.55197,0.55197 0.9631,0.0396 1.5027,-0.17626 1.19911,-0.47985 z"
       id="path1417"
       transform="matrix(0.12,0,0,0.12,-36.815557,-39.146968)" />
    <path
       style="opacity:1;fill:#d32f2f;fill-opacity:1;stroke:none;stroke-width:0.920917"
       d="m 368.53996,510.00633 c -28.50435,-7.35345 -52.16208,-27.69602 -63.84992,-54.90265 -5.40992,-12.59306 -6.28728,-18.3632 -5.77359,-37.97123 0.37199,-14.19893 0.75528,-17.77834 2.39683,-22.3834 3.19033,-8.94987 9.70531,-21.64393 14.09173,-27.45689 2.25483,-2.98815 19.71654,-21.26126 38.80381,-40.60691 l 34.70412,-35.17391 4.30041,4.11124 c 2.36523,2.26118 18.57012,18.74017 36.01088,36.61998 33.33735,34.1766 38.46766,40.40532 43.76927,53.14036 4.52879,10.87865 5.74584,16.68888 6.28948,30.02622 0.79672,19.54609 -1.53855,31.01843 -9.55635,46.94691 -11.11147,22.07445 -32.62506,39.64506 -57.33348,46.82545 -6.3697,1.85106 -37.5983,2.43844 -43.85319,0.82483 z"
       id="path1419"
       transform="matrix(0.12,0,0,0.12,-36.815557,-39.146968)" />
    <path
       style="opacity:1;fill:#d32f2f;fill-opacity:1;stroke:none;stroke-width:0.920917"
       d="m 366.47185,509.44804 c -29.62558,-8.00091 -54.0131,-31.27964 -64.84685,-61.89854 -2.45104,-6.92726 -2.51925,-7.6519 -2.51925,-26.76262 0,-16.77199 0.24925,-20.37691 1.70555,-24.66742 2.90308,-8.553 10.23192,-23.04625 14.55601,-28.78545 2.26871,-3.01117 19.78704,-21.30311 38.92963,-40.64876 l 34.8047,-35.17391 32.02535,32.43309 c 17.61395,17.83819 34.57155,35.41944 37.68359,39.06943 14.63486,17.16476 20.63268,33.78896 20.70088,57.37682 0.0487,16.84536 -2.25705,26.82992 -9.58567,41.50856 -9.5015,19.03074 -26.38338,34.76117 -46.31206,43.15332 -11.65925,4.90981 -14.63275,5.43208 -33.14718,5.82206 -15.13051,0.3187 -18.21033,0.1356 -23.9947,-1.42658 z"
       id="path1421"
       transform="matrix(0.12,0,0,0.12,-36.815557,-39.146968)" />
  </g>
</svg>
