<?xml version="1.0" encoding="UTF-8" standalone="no"?>
<svg
   xmlns:osb="http://www.openswatchbook.org/uri/2009/osb"
   xmlns:dc="http://purl.org/dc/elements/1.1/"
   xmlns:cc="http://creativecommons.org/ns#"
   xmlns:rdf="http://www.w3.org/1999/02/22-rdf-syntax-ns#"
   xmlns:svg="http://www.w3.org/2000/svg"
   xmlns="http://www.w3.org/2000/svg"
   id="Capa_1"
   enable-background="new 0 0 505.136 505.136"
   height="512"
   viewBox="0 0 505.136 505.136"
   width="512"
   version="1.1">
  <metadata
     id="metadata1030">
    <rdf:RDF>
      <cc:Work
         rdf:about="">
        <dc:format>image/svg+xml</dc:format>
        <dc:type
           rdf:resource="http://purl.org/dc/dcmitype/StillImage" />
        <dc:title></dc:title>
      </cc:Work>
    </rdf:RDF>
  </metadata>
  <defs
     id="defs1028">
    <linearGradient
       id="linearGradient1639"
       osb:paint="solid">
      <stop
         style="stop-color:#0065cc;stop-opacity:1;"
         offset="0"
         id="stop1637" />
    </linearGradient>
  </defs>
  <path
     style="fill:#000007;fill-opacity:1;stroke-width:1.25658"
     d="m 116.24343,472.85228 c -12.18615,-3.00654 -20.809215,-12.20082 -25.220956,-26.89164 -4.340262,-14.45283 -5.827012,-24.26866 -5.876803,-38.8 -0.10329,-30.147 9.315433,-53.44293 30.813619,-76.21336 l 7.71142,-8.16779 -0.38752,-25.46182 -0.38755,-25.46182 -5.89537,-3.01292 C 101.19136,260.76358 79.729361,242.46217 66.236391,225.55481 55.663211,212.3061 52.494217,205.4957 52.438877,195.90297 c -0.10979,-19.03887 13.805134,-33.33776 32.442698,-33.33776 12.40103,0 21.499155,4.79982 28.454595,15.01153 5.88997,8.64743 19.48193,22.35624 27.77354,28.01235 9.51794,6.49262 22.971,12.62151 34.08089,15.52646 13.07075,3.41766 38.21559,3.1764 51.1795,-0.49104 21.69352,-6.13703 39.57278,-17.84496 54.82098,-35.89861 11.57551,-13.70524 18.28496,-17.59002 30.33874,-17.5662 9.37789,0.0185 15.15378,2.13746 21.84813,8.01517 11.06135,9.712 14.34158,26.10392 7.85183,39.23714 -7.54608,15.27096 -32.25478,39.00719 -54.26185,52.12629 -5.9771,3.56313 -11.34048,6.64854 -11.91861,6.85645 -0.57812,0.2079 -1.17658,11.58314 -1.32988,25.27829 l -0.27872,24.90028 7.61096,7.77088 c 14.29121,14.59145 24.80526,33.89003 28.78989,52.84401 5.39663,25.67055 -0.70368,64.788 -12.12755,77.76619 -6.76111,7.68102 -14.68492,11.41623 -24.43046,11.51627 -8.89068,0.0912 -14.40487,-1.8551 -21.63645,-7.63713 -11.14318,-8.9095 -14.26919,-22.52087 -9.19064,-40.01828 4.99432,-17.20723 3.14794,-33.72273 -4.83977,-43.29071 l -3.50326,-4.19634 -8.28512,3.31457 c -12.01921,4.80843 -25.14275,6.49058 -36.94383,4.73539 -5.25409,-0.78144 -13.2812,-2.91237 -17.83805,-4.73539 l -8.28512,-3.31457 -3.50326,4.19634 c -7.98771,9.56798 -9.83408,26.08348 -4.83978,43.29071 3.56598,12.28602 3.35152,21.15267 -0.70868,29.30044 -3.24777,6.5174 -10.57915,13.49131 -17.10833,16.27416 -5.03086,2.14423 -14.76119,2.84322 -20.35784,1.46242 z m 94.64283,-104.88581 c 16.91503,-3.98715 31.20479,-15.11878 38.79337,-30.21979 5.01478,-9.97926 6.56055,-18.10935 6.56055,-34.50607 v -13.76056 h -57.8028 -57.8028 v 13.76056 c 0,7.56832 0.64129,16.75707 1.4251,20.41946 3.60301,16.83551 15.21616,31.84974 30.43598,39.34958 13.98151,6.88962 24.45433,8.24183 38.3906,4.95682 z M 184.61497,198.99425 c -37.59345,-6.46774 -66.55523,-40.9114 -66.55523,-79.15284 0,-43.860065 36.51759,-80.377657 80.37764,-80.377657 29.79256,0 58.47485,17.654099 71.45239,43.979285 11.91033,24.160392 11.88382,48.521822 -0.0792,72.758392 -15.17109,30.73605 -50.91616,48.6904 -85.19563,42.79282 z"
     id="path957" />
  <ellipse
     style="opacity:1;fill:#0065cc;fill-opacity:1;stroke:#0065cc;stroke-width:1.98899;stroke-miterlimit:4;stroke-dasharray:none;stroke-opacity:1"
     id="path1593"
     cx="354.03839"
     cy="406.47662"
     rx="97.664871"
     ry="97.664879" />
  <g
     id="g3380"
     transform="translate(-18.406617,16.725734)">
    <g
       id="text860"
       style="font-style:normal;font-weight:normal;font-size:39.4637px;line-height:1.25;font-family:sans-serif;fill:#000000;fill-opacity:1;stroke:none;stroke-width:0.986594" />
  </g>
  <g
     aria-label="1"
     id="text1062-9"
     style="font-style:normal;font-weight:normal;font-size:39.4637px;line-height:1.25;font-family:sans-serif;opacity:0.8;fill:#333333;fill-opacity:1;stroke:none;stroke-width:0.986594"
     transform="translate(42.504619)">
    <path
       d="m 270.88165,454.85055 h 31.44767 v -89.2559 l -32.28011,6.65951 v -24.23321 l 32.09513,-6.6595 h 33.85249 v 113.4891 h 31.44768 v 24.60319 h -96.56286 z"
       style="font-style:normal;font-variant:normal;font-weight:bold;font-stretch:normal;font-size:189.426px;font-family:sans-serif;-inkscape-font-specification:'sans-serif Bold';fill:#333333;stroke-width:0.986594"
       id="path25" />
  </g>
  <g
     aria-label="1"
     id="text1062"
     style="font-style:normal;font-weight:normal;font-size:39.4637px;line-height:1.25;font-family:sans-serif;fill:#000000;fill-opacity:1;stroke:none;stroke-width:0.986594"
     transform="translate(42.504619)">
    <path
       d="m 267.10624,450.91959 h 31.44768 v -89.25591 l -32.28012,6.65951 v -24.23321 l 32.09513,-6.6595 h 33.8525 v 113.48911 h 31.44767 v 24.60318 h -96.56286 z"
       style="font-style:normal;font-variant:normal;font-weight:bold;font-stretch:normal;font-size:189.426px;font-family:sans-serif;-inkscape-font-specification:'sans-serif Bold';fill:#ffffff;stroke-width:0.986594"
       id="path28" />
  </g>
</svg>
