<?xml version="1.0" encoding="UTF-8" standalone="no"?>
<svg
   xmlns:osb="http://www.openswatchbook.org/uri/2009/osb"
   xmlns:dc="http://purl.org/dc/elements/1.1/"
   xmlns:cc="http://creativecommons.org/ns#"
   xmlns:rdf="http://www.w3.org/1999/02/22-rdf-syntax-ns#"
   xmlns:svg="http://www.w3.org/2000/svg"
   xmlns="http://www.w3.org/2000/svg"
   id="Capa_1"
   enable-background="new 0 0 505.136 505.136"
   height="512"
   viewBox="0 0 505.136 505.136"
   width="512"
   version="1.1">
  <metadata
     id="metadata1030">
    <rdf:RDF>
      <cc:Work
         rdf:about="">
        <dc:format>image/svg+xml</dc:format>
        <dc:type
           rdf:resource="http://purl.org/dc/dcmitype/StillImage" />
        <dc:title></dc:title>
      </cc:Work>
    </rdf:RDF>
  </metadata>
  <defs
     id="defs1028">
    <linearGradient
       id="linearGradient1639"
       osb:paint="solid">
      <stop
         style="stop-color:#0065cc;stop-opacity:1;"
         offset="0"
         id="stop1637" />
    </linearGradient>
  </defs>
  <path
     style="fill:#000000;stroke-width:1.47243"
     d="m 173.27767,471.60931 c -6.08428,-2.16991 -10.60191,-5.69334 -13.29081,-10.36592 -1.13583,-1.97374 -1.9497,-17.51989 -2.44039,-46.61488 -0.90493,-53.6569 0.80668,-49.84607 -22.38785,-49.84607 -17.18057,0 -21.21111,-1.15862 -27.51833,-7.91044 -2.39497,-2.56378 -3.72448,-6.02982 -4.14847,-10.81507 -0.60349,-6.81113 0.24579,-8.61161 25.8947,-54.89625 25.31534,-45.68259 30.27802,-55.95244 27.03788,-55.95244 -0.79273,0 -10.8023,11.18322 -22.24351,24.85163 -12.62145,15.07837 -22.39561,25.4471 -24.85401,26.36578 -8.32668,3.11165 -9.66054,3.25357 -15.584893,1.6583 -12.574454,-3.38596 -20.447269,-17.93763 -17.035416,-31.48727 1.649419,-6.55042 3.432047,-8.83784 51.708459,-66.35079 14.5586,-17.34403 26.13,-25.40364 44.63632,-31.08969 7.30272,-2.24375 13.89843,-2.70273 38.97521,-2.71203 19.32121,-0.007 33.04879,0.66315 38.14225,1.8625 11.72563,2.76099 25.32359,9.7404 33.76635,17.33117 9.42241,8.47156 60.42809,68.90426 63.90022,75.71038 10.28869,20.16834 -9.19321,44.33371 -28.76269,35.67719 -5.15946,-2.28226 -10.59116,-7.76799 -26.70749,-26.97295 -11.12696,-13.2594 -20.93507,-24.36241 -21.79577,-24.67334 -4.2658,-1.54098 2.45593,12.64554 26.28231,55.47008 15.50689,27.8715 26.23174,48.77053 26.6064,51.84671 0.81209,6.66765 -3.18355,14.40215 -9.6832,18.74421 -4.46788,2.98472 -6.79162,3.34232 -21.71842,3.34232 -24.38667,0 -22.605,-3.78495 -22.605,48.02176 0,40.74929 -0.1069,42.32219 -3.25691,47.92689 -6.91682,12.30683 -22.80693,16.1192 -34.61515,8.3049 -10.39393,-6.87838 -10.71828,-8.59605 -10.71828,-56.76184 0,-39.41765 -0.20223,-42.80096 -2.69271,-45.05485 -3.38171,-3.06043 -6.73797,-3.10291 -9.71784,-0.12315 -1.9947,1.99477 -2.31383,8.07381 -2.31383,44.07725 0,25.86596 -0.59486,43.3412 -1.56274,45.9084 -2.32416,6.16469 -10.12078,13.54976 -16.04116,15.1945 -6.66439,1.85141 -8.40742,1.7752 -15.25523,-0.66702 z m 25.83586,-331.35375 c -10.82208,-3.04407 -15.87724,-5.91142 -24.28187,-13.77297 -10.24505,-9.58306 -16.08294,-21.70371 -16.97278,-35.23899 -0.38723,-5.890103 -1.18543,-11.00678 -1.77379,-11.370401 -2.63379,-1.627778 -16.80677,7.553988 -24.09911,15.612301 l -7.90715,8.73768 -5.12101,-5.668345 C 108.57369,87.060824 102.04831,68.129553 105.9547,60.830411 c 1.00409,-1.876184 4.57492,-4.986571 7.93516,-6.91199 5.38229,-3.084047 7.94981,-3.496729 21.57009,-3.466978 12.49744,0.02734 16.74705,0.622512 22.17306,3.105624 l 6.7125,3.071865 7.43672,-8.281749 c 20.60342,-22.94454 53.42851,-25.068953 78.11102,-5.055284 3.41518,2.769152 7.28752,6.859923 8.6052,9.090605 l 2.39579,4.055785 9.80029,-3.340407 c 23.90671,-8.148559 51.85917,-0.584841 51.72968,13.997647 -0.0744,8.39285 -13.12647,33.048781 -18.60838,35.152401 -1.36104,0.52227 -4.73447,-1.90755 -9.06342,-6.528175 -7.09297,-7.570933 -16.15482,-14.086449 -21.98793,-15.809456 -3.11714,-0.92076 -3.31296,-0.553388 -3.31296,6.215544 0,14.788017 -7.79673,32.082567 -18.83119,41.770947 -13.45987,11.81792 -35.02977,16.99348 -51.5068,12.35877 z"
     id="path967" />
  <ellipse
     style="opacity:1;fill:#0065cc;fill-opacity:1;stroke:#0065cc;stroke-width:1.98899;stroke-miterlimit:4;stroke-dasharray:none;stroke-opacity:1"
     id="path1593"
     cx="330.56812"
     cy="406.47662"
     rx="97.664871"
     ry="97.664879" />
  <g
     id="g3380"
     transform="translate(-18.406617,16.725734)">
    <g
       id="text860"
       style="font-style:normal;font-weight:normal;font-size:39.4637px;line-height:1.25;font-family:sans-serif;fill:#000000;fill-opacity:1;stroke:none;stroke-width:0.986594" />
  </g>
  <g
     aria-label="1"
     id="text1062-9"
     style="font-style:normal;font-weight:normal;font-size:39.4637px;line-height:1.25;font-family:sans-serif;opacity:0.8;fill:#333333;fill-opacity:1;stroke:none;stroke-width:0.986594"
     transform="translate(19.03434)">
    <path
       d="m 270.88165,454.85055 h 31.44767 v -89.2559 l -32.28011,6.65951 v -24.23321 l 32.09513,-6.6595 h 33.85249 v 113.4891 h 31.44768 v 24.60319 h -96.56286 z"
       style="font-style:normal;font-variant:normal;font-weight:bold;font-stretch:normal;font-size:189.426px;font-family:sans-serif;-inkscape-font-specification:'sans-serif Bold';fill:#333333;stroke-width:0.986594"
       id="path25" />
  </g>
  <g
     aria-label="1"
     id="text1062"
     style="font-style:normal;font-weight:normal;font-size:39.4637px;line-height:1.25;font-family:sans-serif;fill:#000000;fill-opacity:1;stroke:none;stroke-width:0.986594"
     transform="translate(19.03434)">
    <path
       d="m 267.10624,450.91959 h 31.44768 v -89.25591 l -32.28012,6.65951 v -24.23321 l 32.09513,-6.6595 h 33.8525 v 113.48911 h 31.44767 v 24.60318 h -96.56286 z"
       style="font-style:normal;font-variant:normal;font-weight:bold;font-stretch:normal;font-size:189.426px;font-family:sans-serif;-inkscape-font-specification:'sans-serif Bold';fill:#ffffff;stroke-width:0.986594"
       id="path28" />
  </g>
</svg>
