<?xml version="1.0" encoding="UTF-8" standalone="no"?>
<svg
   xmlns:osb="http://www.openswatchbook.org/uri/2009/osb"
   xmlns:dc="http://purl.org/dc/elements/1.1/"
   xmlns:cc="http://creativecommons.org/ns#"
   xmlns:rdf="http://www.w3.org/1999/02/22-rdf-syntax-ns#"
   xmlns:svg="http://www.w3.org/2000/svg"
   xmlns="http://www.w3.org/2000/svg"
   xmlns:sodipodi="http://sodipodi.sourceforge.net/DTD/sodipodi-0.dtd"
   xmlns:inkscape="http://www.inkscape.org/namespaces/inkscape"
   id="Capa_1"
   enable-background="new 0 0 505.136 505.136"
   height="512"
   viewBox="0 0 505.136 505.136"
   width="512"
   version="1.1"
   sodipodi:docname="adult_trauma_2.svg">
  <sodipodi:namedview
     pagecolor="#ffffff"
     bordercolor="#666666"
     borderopacity="1"
     objecttolerance="10"
     gridtolerance="10"
     guidetolerance="10"
     inkscape:pageopacity="0"
     inkscape:pageshadow="2"
     inkscape:window-width="640"
     inkscape:window-height="480"
     id="namedview21" />
  <metadata
     id="metadata1030">
    <rdf:RDF>
      <cc:Work
         rdf:about="">
        <dc:format>image/svg+xml</dc:format>
        <dc:type
           rdf:resource="http://purl.org/dc/dcmitype/StillImage" />
        <dc:title />
      </cc:Work>
    </rdf:RDF>
  </metadata>
  <defs
     id="defs1028">
    <linearGradient
       id="linearGradient1639"
       osb:paint="solid">
      <stop
         style="stop-color:#0065cc;stop-opacity:1;"
         offset="0"
         id="stop1637" />
    </linearGradient>
  </defs>
  <g
     id="g1023"
     transform="matrix(1.0255553,0,0,0.93749814,-58.019738,9.3749814e-4)">
    <path
       d="M 312.029,123.191 H 193.086 c -22.299,0.027 -40.37,18.098 -40.397,40.397 v 146.748 c 0,7.859 6.371,14.229 14.229,14.229 7.859,0 14.229,-6.371 14.229,-14.229 V 190.154 c 0,-4.365 3.539,-7.904 7.904,-7.904 4.365,0 7.904,3.539 7.904,7.904 v 287.583 c 0.455,13.163 11.495,23.465 24.658,23.011 12.525,-0.433 22.578,-10.486 23.011,-23.011 V 313.495 c 0,-4.365 3.539,-7.904 7.904,-7.904 4.365,0 7.904,3.539 7.904,7.904 v 164.243 c 0.455,13.163 11.495,23.465 24.658,23.011 12.525,-0.433 22.578,-10.486 23.011,-23.011 V 190.154 c 0,-4.365 3.539,-7.904 7.904,-7.904 4.365,0 7.904,3.539 7.904,7.904 v 120.181 c 0,7.859 6.371,14.229 14.229,14.229 7.859,0 14.229,-6.371 14.229,-14.229 v -146.74 c -0.021,-22.28 -18.058,-40.345 -40.338,-40.404 z"
       id="path1015" />
    <path
       d="M 284.303,505.136 C 269.178,505.12 256.92,492.863 256.904,477.737 V 313.495 c 0,-2.403 -1.948,-4.351 -4.351,-4.351 -2.403,0 -4.351,1.948 -4.351,4.351 v 164.243 c -0.345,15.128 -12.888,27.112 -28.016,26.767 -14.643,-0.334 -26.434,-12.125 -26.767,-26.767 V 190.154 c 0,-2.401 -1.946,-4.347 -4.347,-4.347 -2.401,0 -4.347,1.946 -4.347,4.347 v 120.181 c 0,9.823 -7.963,17.787 -17.787,17.787 -9.824,0 -17.787,-7.963 -17.787,-17.787 v -146.74 c 0.027,-24.264 19.691,-43.927 43.955,-43.955 h 118.922 c 24.264,0.027 43.927,19.691 43.955,43.955 v 146.741 c 0,9.823 -7.963,17.787 -17.787,17.787 -9.824,0 -17.787,-7.963 -17.787,-17.787 V 190.154 c 0,-2.401 -1.946,-4.347 -4.347,-4.347 -2.401,0 -4.347,1.946 -4.347,4.347 v 287.583 c -0.018,15.13 -12.282,27.387 -27.412,27.399 z M 252.557,302.033 c 6.327,0.008 11.454,5.135 11.462,11.462 v 164.243 c 0.297,11.199 9.615,20.036 20.814,19.74 10.781,-0.286 19.454,-8.958 19.74,-19.74 V 190.154 c 0,-6.33 5.132,-11.462 11.462,-11.462 6.33,0 11.462,5.132 11.462,11.462 v 120.181 c 0,5.894 4.778,10.672 10.672,10.672 5.894,0 10.672,-4.778 10.672,-10.672 v -146.74 c -0.024,-20.336 -16.504,-36.816 -36.84,-36.84 H 193.086 c -20.336,0.024 -36.816,16.504 -36.84,36.84 v 146.741 c 0,5.894 4.778,10.672 10.672,10.672 5.894,0 10.672,-4.778 10.672,-10.672 V 190.154 c 0,-6.33 5.132,-11.462 11.462,-11.462 6.33,0 11.462,5.132 11.462,11.462 v 287.583 c 0.297,11.199 9.615,20.036 20.814,19.74 10.781,-0.286 19.454,-8.958 19.74,-19.74 V 313.495 c 0.007,-6.338 5.151,-11.47 11.489,-11.462 z"
       id="path1017" />
    <path
       id="circle1019"
       d="M 298.90901,49.902 A 46.352001,46.352001 0 0 1 252.55701,96.254002 46.352001,46.352001 0 0 1 206.20501,49.902 46.352001,46.352001 0 0 1 252.55701,3.5499992 46.352001,46.352001 0 0 1 298.90901,49.902 Z" />
    <path
       d="m 252.557,99.819 c -27.564,0 -49.91,-22.345 -49.91,-49.91 0,-27.564 22.345,-49.91 49.91,-49.91 27.562,0 49.906,22.341 49.91,49.902 -0.027,27.556 -22.355,49.887 -49.91,49.918 z m 0,-92.711 c -23.635,0 -42.795,19.16 -42.795,42.795 0,23.635 19.16,42.795 42.795,42.795 23.635,0 42.795,-19.16 42.795,-42.795 C 295.325,26.279 276.181,7.135 252.557,7.108 Z"
       id="path1021" />
  </g>
  <ellipse
     style="opacity:1;fill:#0065cc;fill-opacity:1;stroke:#0065cc;stroke-width:1.98899;stroke-miterlimit:4;stroke-dasharray:none;stroke-opacity:1"
     id="path1593"
     cx="311.53378"
     cy="406.47662"
     rx="97.664871"
     ry="97.664879" />
  <g
     id="g3380"
     transform="translate(-18.406617,16.725734)">
    <g
       id="text860"
       style="font-style:normal;font-weight:normal;font-size:39.4637px;line-height:1.25;font-family:sans-serif;fill:#000000;fill-opacity:1;stroke:none;stroke-width:0.986594" />
  </g>
  <g
     aria-label="2"
     id="text1062-9"
     style="font-style:normal;font-weight:normal;font-size:39.4637px;line-height:1.25;font-family:sans-serif;opacity:0.8;fill:#333333;fill-opacity:1;stroke:none;stroke-width:0.986594">
    <path
       d="m 303.84004,453.61731 h 60.76801 v 26.17557 H 264.25297 v -26.17557 l 50.40877,-44.48921 q 6.752,-6.10455 9.98926,-11.93162 3.23726,-5.82707 3.23726,-12.1166 0,-9.71178 -6.56701,-15.63134 -6.47452,-5.91957 -17.29622,-5.91957 -8.32439,0 -18.22116,3.60724 -9.89677,3.51474 -21.18093,10.54422 v -30.33776 q 12.02411,-3.97721 23.77074,-6.01206 11.74663,-2.12734 23.0308,-2.12734 24.78817,0 38.47715,10.91419 13.78148,10.9142 13.78148,30.43025 0,11.28417 -5.82706,21.08845 -5.82707,9.71178 -24.51069,26.08307 z"
       style="font-style:normal;font-variant:normal;font-weight:bold;font-stretch:normal;font-size:189.426px;font-family:sans-serif;-inkscape-font-specification:'sans-serif Bold';fill:#333333;stroke-width:0.986594"
       id="path25" />
  </g>
  <g
     aria-label="2"
     id="text1062"
     style="font-style:normal;font-weight:normal;font-size:39.4637px;line-height:1.25;font-family:sans-serif;fill:#000000;fill-opacity:1;stroke:none;stroke-width:0.986594">
    <path
       d="m 298.87764,450.50336 h 60.768 v 26.17556 H 259.29056 v -26.17556 l 50.40878,-44.48921 q 6.752,-6.10455 9.98926,-11.93162 3.23726,-5.82707 3.23726,-12.1166 0,-9.71178 -6.56702,-15.63135 -6.47452,-5.91956 -17.29622,-5.91956 -8.32438,0 -18.22115,3.60723 -9.89677,3.51474 -21.18093,10.54422 v -30.33775 q 12.02411,-3.97721 23.77074,-6.01206 11.74663,-2.12734 23.0308,-2.12734 24.78816,0 38.47715,10.91419 13.78148,10.9142 13.78148,30.43025 0,11.28417 -5.82707,21.08844 -5.82707,9.71179 -24.51069,26.08307 z"
       style="font-style:normal;font-variant:normal;font-weight:bold;font-stretch:normal;font-size:189.426px;font-family:sans-serif;-inkscape-font-specification:'sans-serif Bold';fill:#ffffff;stroke-width:0.986594"
       id="path28" />
  </g>
</svg>
