<?xml version="1.0" encoding="UTF-8" standalone="no"?>
<svg
   xmlns:osb="http://www.openswatchbook.org/uri/2009/osb"
   xmlns:dc="http://purl.org/dc/elements/1.1/"
   xmlns:cc="http://creativecommons.org/ns#"
   xmlns:rdf="http://www.w3.org/1999/02/22-rdf-syntax-ns#"
   xmlns:svg="http://www.w3.org/2000/svg"
   xmlns="http://www.w3.org/2000/svg"
   xmlns:sodipodi="http://sodipodi.sourceforge.net/DTD/sodipodi-0.dtd"
   xmlns:inkscape="http://www.inkscape.org/namespaces/inkscape"
   id="Capa_1"
   enable-background="new 0 0 505.136 505.136"
   height="512"
   viewBox="0 0 505.136 505.136"
   width="512"
   version="1.1"
   sodipodi:docname="warning_3.svg"
   inkscape:version="1.0.1 (c497b03c, 2020-09-10)">
  <sodipodi:namedview
     pagecolor="#ffffff"
     bordercolor="#666666"
     borderopacity="1"
     objecttolerance="10"
     gridtolerance="10"
     guidetolerance="10"
     inkscape:pageopacity="0"
     inkscape:pageshadow="2"
     inkscape:window-width="1440"
     inkscape:window-height="900"
     id="namedview864"
     showgrid="false"
     inkscape:zoom="1.1582031"
     inkscape:cx="256"
     inkscape:cy="256"
     inkscape:window-x="0"
     inkscape:window-y="0"
     inkscape:window-maximized="0"
     inkscape:current-layer="Capa_1" />
  <metadata
     id="metadata1030">
    <rdf:RDF>
      <cc:Work
         rdf:about="">
        <dc:format>image/svg+xml</dc:format>
        <dc:type
           rdf:resource="http://purl.org/dc/dcmitype/StillImage" />
        <dc:title />
      </cc:Work>
    </rdf:RDF>
  </metadata>
  <defs
     id="defs1028">
    <linearGradient
       id="linearGradient1639"
       osb:paint="solid">
      <stop
         style="stop-color:#0065cc;stop-opacity:1;"
         offset="0"
         id="stop1637" />
    </linearGradient>
  </defs>
  <g
     id="g1036"
     transform="matrix(0.88639321,0,0,0.88639321,-1.0362772e-4,16.515649)"
     style="fill:#f2bb05;fill-opacity:1">
    <g
       id="g979"
       style="fill:#f2bb05;fill-opacity:1">
      <g
         id="g977"
         style="fill:#f2bb05;fill-opacity:1">
        <path
           d="M 501.362,383.95 320.497,51.474 C 291.438,2.553 220.601,2.488 191.503,51.474 L 10.647,383.95 c -29.706,49.989 6.259,113.291 64.482,113.291 h 361.736 c 58.174,0 94.203,-63.251 64.497,-113.291 z M 256,437.241 c -16.538,0 -30,-13.462 -30,-30 0,-16.538 13.462,-30 30,-30 16.538,0 30,13.462 30,30 0,16.538 -13.462,30 -30,30 z m 30,-120 c 0,16.538 -13.462,30 -30,30 -16.538,0 -30,-13.462 -30,-30 v -150 c 0,-16.538 13.462,-30 30,-30 16.538,0 30,13.462 30,30 z"
           id="path975"
           style="fill:#f2bb05;fill-opacity:1" />
      </g>
    </g>
    <g
       id="g981"
       style="fill:#f2bb05;fill-opacity:1" />
    <g
       id="g983"
       style="fill:#f2bb05;fill-opacity:1" />
    <g
       id="g985"
       style="fill:#f2bb05;fill-opacity:1" />
    <g
       id="g987"
       style="fill:#f2bb05;fill-opacity:1" />
    <g
       id="g989"
       style="fill:#f2bb05;fill-opacity:1" />
    <g
       id="g991"
       style="fill:#f2bb05;fill-opacity:1" />
    <g
       id="g993"
       style="fill:#f2bb05;fill-opacity:1" />
    <g
       id="g995"
       style="fill:#f2bb05;fill-opacity:1" />
    <g
       id="g997"
       style="fill:#f2bb05;fill-opacity:1" />
    <g
       id="g999"
       style="fill:#f2bb05;fill-opacity:1" />
    <g
       id="g1001"
       style="fill:#f2bb05;fill-opacity:1" />
    <g
       id="g1003"
       style="fill:#f2bb05;fill-opacity:1" />
    <g
       id="g1005"
       style="fill:#f2bb05;fill-opacity:1" />
    <g
       id="g1007"
       style="fill:#f2bb05;fill-opacity:1" />
    <g
       id="g1009"
       style="fill:#f2bb05;fill-opacity:1" />
  </g>
  <g
     id="g3380"
     transform="translate(-18.406617,16.725734)">
    <g
       id="text860"
       style="font-style:normal;font-weight:normal;font-size:39.4637px;line-height:1.25;font-family:sans-serif;fill:#000000;fill-opacity:1;stroke:none;stroke-width:0.986594" />
  </g>
  <ellipse
     style="opacity:1;fill:#d32f2f;fill-opacity:1;stroke:#d32f2f;stroke-width:1.98899;stroke-miterlimit:4;stroke-dasharray:none;stroke-opacity:1"
     id="path1593"
     cx="406.47662"
     cy="406.47662"
     rx="97.664871"
     ry="97.664879" />
  <g
     aria-label="3"
     id="text1062-9"
     style="font-style:normal;font-weight:normal;font-size:39.4637px;line-height:1.25;font-family:sans-serif;opacity:0.8;fill:#333333;fill-opacity:1;stroke:none;stroke-width:0.986594"
     transform="translate(94.942848)">
    <path
       d="m 340.68315,404.53428 q 13.96647,3.60723 21.18093,12.57907 7.30696,8.87934 7.30696,22.66082 0,20.53348 -15.72384,31.26269 -15.72383,10.63671 -45.8766,10.63671 -10.63672,0 -21.36592,-1.75737 -10.63672,-1.66487 -21.08845,-5.08712 v -27.47047 q 9.98927,4.99463 19.79354,7.58444 9.89677,2.49732 19.42357,2.49732 14.15145,0 21.6434,-4.90214 7.58443,-4.90214 7.58443,-14.05896 0,-9.43431 -7.76942,-14.24395 -7.67693,-4.90214 -22.75332,-4.90214 h -14.24395 v -22.9383 h 14.9839 q 13.4115,0 19.97852,-4.16219 6.56701,-4.25469 6.56701,-12.85655 0,-7.95441 -6.38202,-12.30159 -6.38203,-4.34718 -18.03617,-4.34718 -8.60187,0 -17.38872,1.94235 -8.78685,1.94236 -17.4812,5.73458 v -26.08307 q 10.54422,-2.95978 20.90345,-4.43967 10.35924,-1.47989 20.3485,-1.47989 26.91551,0 40.23452,8.87934 13.41151,8.78685 13.41151,26.54554 0,12.1166 -6.38203,19.88603 -6.38203,7.67693 -18.8686,10.8217 z"
       style="font-style:normal;font-variant:normal;font-weight:bold;font-stretch:normal;font-size:189.426px;font-family:sans-serif;-inkscape-font-specification:'sans-serif Bold';fill:#333333;stroke-width:0.986594"
       id="path25" />
  </g>
  <g
     aria-label="3"
     id="text1062"
     style="font-style:normal;font-weight:normal;font-size:39.4637px;line-height:1.25;font-family:sans-serif;fill:#000000;fill-opacity:1;stroke:none;stroke-width:0.986594"
     transform="translate(94.942848)">
    <path
       d="m 336.42987,400.88077 q 13.96646,3.60724 21.18093,12.57907 7.30696,8.87935 7.30696,22.66083 0,20.53348 -15.72384,31.26269 -15.72383,10.63671 -45.8766,10.63671 -10.63672,0 -21.36593,-1.75737 -10.63671,-1.66488 -21.08844,-5.08712 v -27.47047 q 9.98927,4.99463 19.79354,7.58444 9.89677,2.49731 19.42356,2.49731 14.15146,0 21.6434,-4.90214 7.58444,-4.90213 7.58444,-14.05896 0,-9.4343 -7.76942,-14.24394 -7.67693,-4.90214 -22.75332,-4.90214 H 284.5412 v -22.9383 h 14.9839 q 13.4115,0 19.97852,-4.1622 6.56701,-4.25468 6.56701,-12.85655 0,-7.95441 -6.38203,-12.30159 -6.38202,-4.34718 -18.03616,-4.34718 -8.60187,0 -17.38872,1.94236 -8.78685,1.94236 -17.4812,5.73458 v -26.08307 q 10.54422,-2.95979 20.90345,-4.43968 10.35924,-1.47989 20.3485,-1.47989 26.91551,0 40.23452,8.87935 13.41151,8.78685 13.41151,26.54553 0,12.11661 -6.38203,19.88603 -6.38203,7.67694 -18.8686,10.8217 z"
       style="font-style:normal;font-variant:normal;font-weight:bold;font-stretch:normal;font-size:189.426px;font-family:sans-serif;-inkscape-font-specification:'sans-serif Bold';fill:#ffffff;stroke-width:0.986594"
       id="path28" />
  </g>
</svg>
