<?xml version="1.0" encoding="UTF-8" standalone="no"?>
<svg
   xmlns:osb="http://www.openswatchbook.org/uri/2009/osb"
   xmlns:dc="http://purl.org/dc/elements/1.1/"
   xmlns:cc="http://creativecommons.org/ns#"
   xmlns:rdf="http://www.w3.org/1999/02/22-rdf-syntax-ns#"
   xmlns:svg="http://www.w3.org/2000/svg"
   xmlns="http://www.w3.org/2000/svg"
   xmlns:sodipodi="http://sodipodi.sourceforge.net/DTD/sodipodi-0.dtd"
   xmlns:inkscape="http://www.inkscape.org/namespaces/inkscape"
   id="Capa_1"
   enable-background="new 0 0 505.136 505.136"
   height="512"
   viewBox="0 0 505.136 505.136"
   width="512"
   version="1.1"
   sodipodi:docname="warning_6.svg"
   inkscape:version="1.0.1 (c497b03c, 2020-09-10)">
  <sodipodi:namedview
     pagecolor="#ffffff"
     bordercolor="#666666"
     borderopacity="1"
     objecttolerance="10"
     gridtolerance="10"
     guidetolerance="10"
     inkscape:pageopacity="0"
     inkscape:pageshadow="2"
     inkscape:window-width="1440"
     inkscape:window-height="900"
     id="namedview34"
     inkscape:document-rotation="0"
     showgrid="false"
     inkscape:zoom="1.1582031"
     inkscape:cx="256"
     inkscape:cy="256"
     inkscape:window-x="0"
     inkscape:window-y="0"
     inkscape:window-maximized="0"
     inkscape:current-layer="Capa_1" />
  <metadata
     id="metadata1030">
    <rdf:RDF>
      <cc:Work
         rdf:about="">
        <dc:format>image/svg+xml</dc:format>
        <dc:type
           rdf:resource="http://purl.org/dc/dcmitype/StillImage" />
        <dc:title />
      </cc:Work>
    </rdf:RDF>
  </metadata>
  <defs
     id="defs1028">
    <linearGradient
       id="linearGradient1639"
       osb:paint="solid">
      <stop
         style="stop-color:#0065cc;stop-opacity:1;"
         offset="0"
         id="stop1637" />
    </linearGradient>
  </defs>
  <g
     id="g1036"
     transform="matrix(0.88639321,0,0,0.88639321,-1.0362772e-4,16.515649)"
     style="fill:#f2bb05;fill-opacity:1">
    <g
       id="g979"
       style="fill:#f2bb05;fill-opacity:1">
      <g
         id="g977"
         style="fill:#f2bb05;fill-opacity:1">
        <path
           d="M 501.362,383.95 320.497,51.474 C 291.438,2.553 220.601,2.488 191.503,51.474 L 10.647,383.95 c -29.706,49.989 6.259,113.291 64.482,113.291 h 361.736 c 58.174,0 94.203,-63.251 64.497,-113.291 z M 256,437.241 c -16.538,0 -30,-13.462 -30,-30 0,-16.538 13.462,-30 30,-30 16.538,0 30,13.462 30,30 0,16.538 -13.462,30 -30,30 z m 30,-120 c 0,16.538 -13.462,30 -30,30 -16.538,0 -30,-13.462 -30,-30 v -150 c 0,-16.538 13.462,-30 30,-30 16.538,0 30,13.462 30,30 z"
           id="path975"
           style="fill:#f2bb05;fill-opacity:1" />
      </g>
    </g>
    <g
       id="g981"
       style="fill:#f2bb05;fill-opacity:1" />
    <g
       id="g983"
       style="fill:#f2bb05;fill-opacity:1" />
    <g
       id="g985"
       style="fill:#f2bb05;fill-opacity:1" />
    <g
       id="g987"
       style="fill:#f2bb05;fill-opacity:1" />
    <g
       id="g989"
       style="fill:#f2bb05;fill-opacity:1" />
    <g
       id="g991"
       style="fill:#f2bb05;fill-opacity:1" />
    <g
       id="g993"
       style="fill:#f2bb05;fill-opacity:1" />
    <g
       id="g995"
       style="fill:#f2bb05;fill-opacity:1" />
    <g
       id="g997"
       style="fill:#f2bb05;fill-opacity:1" />
    <g
       id="g999"
       style="fill:#f2bb05;fill-opacity:1" />
    <g
       id="g1001"
       style="fill:#f2bb05;fill-opacity:1" />
    <g
       id="g1003"
       style="fill:#f2bb05;fill-opacity:1" />
    <g
       id="g1005"
       style="fill:#f2bb05;fill-opacity:1" />
    <g
       id="g1007"
       style="fill:#f2bb05;fill-opacity:1" />
    <g
       id="g1009"
       style="fill:#f2bb05;fill-opacity:1" />
  </g>
  <g
     id="g3380"
     transform="translate(-18.406617,16.725734)">
    <g
       id="text860"
       style="font-style:normal;font-weight:normal;font-size:39.4637px;line-height:1.25;font-family:sans-serif;fill:#000000;fill-opacity:1;stroke:none;stroke-width:0.986594" />
  </g>
  <ellipse
     style="opacity:1;fill:#d32f2f;fill-opacity:1;stroke:#d32f2f;stroke-width:1.98899;stroke-miterlimit:4;stroke-dasharray:none;stroke-opacity:1"
     id="path1593"
     cx="406.47662"
     cy="406.47662"
     rx="97.664871"
     ry="97.664879" />
  <g
     aria-label="6"
     id="text3509-0"
     style="font-style:normal;font-weight:normal;font-size:39.4637px;line-height:1.25;font-family:sans-serif;opacity:0.8;fill:#4d4d4d;fill-opacity:1;stroke:none;stroke-width:0.986594">
    <path
       d="m 452.10659,375.12145 -25.15814,2.7748 q -0.92493,-7.76943 -4.80964,-11.46915 -3.88472,-3.69973 -10.08176,-3.69973 -8.23189,0 -13.96647,7.39945 -5.64208,7.39946 -7.12197,30.80023 9.71178,-11.46916 24.14072,-11.46916 16.27879,0 27.84044,12.39409 11.65414,12.39408 11.65414,32.00263 0,20.81096 -12.2091,33.39003 -12.2091,12.57907 -31.35518,12.57907 -20.53349,0 -33.76001,-15.90882 -13.22652,-16.00132 -13.22652,-52.35113 0,-37.27475 13.78148,-53.73853 13.78148,-16.46378 35.79485,-16.46378 15.44636,0 25.52812,8.69436 10.17425,8.60186 12.94904,25.06564 z m -58.91814,56.69831 q 0,12.67156 5.82707,19.60855 5.82706,6.8445 13.31901,6.8445 7.21447,0 12.02411,-5.64209 4.80965,-5.64208 4.80965,-18.49863 0,-13.22652 -5.17962,-19.33107 -5.17962,-6.19704 -12.94904,-6.19704 -7.49195,0 -12.67157,5.91956 -5.17961,5.82707 -5.17961,17.29622 z"
       style="font-style:normal;font-variant:normal;font-weight:bold;font-stretch:normal;font-size:189.426px;font-family:Arial;-inkscape-font-specification:'Arial Bold';fill:#4d4d4d;stroke-width:0.986594"
       id="path36" />
  </g>
  <g
     aria-label="6"
     id="text3509"
     style="font-style:normal;font-weight:normal;font-size:39.4637px;line-height:1.25;font-family:sans-serif;fill:#000000;fill-opacity:1;stroke:none;stroke-width:0.986594">
    <path
       d="m 449.25472,371.00549 -25.15814,2.77479 q -0.92493,-7.76942 -4.80964,-11.46915 -3.88471,-3.69973 -10.08176,-3.69973 -8.23189,0 -13.96646,7.39946 -5.64209,7.39945 -7.12198,30.80022 9.71178,-11.46915 24.14072,-11.46915 16.27879,0 27.84044,12.39408 11.65414,12.39408 11.65414,32.00263 0,20.81097 -12.2091,33.39004 -12.2091,12.57907 -31.35518,12.57907 -20.53348,0 -33.76001,-15.90883 -13.22652,-16.00132 -13.22652,-52.35113 0,-37.27474 13.78148,-53.73852 13.78148,-16.46379 35.79486,-16.46379 15.44636,0 25.52811,8.69436 10.17425,8.60186 12.94904,25.06565 z m -58.91814,56.6983 q 0,12.67157 5.82707,19.60855 5.82707,6.8445 13.31901,6.8445 7.21447,0 12.02411,-5.64208 4.80965,-5.64209 4.80965,-18.49864 0,-13.22652 -5.17962,-19.33107 -5.17962,-6.19704 -12.94904,-6.19704 -7.49195,0 -12.67156,5.91956 -5.17962,5.82707 -5.17962,17.29622 z"
       style="font-style:normal;font-variant:normal;font-weight:bold;font-stretch:normal;font-size:189.426px;font-family:Arial;-inkscape-font-specification:'Arial Bold';fill:#ffffff;stroke-width:0.986594"
       id="path39" />
  </g>
</svg>
