<?xml version="1.0" encoding="UTF-8" standalone="no"?>
<svg
   xmlns:osb="http://www.openswatchbook.org/uri/2009/osb"
   xmlns:dc="http://purl.org/dc/elements/1.1/"
   xmlns:cc="http://creativecommons.org/ns#"
   xmlns:rdf="http://www.w3.org/1999/02/22-rdf-syntax-ns#"
   xmlns:svg="http://www.w3.org/2000/svg"
   xmlns="http://www.w3.org/2000/svg"
   xmlns:sodipodi="http://sodipodi.sourceforge.net/DTD/sodipodi-0.dtd"
   xmlns:inkscape="http://www.inkscape.org/namespaces/inkscape"
   id="Capa_1"
   enable-background="new 0 0 505.136 505.136"
   height="512"
   viewBox="0 0 505.136 505.136"
   width="512"
   version="1.1"
   sodipodi:docname="warning_5.svg"
   inkscape:version="1.0.1 (c497b03c, 2020-09-10)">
  <sodipodi:namedview
     pagecolor="#ffffff"
     bordercolor="#666666"
     borderopacity="1"
     objecttolerance="10"
     gridtolerance="10"
     guidetolerance="10"
     inkscape:pageopacity="0"
     inkscape:pageshadow="2"
     inkscape:window-width="1440"
     inkscape:window-height="900"
     id="namedview33"
     inkscape:document-rotation="0"
     showgrid="false"
     inkscape:zoom="1.1582031"
     inkscape:cx="256"
     inkscape:cy="256"
     inkscape:window-x="0"
     inkscape:window-y="0"
     inkscape:window-maximized="0"
     inkscape:current-layer="Capa_1" />
  <metadata
     id="metadata1030">
    <rdf:RDF>
      <cc:Work
         rdf:about="">
        <dc:format>image/svg+xml</dc:format>
        <dc:type
           rdf:resource="http://purl.org/dc/dcmitype/StillImage" />
        <dc:title />
      </cc:Work>
    </rdf:RDF>
  </metadata>
  <defs
     id="defs1028">
    <linearGradient
       id="linearGradient1639"
       osb:paint="solid">
      <stop
         style="stop-color:#0065cc;stop-opacity:1;"
         offset="0"
         id="stop1637" />
    </linearGradient>
  </defs>
  <g
     id="g1036"
     transform="matrix(0.88639321,0,0,0.88639321,-1.0362772e-4,16.515649)"
     style="fill:#f2bb05;fill-opacity:1">
    <g
       id="g979"
       style="fill:#f2bb05;fill-opacity:1">
      <g
         id="g977"
         style="fill:#f2bb05;fill-opacity:1">
        <path
           d="M 501.362,383.95 320.497,51.474 C 291.438,2.553 220.601,2.488 191.503,51.474 L 10.647,383.95 c -29.706,49.989 6.259,113.291 64.482,113.291 h 361.736 c 58.174,0 94.203,-63.251 64.497,-113.291 z M 256,437.241 c -16.538,0 -30,-13.462 -30,-30 0,-16.538 13.462,-30 30,-30 16.538,0 30,13.462 30,30 0,16.538 -13.462,30 -30,30 z m 30,-120 c 0,16.538 -13.462,30 -30,30 -16.538,0 -30,-13.462 -30,-30 v -150 c 0,-16.538 13.462,-30 30,-30 16.538,0 30,13.462 30,30 z"
           id="path975"
           style="fill:#f2bb05;fill-opacity:1" />
      </g>
    </g>
    <g
       id="g981"
       style="fill:#f2bb05;fill-opacity:1" />
    <g
       id="g983"
       style="fill:#f2bb05;fill-opacity:1" />
    <g
       id="g985"
       style="fill:#f2bb05;fill-opacity:1" />
    <g
       id="g987"
       style="fill:#f2bb05;fill-opacity:1" />
    <g
       id="g989"
       style="fill:#f2bb05;fill-opacity:1" />
    <g
       id="g991"
       style="fill:#f2bb05;fill-opacity:1" />
    <g
       id="g993"
       style="fill:#f2bb05;fill-opacity:1" />
    <g
       id="g995"
       style="fill:#f2bb05;fill-opacity:1" />
    <g
       id="g997"
       style="fill:#f2bb05;fill-opacity:1" />
    <g
       id="g999"
       style="fill:#f2bb05;fill-opacity:1" />
    <g
       id="g1001"
       style="fill:#f2bb05;fill-opacity:1" />
    <g
       id="g1003"
       style="fill:#f2bb05;fill-opacity:1" />
    <g
       id="g1005"
       style="fill:#f2bb05;fill-opacity:1" />
    <g
       id="g1007"
       style="fill:#f2bb05;fill-opacity:1" />
    <g
       id="g1009"
       style="fill:#f2bb05;fill-opacity:1" />
  </g>
  <g
     id="g3380"
     transform="translate(-18.406617,16.725734)">
    <g
       id="text860"
       style="font-style:normal;font-weight:normal;font-size:39.4637px;line-height:1.25;font-family:sans-serif;fill:#000000;fill-opacity:1;stroke:none;stroke-width:0.986594" />
  </g>
  <ellipse
     style="opacity:1;fill:#d32f2f;fill-opacity:1;stroke:#d32f2f;stroke-width:1.98899;stroke-miterlimit:4;stroke-dasharray:none;stroke-opacity:1"
     id="path1593"
     cx="406.47662"
     cy="406.47662"
     rx="97.664871"
     ry="97.664879" />
  <g
     aria-label="5"
     id="text3509-0"
     style="font-style:normal;font-weight:normal;font-size:39.4637px;line-height:1.25;font-family:sans-serif;opacity:0.8;fill:#4d4d4d;fill-opacity:1;stroke:none;stroke-width:0.986594">
    <path
       d="m 364.05311,440.23661 25.89808,-2.6823 q 1.10992,8.78685 6.56702,13.96647 5.45709,5.08712 12.57907,5.08712 8.1394,0 13.78148,-6.56701 5.64208,-6.65951 5.64208,-19.97852 0,-12.48658 -5.64208,-18.68362 -5.54959,-6.28954 -14.52143,-6.28954 -11.19167,0 -20.07101,9.89677 l -21.08844,-3.05227 13.31901,-70.57228 h 68.72242 v 24.3257 h -49.02138 l -4.06969,23.03079 q 8.69435,-4.34717 17.75868,-4.34717 17.29622,0 29.32033,12.57907 12.02412,12.57907 12.02412,32.65008 0,16.74126 -9.71179,29.87529 -13.22652,17.94368 -36.71978,17.94368 -18.77611,0 -30.61524,-10.08176 -11.83912,-10.08175 -14.15145,-27.1005 z"
       style="font-style:normal;font-variant:normal;font-weight:bold;font-stretch:normal;font-size:189.426px;font-family:Arial;-inkscape-font-specification:'Arial Bold';fill:#4d4d4d;stroke-width:0.986594"
       id="path35" />
  </g>
  <g
     aria-label="5"
     id="text3509"
     style="font-style:normal;font-weight:normal;font-size:39.4637px;line-height:1.25;font-family:sans-serif;fill:#000000;fill-opacity:1;stroke:none;stroke-width:0.986594">
    <path
       d="m 360.87751,437.3231 25.89809,-2.6823 q 1.10991,8.78685 6.56701,13.96647 5.4571,5.08712 12.57907,5.08712 8.1394,0 13.78148,-6.56701 5.64208,-6.65951 5.64208,-19.97853 0,-12.48657 -5.64208,-18.68361 -5.54959,-6.28954 -14.52143,-6.28954 -11.19167,0 -20.07101,9.89677 l -21.08844,-3.05228 13.31901,-70.57228 h 68.72242 v 24.3257 h -49.02137 l -4.0697,23.0308 q 8.69435,-4.34718 17.75868,-4.34718 17.29623,0 29.32034,12.57907 12.02411,12.57907 12.02411,32.65009 0,16.74126 -9.71178,29.87529 -13.22653,17.94367 -36.71979,17.94367 -18.77611,0 -30.61524,-10.08175 -11.83912,-10.08176 -14.15145,-27.1005 z"
       style="font-style:normal;font-variant:normal;font-weight:bold;font-stretch:normal;font-size:189.426px;font-family:Arial;-inkscape-font-specification:'Arial Bold';fill:#ffffff;stroke-width:0.986594"
       id="path38" />
  </g>
</svg>
