<?xml version="1.0" encoding="UTF-8" standalone="no"?>
<svg
   xmlns:osb="http://www.openswatchbook.org/uri/2009/osb"
   xmlns:dc="http://purl.org/dc/elements/1.1/"
   xmlns:cc="http://creativecommons.org/ns#"
   xmlns:rdf="http://www.w3.org/1999/02/22-rdf-syntax-ns#"
   xmlns:svg="http://www.w3.org/2000/svg"
   xmlns="http://www.w3.org/2000/svg"
   id="Capa_1"
   enable-background="new 0 0 505.136 505.136"
   height="512"
   viewBox="0 0 505.136 505.136"
   width="512"
   version="1.1">
  <metadata
     id="metadata1030">
    <rdf:RDF>
      <cc:Work
         rdf:about="">
        <dc:format>image/svg+xml</dc:format>
        <dc:type
           rdf:resource="http://purl.org/dc/dcmitype/StillImage" />
        <dc:title></dc:title>
      </cc:Work>
    </rdf:RDF>
  </metadata>
  <defs
     id="defs1028">
    <linearGradient
       id="linearGradient1639"
       osb:paint="solid">
      <stop
         style="stop-color:#0065cc;stop-opacity:1;"
         offset="0"
         id="stop1637" />
    </linearGradient>
  </defs>
  <g
     id="g1036"
     transform="matrix(0.88639321,0,0,0.88639321,25.651334,16.515649)"
     style="fill:#f2bb05;fill-opacity:1">
    <g
       id="g979"
       style="fill:#f2bb05;fill-opacity:1">
	<g
   id="g977"
   style="fill:#f2bb05;fill-opacity:1">
		<path
   d="M 501.362,383.95 320.497,51.474 C 291.438,2.553 220.601,2.488 191.503,51.474 L 10.647,383.95 c -29.706,49.989 6.259,113.291 64.482,113.291 h 361.736 c 58.174,0 94.203,-63.251 64.497,-113.291 z M 256,437.241 c -16.538,0 -30,-13.462 -30,-30 0,-16.538 13.462,-30 30,-30 16.538,0 30,13.462 30,30 0,16.538 -13.462,30 -30,30 z m 30,-120 c 0,16.538 -13.462,30 -30,30 -16.538,0 -30,-13.462 -30,-30 v -150 c 0,-16.538 13.462,-30 30,-30 16.538,0 30,13.462 30,30 z"
   id="path975"
   style="fill:#f2bb05;fill-opacity:1" />

	</g>

</g>
    <g
       id="g981"
       style="fill:#f2bb05;fill-opacity:1">
</g>
    <g
       id="g983"
       style="fill:#f2bb05;fill-opacity:1">
</g>
    <g
       id="g985"
       style="fill:#f2bb05;fill-opacity:1">
</g>
    <g
       id="g987"
       style="fill:#f2bb05;fill-opacity:1">
</g>
    <g
       id="g989"
       style="fill:#f2bb05;fill-opacity:1">
</g>
    <g
       id="g991"
       style="fill:#f2bb05;fill-opacity:1">
</g>
    <g
       id="g993"
       style="fill:#f2bb05;fill-opacity:1">
</g>
    <g
       id="g995"
       style="fill:#f2bb05;fill-opacity:1">
</g>
    <g
       id="g997"
       style="fill:#f2bb05;fill-opacity:1">
</g>
    <g
       id="g999"
       style="fill:#f2bb05;fill-opacity:1">
</g>
    <g
       id="g1001"
       style="fill:#f2bb05;fill-opacity:1">
</g>
    <g
       id="g1003"
       style="fill:#f2bb05;fill-opacity:1">
</g>
    <g
       id="g1005"
       style="fill:#f2bb05;fill-opacity:1">
</g>
    <g
       id="g1007"
       style="fill:#f2bb05;fill-opacity:1">
</g>
    <g
       id="g1009"
       style="fill:#f2bb05;fill-opacity:1">
</g>
  </g>
  <g
     id="g3380"
     transform="translate(-18.406617,16.725734)">
    <g
       id="text860"
       style="font-style:normal;font-weight:normal;font-size:39.4637px;line-height:1.25;font-family:sans-serif;fill:#000000;fill-opacity:1;stroke:none;stroke-width:0.986594" />
  </g>
</svg>
