<?xml version="1.0" encoding="UTF-8" standalone="no"?>
<svg
   xmlns:osb="http://www.openswatchbook.org/uri/2009/osb"
   xmlns:dc="http://purl.org/dc/elements/1.1/"
   xmlns:cc="http://creativecommons.org/ns#"
   xmlns:rdf="http://www.w3.org/1999/02/22-rdf-syntax-ns#"
   xmlns:svg="http://www.w3.org/2000/svg"
   xmlns="http://www.w3.org/2000/svg"
   id="Capa_1"
   enable-background="new 0 0 505.136 505.136"
   height="512"
   viewBox="0 0 505.136 505.136"
   width="512"
   version="1.1">
  <g
     id="g991"
     transform="matrix(1.0220023,0,0,0.96241496,38.044531,22.676405)">
    <g
       id="g995"
       transform="translate(-0.67525601)">
      <path
         style="fill:#000000;stroke-width:3.36835"
         d="m 148.20326,375.89933 v -74.10368 h -25.26262 c -13.89446,0 -25.248864,-0.37876 -25.232064,-0.84212 0.016,-0.46304 5.308214,-19.78904 11.758664,-42.94643 6.45044,-23.15739 11.74185,-44.38676 11.75865,-47.17631 0.016,-2.78955 -15.127,-16.8809 -33.652924,-31.31404 -48.87249,-38.0756 -48.21997,-41.04775 18.965384,-86.385242 19.35891,-13.0636 38.31864,-23.75198 42.1328,-23.75198 17.49918,0 28.27537,10.35199 63.53075,61.029852 19.45221,27.96164 37.19395,54.84709 39.4262,59.74545 8.88162,19.4902 3.68635,44.80157 -12.13458,59.11933 -8.30453,7.51549 -8.80918,15.39512 -2.35868,36.82859 l 4.7229,15.6929 H 216.92475 191.9918 v 74.10368 74.10369 h -21.89427 -21.89427 z m -21.99275,-232.6065 c -5.16354,-9.98518 -5.95599,-10.35631 -11.10933,-5.20296 -5.1533,5.15329 -4.83136,6.12472 4.51352,13.6177 11.89468,9.53761 14.2955,6.47477 6.59581,-8.41474 z m 9.82664,-87.319592 c -26.71661,-10.7947 -31.6514,-53.9924903 -8.08496,-70.77327 30.81179,-21.93993 70.02083,-0.0939 66.24028,36.90696 -2.85351,27.92761 -31.52695,44.62538 -58.15532,33.86631 z"
         id="path985" />
      <circle
         style="fill:#000007;stroke-width:1.07716"
         id="path987"
         cx="169.88571"
         cy="446.55667"
         r="21.940405" />
    </g>
  </g>
  <metadata
     id="metadata1030">
    <rdf:RDF>
      <cc:Work
         rdf:about="">
        <dc:format>image/svg+xml</dc:format>
        <dc:type
           rdf:resource="http://purl.org/dc/dcmitype/StillImage" />
        <dc:title></dc:title>
      </cc:Work>
    </rdf:RDF>
  </metadata>
  <defs
     id="defs1028">
    <linearGradient
       id="linearGradient1639"
       osb:paint="solid">
      <stop
         style="stop-color:#0065cc;stop-opacity:1;"
         offset="0"
         id="stop1637" />
    </linearGradient>
  </defs>
  <ellipse
     style="opacity:1;fill:#0065cc;fill-opacity:1;stroke:#0065cc;stroke-width:1.98899;stroke-miterlimit:4;stroke-dasharray:none;stroke-opacity:1"
     id="path1593"
     cx="314.72943"
     cy="406.47662"
     rx="97.664871"
     ry="97.664879" />
  <g
     id="g3380"
     transform="translate(-18.406617,16.725734)">
    <g
       id="text860"
       style="font-style:normal;font-weight:normal;font-size:39.4637px;line-height:1.25;font-family:sans-serif;fill:#000000;fill-opacity:1;stroke:none;stroke-width:0.986594" />
  </g>
  <g
     aria-label="3"
     id="text1062-9"
     style="font-style:normal;font-weight:normal;font-size:39.4637px;line-height:1.25;font-family:sans-serif;opacity:0.8;fill:#333333;fill-opacity:1;stroke:none;stroke-width:0.986594"
     transform="translate(4.0690172,1.3473766e-5)">
    <path
       d="m 340.68315,404.53428 q 13.96647,3.60723 21.18093,12.57907 7.30696,8.87934 7.30696,22.66082 0,20.53348 -15.72384,31.26269 -15.72383,10.63671 -45.8766,10.63671 -10.63672,0 -21.36592,-1.75737 -10.63672,-1.66487 -21.08845,-5.08712 v -27.47047 q 9.98927,4.99463 19.79354,7.58444 9.89677,2.49732 19.42357,2.49732 14.15145,0 21.6434,-4.90214 7.58443,-4.90214 7.58443,-14.05896 0,-9.43431 -7.76942,-14.24395 -7.67693,-4.90214 -22.75332,-4.90214 h -14.24395 v -22.9383 h 14.9839 q 13.4115,0 19.97852,-4.16219 6.56701,-4.25469 6.56701,-12.85655 0,-7.95441 -6.38202,-12.30159 -6.38203,-4.34718 -18.03617,-4.34718 -8.60187,0 -17.38872,1.94235 -8.78685,1.94236 -17.4812,5.73458 v -26.08307 q 10.54422,-2.95978 20.90345,-4.43967 10.35924,-1.47989 20.3485,-1.47989 26.91551,0 40.23452,8.87934 13.41151,8.78685 13.41151,26.54554 0,12.1166 -6.38203,19.88603 -6.38203,7.67693 -18.8686,10.8217 z"
       style="font-style:normal;font-variant:normal;font-weight:bold;font-stretch:normal;font-size:189.426px;font-family:sans-serif;-inkscape-font-specification:'sans-serif Bold';fill:#333333;stroke-width:0.986594"
       id="path25" />
  </g>
  <g
     aria-label="3"
     id="text1062"
     style="font-style:normal;font-weight:normal;font-size:39.4637px;line-height:1.25;font-family:sans-serif;fill:#000000;fill-opacity:1;stroke:none;stroke-width:0.986594"
     transform="translate(4.0690172,1.3473766e-5)">
    <path
       d="m 336.42987,400.88077 q 13.96646,3.60724 21.18093,12.57907 7.30696,8.87935 7.30696,22.66083 0,20.53348 -15.72384,31.26269 -15.72383,10.63671 -45.8766,10.63671 -10.63672,0 -21.36593,-1.75737 -10.63671,-1.66488 -21.08844,-5.08712 v -27.47047 q 9.98927,4.99463 19.79354,7.58444 9.89677,2.49731 19.42356,2.49731 14.15146,0 21.6434,-4.90214 7.58444,-4.90213 7.58444,-14.05896 0,-9.4343 -7.76942,-14.24394 -7.67693,-4.90214 -22.75332,-4.90214 H 284.5412 v -22.9383 h 14.9839 q 13.4115,0 19.97852,-4.1622 6.56701,-4.25468 6.56701,-12.85655 0,-7.95441 -6.38203,-12.30159 -6.38202,-4.34718 -18.03616,-4.34718 -8.60187,0 -17.38872,1.94236 -8.78685,1.94236 -17.4812,5.73458 v -26.08307 q 10.54422,-2.95979 20.90345,-4.43968 10.35924,-1.47989 20.3485,-1.47989 26.91551,0 40.23452,8.87935 13.41151,8.78685 13.41151,26.54553 0,12.11661 -6.38203,19.88603 -6.38203,7.67694 -18.8686,10.8217 z"
       style="font-style:normal;font-variant:normal;font-weight:bold;font-stretch:normal;font-size:189.426px;font-family:sans-serif;-inkscape-font-specification:'sans-serif Bold';fill:#ffffff;stroke-width:0.986594"
       id="path28" />
  </g>
</svg>
