<?xml version="1.0" encoding="UTF-8" standalone="no"?>
<svg
   xmlns:osb="http://www.openswatchbook.org/uri/2009/osb"
   xmlns:dc="http://purl.org/dc/elements/1.1/"
   xmlns:cc="http://creativecommons.org/ns#"
   xmlns:rdf="http://www.w3.org/1999/02/22-rdf-syntax-ns#"
   xmlns:svg="http://www.w3.org/2000/svg"
   xmlns="http://www.w3.org/2000/svg"
   xmlns:sodipodi="http://sodipodi.sourceforge.net/DTD/sodipodi-0.dtd"
   xmlns:inkscape="http://www.inkscape.org/namespaces/inkscape"
   id="Capa_1"
   enable-background="new 0 0 505.136 505.136"
   height="512"
   viewBox="0 0 505.136 505.136"
   width="512"
   version="1.1"
   sodipodi:docname="warning_2.svg"
   inkscape:version="1.0.1 (c497b03c, 2020-09-10)">
  <sodipodi:namedview
     pagecolor="#ffffff"
     bordercolor="#666666"
     borderopacity="1"
     objecttolerance="10"
     gridtolerance="10"
     guidetolerance="10"
     inkscape:pageopacity="0"
     inkscape:pageshadow="2"
     inkscape:window-width="1440"
     inkscape:window-height="900"
     id="namedview864"
     showgrid="false"
     inkscape:zoom="1.1582031"
     inkscape:cx="256"
     inkscape:cy="256"
     inkscape:window-x="0"
     inkscape:window-y="0"
     inkscape:window-maximized="0"
     inkscape:current-layer="Capa_1" />
  <metadata
     id="metadata1030">
    <rdf:RDF>
      <cc:Work
         rdf:about="">
        <dc:format>image/svg+xml</dc:format>
        <dc:type
           rdf:resource="http://purl.org/dc/dcmitype/StillImage" />
        <dc:title />
      </cc:Work>
    </rdf:RDF>
  </metadata>
  <defs
     id="defs1028">
    <linearGradient
       id="linearGradient1639"
       osb:paint="solid">
      <stop
         style="stop-color:#0065cc;stop-opacity:1;"
         offset="0"
         id="stop1637" />
    </linearGradient>
  </defs>
  <g
     id="g1036"
     transform="matrix(0.88639321,0,0,0.88639321,-1.0362772e-4,16.515649)"
     style="fill:#f2bb05;fill-opacity:1">
    <g
       id="g979"
       style="fill:#f2bb05;fill-opacity:1">
      <g
         id="g977"
         style="fill:#f2bb05;fill-opacity:1">
        <path
           d="M 501.362,383.95 320.497,51.474 C 291.438,2.553 220.601,2.488 191.503,51.474 L 10.647,383.95 c -29.706,49.989 6.259,113.291 64.482,113.291 h 361.736 c 58.174,0 94.203,-63.251 64.497,-113.291 z M 256,437.241 c -16.538,0 -30,-13.462 -30,-30 0,-16.538 13.462,-30 30,-30 16.538,0 30,13.462 30,30 0,16.538 -13.462,30 -30,30 z m 30,-120 c 0,16.538 -13.462,30 -30,30 -16.538,0 -30,-13.462 -30,-30 v -150 c 0,-16.538 13.462,-30 30,-30 16.538,0 30,13.462 30,30 z"
           id="path975"
           style="fill:#f2bb05;fill-opacity:1" />
      </g>
    </g>
    <g
       id="g981"
       style="fill:#f2bb05;fill-opacity:1" />
    <g
       id="g983"
       style="fill:#f2bb05;fill-opacity:1" />
    <g
       id="g985"
       style="fill:#f2bb05;fill-opacity:1" />
    <g
       id="g987"
       style="fill:#f2bb05;fill-opacity:1" />
    <g
       id="g989"
       style="fill:#f2bb05;fill-opacity:1" />
    <g
       id="g991"
       style="fill:#f2bb05;fill-opacity:1" />
    <g
       id="g993"
       style="fill:#f2bb05;fill-opacity:1" />
    <g
       id="g995"
       style="fill:#f2bb05;fill-opacity:1" />
    <g
       id="g997"
       style="fill:#f2bb05;fill-opacity:1" />
    <g
       id="g999"
       style="fill:#f2bb05;fill-opacity:1" />
    <g
       id="g1001"
       style="fill:#f2bb05;fill-opacity:1" />
    <g
       id="g1003"
       style="fill:#f2bb05;fill-opacity:1" />
    <g
       id="g1005"
       style="fill:#f2bb05;fill-opacity:1" />
    <g
       id="g1007"
       style="fill:#f2bb05;fill-opacity:1" />
    <g
       id="g1009"
       style="fill:#f2bb05;fill-opacity:1" />
  </g>
  <ellipse
     style="opacity:1;fill:#d32f2f;fill-opacity:1;stroke:#d32f2f;stroke-width:1.98899;stroke-miterlimit:4;stroke-dasharray:none;stroke-opacity:1"
     id="path1593"
     cx="406.47662"
     cy="406.47662"
     rx="97.664871"
     ry="97.664879" />
  <g
     id="g3380"
     transform="translate(-18.406617,16.725734)">
    <g
       id="text860"
       style="font-style:normal;font-weight:normal;font-size:39.4637px;line-height:1.25;font-family:sans-serif;fill:#000000;fill-opacity:1;stroke:none;stroke-width:0.986594" />
  </g>
  <g
     aria-label="2"
     id="text1062-9"
     style="font-style:normal;font-weight:normal;font-size:39.4637px;line-height:1.25;font-family:sans-serif;opacity:0.8;fill:#333333;fill-opacity:1;stroke:none;stroke-width:0.986594"
     transform="translate(94.942868)">
    <path
       d="m 303.84004,453.61731 h 60.76801 v 26.17557 H 264.25297 v -26.17557 l 50.40877,-44.48921 q 6.752,-6.10455 9.98926,-11.93162 3.23726,-5.82707 3.23726,-12.1166 0,-9.71178 -6.56701,-15.63134 -6.47452,-5.91957 -17.29622,-5.91957 -8.32439,0 -18.22116,3.60724 -9.89677,3.51474 -21.18093,10.54422 v -30.33776 q 12.02411,-3.97721 23.77074,-6.01206 11.74663,-2.12734 23.0308,-2.12734 24.78817,0 38.47715,10.91419 13.78148,10.9142 13.78148,30.43025 0,11.28417 -5.82706,21.08845 -5.82707,9.71178 -24.51069,26.08307 z"
       style="font-style:normal;font-variant:normal;font-weight:bold;font-stretch:normal;font-size:189.426px;font-family:sans-serif;-inkscape-font-specification:'sans-serif Bold';fill:#333333;stroke-width:0.986594"
       id="path25" />
  </g>
  <g
     aria-label="2"
     id="text1062"
     style="font-style:normal;font-weight:normal;font-size:39.4637px;line-height:1.25;font-family:sans-serif;fill:#000000;fill-opacity:1;stroke:none;stroke-width:0.986594"
     transform="translate(94.942868)">
    <path
       d="m 298.87764,450.50336 h 60.768 v 26.17556 H 259.29056 v -26.17556 l 50.40878,-44.48921 q 6.752,-6.10455 9.98926,-11.93162 3.23726,-5.82707 3.23726,-12.1166 0,-9.71178 -6.56702,-15.63135 -6.47452,-5.91956 -17.29622,-5.91956 -8.32438,0 -18.22115,3.60723 -9.89677,3.51474 -21.18093,10.54422 v -30.33775 q 12.02411,-3.97721 23.77074,-6.01206 11.74663,-2.12734 23.0308,-2.12734 24.78816,0 38.47715,10.91419 13.78148,10.9142 13.78148,30.43025 0,11.28417 -5.82707,21.08844 -5.82707,9.71179 -24.51069,26.08307 z"
       style="font-style:normal;font-variant:normal;font-weight:bold;font-stretch:normal;font-size:189.426px;font-family:sans-serif;-inkscape-font-specification:'sans-serif Bold';fill:#ffffff;stroke-width:0.986594"
       id="path28" />
  </g>
</svg>
