<?xml version="1.0" encoding="UTF-8" standalone="no"?>
<svg
   xmlns:osb="http://www.openswatchbook.org/uri/2009/osb"
   xmlns:dc="http://purl.org/dc/elements/1.1/"
   xmlns:cc="http://creativecommons.org/ns#"
   xmlns:rdf="http://www.w3.org/1999/02/22-rdf-syntax-ns#"
   xmlns:svg="http://www.w3.org/2000/svg"
   xmlns="http://www.w3.org/2000/svg"
   id="Capa_1"
   enable-background="new 0 0 505.136 505.136"
   height="512"
   viewBox="0 0 505.136 505.136"
   width="512"
   version="1.1">
  <metadata
     id="metadata1030">
    <rdf:RDF>
      <cc:Work
         rdf:about="">
        <dc:format>image/svg+xml</dc:format>
        <dc:type
           rdf:resource="http://purl.org/dc/dcmitype/StillImage" />
        <dc:title></dc:title>
      </cc:Work>
    </rdf:RDF>
  </metadata>
  <defs
     id="defs1028">
    <linearGradient
       id="linearGradient1639"
       osb:paint="solid">
      <stop
         style="stop-color:#0065cc;stop-opacity:1;"
         offset="0"
         id="stop1637" />
    </linearGradient>
  </defs>
  <g
     id="g3380"
     transform="translate(-18.406617,16.725734)">
    <g
       id="text860"
       style="font-style:normal;font-weight:normal;font-size:39.4637px;line-height:1.25;font-family:sans-serif;fill:#000000;fill-opacity:1;stroke:none;stroke-width:0.986594" />
  </g>
  <path
     style="fill:#000000;stroke-width:8.89419"
     d="m 134.74549,430.46932 c -10.07203,-10.07202 -22.49708,-18.31278 -27.61127,-18.31278 -16.537705,0 -52.960827,-43.10438 -52.960827,-62.67572 0,-10.45733 -8.004778,-29.18973 -17.788377,-41.62758 -22.829063,-29.02247 -22.522089,-51.05842 1.039538,-74.62003 15.057956,-15.05796 26.188631,-17.92606 55.588694,-14.32388 20.218402,2.47722 43.764922,7.3756 52.325592,10.88529 8.61223,3.53087 15.56481,2.46531 15.56481,-2.38544 0,-16.68975 -52.91158,-31.19321 -93.502047,-25.6297 -36.841228,5.04968 -40.06081,3.86261 -45.2142,-16.67016 C 12.389177,146.0702 26.22649,103.44423 56.699375,78.794657 72.431394,66.069004 96.292027,45.896488 109.72301,33.966801 136.01966,10.609616 167.51954,-0.43211916 193.5534,4.5815559 208.78679,7.5152277 209.82168,21.56899 209.82168,225.50037 c 0,217.78583 0,217.78583 -28.38169,220.53377 -19.46297,1.88445 -34.13635,-3.0067 -46.6945,-15.56482 z m 26.15816,-94.31767 c 0,-24.96093 -35.79543,-66.30215 -57.40795,-66.30215 -21.089259,0 -16.337343,13.75219 8.6926,25.15658 14.13226,6.4391 24.42086,20.13701 27.79433,37.00441 6.52026,32.60131 20.92102,35.45184 20.92102,4.14116 z m -1.97902,-204.66642 c 10.87206,-7.61507 19.7674,-19.62224 19.7674,-26.68258 0,-18.224643 -11.60204,-15.89116 -24.61847,4.95145 -6.10997,9.7836 -19.07988,17.78837 -28.82202,17.78837 -9.74218,0 -17.71302,4.00239 -17.71302,8.89418 0,13.45898 29.10564,10.65443 51.38611,-4.95142 z m 77.13157,304.94631 c -2.38528,-6.21595 -3.26028,-105.22233 -1.94442,-220.01416 2.2248,-194.08472 3.53267,-208.9316648 18.66081,-211.8406335 25.89774,-4.97983129 57.4571,5.9857875 83.83038,29.1277235 13.431,11.785387 38.42832,33.389531 55.54962,48.009205 28.79167,24.584885 31.12965,30.369015 31.12965,77.014715 0,58.86008 -18.68509,80.81612 -76.66663,90.08774 -18.9809,3.03517 -34.51073,9.00936 -34.51073,13.27594 0,12.39528 46.58548,8.86434 74.39372,-5.63865 14.01164,-7.30758 29.02057,-13.28649 33.35324,-13.28649 14.49119,0 8.08571,41.80736 -9.91088,64.68631 -9.7836,12.43785 -17.78837,30.98829 -17.78837,41.22327 0,21.76737 -29.50871,54.18584 -49.32232,54.18584 -19.82076,0 -57.40796,-40.49889 -57.40796,-61.85504 0,-10.00598 -4.00239,-18.19268 -8.89418,-18.19268 -23.28484,0 5.53768,73.38031 33.02424,84.07779 14.53166,5.65554 14.0943,7.65353 -5.10346,23.31326 -23.86375,19.46582 -61.91477,22.70711 -68.39271,5.82586 z M 374.36421,173.85273 c 0,-3.88022 -13.00776,-10.88437 -28.90612,-15.56486 -16.01485,-4.71474 -32.82158,-17.43463 -37.68581,-28.52185 -9.12247,-20.79313 -22.34997,-27.02695 -22.34997,-10.53302 0,18.56606 19.25365,45.01146 38.38174,52.71835 24.86975,10.02026 50.56016,10.98638 50.56016,1.90138 z"
     id="path939" />
  <path
     style="opacity:1;fill:#0065cc;fill-opacity:1;stroke:#0065cc;stroke-width:0.870314"
     d=""
     id="path1045"
     transform="scale(0.98659375)" />
  <path
     style="opacity:1;fill:#0065cc;fill-opacity:1;stroke:#0065cc;stroke-width:0.870314"
     d=""
     id="path1063"
     transform="scale(0.98659375)" />
  <g
     id="g1135"
     transform="matrix(8.2216146,0,0,8.2216146,302.68332,321.85128)">
    <path
       d="M 0,0 H 24 V 24 H 0 Z"
       fill="none"
       id="path1121" />
    <path
       d="M 22.304269,10.978746 H 10.989985 V 22.293032 H 7.2185554 V 10.978746 H -4.0957298 V 7.2073174 H 7.2185554 V -4.1069678 H 10.989985 V 7.2073174 h 11.314284 z"
       id="path1123"
       style="fill:#4caf50;fill-opacity:1;stroke-width:1.88572" />
  </g>
</svg>
